%TF.GenerationSoftware,KiCad,Pcbnew,(5.0.2)-1*%
%TF.CreationDate,2020-01-28T14:28:05-08:00*%
%TF.ProjectId,DMX_CTRL,444d585f-4354-4524-9c2e-6b696361645f,rev?*%
%TF.SameCoordinates,PX4c4b400PY8f0d180*%
%TF.FileFunction,Copper,L1,Top*%
%TF.FilePolarity,Positive*%
%FSLAX46Y46*%
G04 Gerber Fmt 4.6, Leading zero omitted, Abs format (unit mm)*
G04 Created by KiCad (PCBNEW (5.0.2)-1) date 1/28/2020 2:28:05 PM*
%MOMM*%
%LPD*%
G01*
G04 APERTURE LIST*
%ADD10C,0.150000*%
%ADD11C,6.350000*%
%ADD12C,0.100000*%
%ADD13C,2.540000*%
%ADD14C,1.524000*%
%ADD15C,1.400000*%
%ADD16O,1.400000X1.400000*%
%ADD17C,1.600000*%
%ADD18C,7.500000*%
%ADD19R,1.700000X1.700000*%
%ADD20O,1.700000X1.700000*%
%ADD21O,1.905000X2.000000*%
%ADD22R,1.905000X2.000000*%
%ADD23C,2.000000*%
%ADD24C,0.800000*%
%ADD25C,0.250000*%
%ADD26C,1.000000*%
%ADD27C,2.000000*%
%ADD28C,3.000000*%
%ADD29C,2.500000*%
%ADD30C,0.500000*%
G04 APERTURE END LIST*
D10*
X1666666Y0D02*
G75*
G03X1666666Y0I-1666666J0D01*
G01*
X-2500000Y0D02*
X2500000Y0D01*
X0Y2500000D02*
X0Y-2500000D01*
X0Y100000000D02*
X0Y0D01*
X50000000Y100000000D02*
X0Y100000000D01*
X50000000Y0D02*
X50000000Y100000000D01*
X0Y0D02*
X50000000Y0D01*
D11*
X14224000Y96012000D03*
X4064000Y96012000D03*
D12*
G36*
X13390172Y90874742D02*
X13451356Y90862918D01*
X13511086Y90845154D01*
X13568788Y90821621D01*
X13623905Y90792546D01*
X13675907Y90758208D01*
X13724293Y90718939D01*
X13768596Y90675116D01*
X13808391Y90627161D01*
X13843294Y90575537D01*
X13872969Y90520740D01*
X13897130Y90463299D01*
X16937689Y82109432D01*
X16956103Y82049899D01*
X16968594Y81988847D01*
X16975040Y81926866D01*
X16975380Y81864551D01*
X16969610Y81802502D01*
X16957786Y81741318D01*
X16940022Y81681588D01*
X16916489Y81623886D01*
X16887414Y81568769D01*
X16853076Y81516767D01*
X16813807Y81468382D01*
X16769984Y81424078D01*
X16722029Y81384283D01*
X16670405Y81349380D01*
X16615608Y81319705D01*
X16558167Y81295544D01*
X15364758Y80861179D01*
X15305225Y80842765D01*
X15244173Y80830274D01*
X15182192Y80823828D01*
X15119877Y80823488D01*
X15057828Y80829258D01*
X14996644Y80841082D01*
X14936914Y80858846D01*
X14879212Y80882379D01*
X14824095Y80911454D01*
X14772093Y80945792D01*
X14723707Y80985061D01*
X14679404Y81028884D01*
X14639609Y81076839D01*
X14604706Y81128463D01*
X14575031Y81183260D01*
X14550870Y81240701D01*
X11510311Y89594568D01*
X11491897Y89654101D01*
X11479406Y89715153D01*
X11472960Y89777134D01*
X11472620Y89839449D01*
X11478390Y89901498D01*
X11490214Y89962682D01*
X11507978Y90022412D01*
X11531511Y90080114D01*
X11560586Y90135231D01*
X11594924Y90187233D01*
X11634193Y90235618D01*
X11678016Y90279922D01*
X11725971Y90319717D01*
X11777595Y90354620D01*
X11832392Y90384295D01*
X11889833Y90408456D01*
X13083242Y90842821D01*
X13142775Y90861235D01*
X13203827Y90873726D01*
X13265808Y90880172D01*
X13328123Y90880512D01*
X13390172Y90874742D01*
X13390172Y90874742D01*
G37*
D13*
X14224000Y85852000D03*
D12*
G36*
X9841241Y90928942D02*
X9902882Y90919799D01*
X9963331Y90904657D01*
X10022004Y90883664D01*
X10078337Y90857020D01*
X10131787Y90824983D01*
X10181840Y90787862D01*
X10228013Y90746013D01*
X10269862Y90699840D01*
X10306983Y90649787D01*
X10339020Y90596337D01*
X10365664Y90540004D01*
X10386657Y90481331D01*
X10401799Y90420882D01*
X10410942Y90359241D01*
X10414000Y90297000D01*
X10414000Y81407000D01*
X10410942Y81344759D01*
X10401799Y81283118D01*
X10386657Y81222669D01*
X10365664Y81163996D01*
X10339020Y81107663D01*
X10306983Y81054213D01*
X10269862Y81004160D01*
X10228013Y80957987D01*
X10181840Y80916138D01*
X10131787Y80879017D01*
X10078337Y80846980D01*
X10022004Y80820336D01*
X9963331Y80799343D01*
X9902882Y80784201D01*
X9841241Y80775058D01*
X9779000Y80772000D01*
X8509000Y80772000D01*
X8446759Y80775058D01*
X8385118Y80784201D01*
X8324669Y80799343D01*
X8265996Y80820336D01*
X8209663Y80846980D01*
X8156213Y80879017D01*
X8106160Y80916138D01*
X8059987Y80957987D01*
X8018138Y81004160D01*
X7981017Y81054213D01*
X7948980Y81107663D01*
X7922336Y81163996D01*
X7901343Y81222669D01*
X7886201Y81283118D01*
X7877058Y81344759D01*
X7874000Y81407000D01*
X7874000Y90297000D01*
X7877058Y90359241D01*
X7886201Y90420882D01*
X7901343Y90481331D01*
X7922336Y90540004D01*
X7948980Y90596337D01*
X7981017Y90649787D01*
X8018138Y90699840D01*
X8059987Y90746013D01*
X8106160Y90787862D01*
X8156213Y90824983D01*
X8209663Y90857020D01*
X8265996Y90883664D01*
X8324669Y90904657D01*
X8385118Y90919799D01*
X8446759Y90928942D01*
X8509000Y90932000D01*
X9779000Y90932000D01*
X9841241Y90928942D01*
X9841241Y90928942D01*
G37*
D13*
X9144000Y85852000D03*
D12*
G36*
X5022192Y90880172D02*
X5084173Y90873726D01*
X5145225Y90861235D01*
X5204758Y90842821D01*
X6398167Y90408456D01*
X6455608Y90384295D01*
X6510405Y90354620D01*
X6562029Y90319717D01*
X6609984Y90279922D01*
X6653807Y90235619D01*
X6693076Y90187233D01*
X6727414Y90135231D01*
X6756489Y90080114D01*
X6780022Y90022412D01*
X6797786Y89962682D01*
X6809610Y89901498D01*
X6815380Y89839449D01*
X6815040Y89777134D01*
X6808594Y89715153D01*
X6796103Y89654101D01*
X6777689Y89594568D01*
X3737130Y81240701D01*
X3712969Y81183260D01*
X3683294Y81128463D01*
X3648391Y81076839D01*
X3608596Y81028884D01*
X3564292Y80985061D01*
X3515907Y80945792D01*
X3463905Y80911454D01*
X3408788Y80882379D01*
X3351086Y80858846D01*
X3291356Y80841082D01*
X3230172Y80829258D01*
X3168123Y80823488D01*
X3105808Y80823828D01*
X3043827Y80830274D01*
X2982775Y80842765D01*
X2923242Y80861179D01*
X1729833Y81295544D01*
X1672392Y81319705D01*
X1617595Y81349380D01*
X1565971Y81384283D01*
X1518016Y81424078D01*
X1474193Y81468381D01*
X1434924Y81516767D01*
X1400586Y81568769D01*
X1371511Y81623886D01*
X1347978Y81681588D01*
X1330214Y81741318D01*
X1318390Y81802502D01*
X1312620Y81864551D01*
X1312960Y81926866D01*
X1319406Y81988847D01*
X1331897Y82049899D01*
X1350311Y82109432D01*
X4390870Y90463299D01*
X4415031Y90520740D01*
X4444706Y90575537D01*
X4479609Y90627161D01*
X4519404Y90675116D01*
X4563708Y90718939D01*
X4612093Y90758208D01*
X4664095Y90792546D01*
X4719212Y90821621D01*
X4776914Y90845154D01*
X4836644Y90862918D01*
X4897828Y90874742D01*
X4959877Y90880512D01*
X5022192Y90880172D01*
X5022192Y90880172D01*
G37*
D13*
X4064000Y85852000D03*
D14*
X17790000Y73165000D03*
X17790000Y70625000D03*
X17790000Y68085000D03*
X17790000Y65545000D03*
X15250000Y65545000D03*
X15250000Y68085000D03*
X15250000Y70625000D03*
X15250000Y73165000D03*
D15*
X28194000Y80264000D03*
D16*
X28194000Y78364000D03*
D14*
X10170000Y2680000D03*
X10170000Y15380000D03*
X10170000Y33160000D03*
X10170000Y43320000D03*
X10170000Y5220000D03*
X10170000Y28080000D03*
X10170000Y10300000D03*
X10170000Y12840000D03*
X10170000Y7760000D03*
X10170000Y30620000D03*
X10170000Y25540000D03*
X10170000Y38240000D03*
X10170000Y17920000D03*
X10170000Y45860000D03*
X10170000Y40780000D03*
X10170000Y35700000D03*
X10170000Y48400000D03*
X10170000Y23000000D03*
X10170000Y50940000D03*
X10170000Y20460000D03*
X25410000Y2680000D03*
X25410000Y5220000D03*
X25410000Y7760000D03*
X25410000Y10300000D03*
X25410000Y12840000D03*
X25410000Y20460000D03*
X25410000Y15380000D03*
X25410000Y17920000D03*
X25410000Y23000000D03*
X25410000Y25540000D03*
X25410000Y28080000D03*
X25410000Y33160000D03*
X25410000Y30620000D03*
X25410000Y35700000D03*
X25410000Y38240000D03*
X25410000Y45860000D03*
X25410000Y40780000D03*
X25410000Y43320000D03*
X25410000Y48400000D03*
X25410000Y50940000D03*
D13*
X22860000Y93218000D03*
X22660000Y83218000D03*
X19660000Y88218000D03*
D17*
X39370000Y79248000D03*
X39370000Y81748000D03*
X5715000Y59690000D03*
X8215000Y59690000D03*
X8255000Y55880000D03*
X5755000Y55880000D03*
D18*
X4000000Y4000000D03*
X25000000Y70000000D03*
X46000000Y4000000D03*
D19*
X4572000Y36068000D03*
D20*
X2032000Y36068000D03*
X4572000Y38608000D03*
X2032000Y38608000D03*
D19*
X4572000Y10160000D03*
D20*
X2032000Y10160000D03*
X4572000Y12700000D03*
X2032000Y12700000D03*
X4572000Y15240000D03*
X2032000Y15240000D03*
X4572000Y17780000D03*
X2032000Y17780000D03*
X4572000Y20320000D03*
X2032000Y20320000D03*
X4572000Y22860000D03*
X2032000Y22860000D03*
X4572000Y25400000D03*
X2032000Y25400000D03*
X4572000Y27940000D03*
X2032000Y27940000D03*
X4572000Y30480000D03*
X2032000Y30480000D03*
X22860000Y57404000D03*
D19*
X22860000Y59944000D03*
X2000000Y57150000D03*
D20*
X2000000Y54610000D03*
X2000000Y52070000D03*
X2000000Y49530000D03*
X2000000Y46990000D03*
X2000000Y44450000D03*
D19*
X8890000Y67310000D03*
D20*
X8890000Y69850000D03*
X1905000Y75565000D03*
X1905000Y73025000D03*
X1905000Y70485000D03*
X1905000Y67945000D03*
X1905000Y65405000D03*
D19*
X1905000Y62865000D03*
D21*
X38100000Y55245000D03*
X35560000Y55245000D03*
D22*
X33020000Y55245000D03*
X33020000Y46355000D03*
D21*
X35560000Y46355000D03*
X38100000Y46355000D03*
D22*
X33020000Y41275000D03*
D21*
X35560000Y41275000D03*
X38100000Y41275000D03*
X38100000Y32385000D03*
X35560000Y32385000D03*
D22*
X33020000Y32385000D03*
D21*
X38100000Y27305000D03*
X35560000Y27305000D03*
D22*
X33020000Y27305000D03*
X33020000Y18415000D03*
D21*
X35560000Y18415000D03*
X38100000Y18415000D03*
X38100000Y13335000D03*
X35560000Y13335000D03*
D22*
X33020000Y13335000D03*
D21*
X38100000Y74295000D03*
X35560000Y74295000D03*
D22*
X33020000Y74295000D03*
X33020000Y69215000D03*
D21*
X35560000Y69215000D03*
X38100000Y69215000D03*
D22*
X33020000Y60325000D03*
D21*
X35560000Y60325000D03*
X38100000Y60325000D03*
D15*
X31750000Y65405000D03*
D16*
X33650000Y65405000D03*
X38730000Y51435000D03*
D15*
X36830000Y51435000D03*
X31750000Y51435000D03*
D16*
X33650000Y51435000D03*
X38730000Y37465000D03*
D15*
X36830000Y37465000D03*
X31750000Y37465000D03*
D16*
X33650000Y37465000D03*
X38730000Y23495000D03*
D15*
X36830000Y23495000D03*
D16*
X33650000Y23495000D03*
D15*
X31750000Y23495000D03*
X26924000Y62992000D03*
D16*
X28824000Y62992000D03*
D15*
X27056000Y57912000D03*
D16*
X28956000Y57912000D03*
X38730000Y65405000D03*
D15*
X36830000Y65405000D03*
D16*
X27940000Y83820000D03*
D15*
X27940000Y85720000D03*
D23*
X32000000Y5500000D03*
X32000000Y10000000D03*
X38500000Y5500000D03*
X38500000Y10000000D03*
D22*
X12700000Y57150000D03*
D21*
X15240000Y57150000D03*
X17780000Y57150000D03*
D14*
X21590000Y7620000D03*
X19050000Y7620000D03*
X16510000Y7620000D03*
X13970000Y7620000D03*
X13970000Y50800000D03*
X16510000Y50800000D03*
X19050000Y50800000D03*
X21590000Y50800000D03*
D13*
X44704000Y14732000D03*
X44704000Y19812000D03*
X44704000Y24892000D03*
X44704000Y29972000D03*
X44704000Y35052000D03*
X44704000Y40132000D03*
X44704000Y45212000D03*
X44704000Y50292000D03*
X44704000Y55372000D03*
X44704000Y60452000D03*
X44704000Y65532000D03*
X44704000Y70612000D03*
X44704000Y75692000D03*
X44704000Y80772000D03*
X26924000Y94742000D03*
X32004000Y94742000D03*
X37084000Y94742000D03*
X42164000Y94742000D03*
X47244000Y94742000D03*
D24*
X8352456Y64226766D03*
X22098000Y78232000D03*
X32004000Y94742000D03*
X12192000Y81788000D03*
X32004000Y81788000D03*
X32004000Y84328000D03*
X19939999Y84472397D03*
X5080000Y43180000D03*
X5080000Y45720000D03*
X7620000Y28956000D03*
X14732000Y28448000D03*
X6604000Y15530990D03*
X23585010Y34036000D03*
X16256000Y26924000D03*
X21336000Y27432000D03*
X23202010Y42327043D03*
X24304148Y40694446D03*
X7620000Y19812000D03*
X12192000Y19812000D03*
X14732000Y20828000D03*
X22860000Y18796000D03*
X27432000Y24384000D03*
X11684000Y64516000D03*
X4572000Y57404000D03*
X3048000Y33528000D03*
X17853172Y30543852D03*
X8472313Y27750688D03*
X6986362Y26976720D03*
X13965340Y25658660D03*
X11985813Y72990732D03*
X12192000Y70390699D03*
X13336394Y75972157D03*
X7352446Y64225010D03*
X20320000Y61468000D03*
X11684000Y67056000D03*
X23622000Y52578000D03*
X5084660Y51312660D03*
X5080000Y50292000D03*
X8128000Y49276000D03*
X5075340Y49271340D03*
X7620000Y46736000D03*
X5080000Y46736000D03*
X12192000Y4064000D03*
X12192000Y53848000D03*
X29027659Y49204341D03*
X29244943Y38144263D03*
X28448000Y12700000D03*
X15244660Y24379340D03*
X23585010Y25781605D03*
X31089032Y34634153D03*
X20828000Y18796000D03*
X15748000Y17780000D03*
X38608000Y7620000D03*
X32004000Y7620000D03*
X12700000Y6096000D03*
X15748000Y15240000D03*
X13208000Y12700000D03*
X22860000Y9652000D03*
X23876000Y54356000D03*
X16748175Y54017990D03*
X16764000Y44196000D03*
X28443672Y51245396D03*
X21501990Y46484536D03*
X16764000Y33020000D03*
X27852639Y47752000D03*
X27031474Y41090202D03*
X27432000Y75184000D03*
X29464000Y36068000D03*
X31496000Y77470000D03*
X30550011Y71628000D03*
X17780000Y20828000D03*
X5385834Y73205441D03*
X17022660Y74417340D03*
X26665340Y32262659D03*
X19304000Y38100000D03*
X40640000Y58928000D03*
X29464000Y53848000D03*
X26162000Y53594000D03*
X21071947Y47575957D03*
X40386000Y45720000D03*
X30226000Y44196000D03*
X28702000Y39878000D03*
X22352000Y39624000D03*
X19050000Y75438000D03*
X30524890Y79576816D03*
X8382000Y75677981D03*
X28448000Y88392000D03*
X19812000Y97790000D03*
D25*
X22660000Y93018000D02*
X22860000Y93218000D01*
X22660000Y83218000D02*
X22660000Y93018000D01*
X22660000Y83218000D02*
X24456051Y83218000D01*
X24456051Y83218000D02*
X25061040Y82613011D01*
X38238630Y79248000D02*
X39370000Y79248000D01*
X34873619Y82613011D02*
X38238630Y79248000D01*
X25061040Y82613011D02*
X34873619Y82613011D01*
X10108792Y72324976D02*
X13030972Y75247156D01*
X21390001Y81948001D02*
X22660000Y83218000D01*
X10108792Y65983102D02*
X10108792Y72324976D01*
X13684395Y75247156D02*
X20385240Y81948001D01*
X8352456Y64226766D02*
X10108792Y65983102D01*
X13030972Y75247156D02*
X13684395Y75247156D01*
X20385240Y81948001D02*
X21390001Y81948001D01*
D26*
X38100000Y10400000D02*
X38500000Y10000000D01*
X38100000Y13335000D02*
X38100000Y10400000D01*
X38500000Y10000000D02*
X32000000Y10000000D01*
X10170000Y2680000D02*
X10170000Y5220000D01*
X4572000Y10160000D02*
X4572000Y12700000D01*
X4572000Y12700000D02*
X4572000Y15240000D01*
X4572000Y15240000D02*
X4572000Y17780000D01*
X4572000Y17780000D02*
X4572000Y20320000D01*
X4572000Y20320000D02*
X4572000Y22860000D01*
X4572000Y22860000D02*
X4572000Y25400000D01*
X4572000Y36068000D02*
X4572000Y38608000D01*
X3270000Y55880000D02*
X2000000Y57150000D01*
X5755000Y55880000D02*
X3270000Y55880000D01*
X2000000Y62770000D02*
X1905000Y62865000D01*
X2000000Y57150000D02*
X2000000Y62770000D01*
X5755000Y57230000D02*
X8215000Y59690000D01*
X5755000Y55880000D02*
X5755000Y57230000D01*
X10170000Y5220000D02*
X5230000Y10160000D01*
X5230000Y10160000D02*
X4572000Y10160000D01*
X6519998Y40555998D02*
X6519998Y53983632D01*
X6519998Y53983632D02*
X5755000Y54748630D01*
X4572000Y38608000D02*
X6519998Y40555998D01*
X5755000Y54748630D02*
X5755000Y55880000D01*
X4572000Y27598288D02*
X4572000Y27940000D01*
X4572000Y25400000D02*
X4572000Y27598288D01*
X6122001Y31770256D02*
X4572000Y33320257D01*
X4572000Y33320257D02*
X4572000Y34218000D01*
X6122001Y29490001D02*
X6122001Y31770256D01*
X4572000Y34218000D02*
X4572000Y36068000D01*
X4572000Y27940000D02*
X6122001Y29490001D01*
D27*
X38100000Y54877002D02*
X38100000Y55245000D01*
D28*
X39370000Y87376000D02*
X39370000Y81748000D01*
X32004000Y94742000D02*
X39370000Y87376000D01*
D29*
X38100000Y74342500D02*
X38100000Y74295000D01*
X41620001Y77862501D02*
X38100000Y74342500D01*
X41620001Y80629369D02*
X41620001Y77862501D01*
X40501370Y81748000D02*
X41620001Y80629369D01*
X39370000Y81748000D02*
X40501370Y81748000D01*
X38100000Y74295000D02*
X38100000Y69215000D01*
X38100000Y60372500D02*
X38100000Y60325000D01*
X41552500Y63825000D02*
X38100000Y60372500D01*
X41552500Y65715000D02*
X41552500Y63825000D01*
X38100000Y69167500D02*
X41552500Y65715000D01*
X38100000Y69215000D02*
X38100000Y69167500D01*
X38100000Y60325000D02*
X38100000Y55245000D01*
X38100000Y46402500D02*
X38100000Y46355000D01*
X41552500Y49855000D02*
X38100000Y46402500D01*
X41552500Y51745000D02*
X41552500Y49855000D01*
X38100000Y55197500D02*
X41552500Y51745000D01*
X38100000Y55245000D02*
X38100000Y55197500D01*
X38100000Y46355000D02*
X38100000Y41275000D01*
X38100000Y32432500D02*
X38100000Y32385000D01*
X41552500Y35885000D02*
X38100000Y32432500D01*
X41552500Y37775000D02*
X41552500Y35885000D01*
X38100000Y41227500D02*
X41552500Y37775000D01*
X38100000Y41275000D02*
X38100000Y41227500D01*
X38100000Y32385000D02*
X38100000Y27305000D01*
X38100000Y18462500D02*
X38100000Y18415000D01*
X41552500Y21915000D02*
X38100000Y18462500D01*
X41552500Y23805000D02*
X41552500Y21915000D01*
X38100000Y27257500D02*
X41552500Y23805000D01*
X38100000Y27305000D02*
X38100000Y27257500D01*
X38100000Y18415000D02*
X38100000Y13335000D01*
X43307000Y13335000D02*
X44704000Y14732000D01*
X38100000Y13335000D02*
X43307000Y13335000D01*
D26*
X13716000Y73794762D02*
X16713239Y76792001D01*
X15250000Y65545000D02*
X13716000Y67079000D01*
X20658001Y76792001D02*
X21698001Y77832001D01*
X16713239Y76792001D02*
X20658001Y76792001D01*
X13716000Y67079000D02*
X13716000Y73794762D01*
X21698001Y77832001D02*
X22098000Y78232000D01*
X16220174Y52917989D02*
X14020163Y55118000D01*
X21635773Y52917989D02*
X16220174Y52917989D01*
X23947999Y50605763D02*
X21635773Y52917989D01*
X23947999Y49862001D02*
X23947999Y50605763D01*
X25410000Y48400000D02*
X23947999Y49862001D01*
X8215000Y58558630D02*
X8215000Y59690000D01*
X8215000Y58422498D02*
X8215000Y58558630D01*
X11519498Y55118000D02*
X8215000Y58422498D01*
X14020163Y55118000D02*
X11519498Y55118000D01*
X15240000Y55150000D02*
X15240000Y57150000D01*
X15208000Y55118000D02*
X15240000Y55150000D01*
X14020163Y55118000D02*
X15208000Y55118000D01*
D29*
X4064000Y82038769D02*
X4064000Y85852000D01*
X6780779Y79321990D02*
X4064000Y82038769D01*
X10642642Y79321990D02*
X6780779Y79321990D01*
X12192000Y80871348D02*
X10642642Y79321990D01*
X12192000Y81788000D02*
X12192000Y80871348D01*
D26*
X12700000Y57197500D02*
X12700000Y57150000D01*
X14652500Y59150000D02*
X12700000Y57197500D01*
X18164502Y59150000D02*
X14652500Y59150000D01*
X19060503Y58253999D02*
X18164502Y59150000D01*
X22010001Y58253999D02*
X19060503Y58253999D01*
X22860000Y57404000D02*
X22010001Y58253999D01*
X10659999Y61190001D02*
X7549746Y61190001D01*
X6849744Y60489999D02*
X6514999Y60489999D01*
X7549746Y61190001D02*
X6849744Y60489999D01*
X12700000Y59150000D02*
X10659999Y61190001D01*
X12700000Y57150000D02*
X12700000Y59150000D01*
X6514999Y60489999D02*
X5715000Y59690000D01*
D30*
X17780000Y57150000D02*
X20993762Y57150000D01*
X20993762Y57150000D02*
X22860000Y55283762D01*
D26*
X32004000Y89662000D02*
X26924000Y94742000D01*
X32004000Y84328000D02*
X32004000Y89662000D01*
X23033764Y55283762D02*
X24410001Y56659999D01*
X31430005Y78570001D02*
X32004000Y79143996D01*
X22860000Y55283762D02*
X23033764Y55283762D01*
X30395999Y76090847D02*
X30395999Y77998001D01*
X29450001Y75144849D02*
X30395999Y76090847D01*
X29450001Y67863999D02*
X29450001Y75144849D01*
X32004000Y81222315D02*
X32004000Y81788000D01*
X24410001Y56659999D02*
X24410001Y62823999D01*
X24410001Y62823999D02*
X29450001Y67863999D01*
X30395999Y77998001D02*
X30967999Y78570001D01*
X32004000Y79143996D02*
X32004000Y81222315D01*
X30967999Y78570001D02*
X31430005Y78570001D01*
D30*
X24861987Y54628017D02*
X24861988Y53007820D01*
X26622001Y47072001D02*
X26171999Y46621999D01*
X24206242Y55283762D02*
X24861987Y54628017D01*
X24861988Y53007820D02*
X25575821Y52293987D01*
X25575821Y52293987D02*
X25829821Y52293987D01*
X26622001Y51501807D02*
X26622001Y47072001D01*
X26171999Y46621999D02*
X25410000Y45860000D01*
X22860000Y55283762D02*
X24206242Y55283762D01*
X25829821Y52293987D02*
X26622001Y51501807D01*
X24068010Y48321990D02*
X22351999Y50038001D01*
X24068010Y47201990D02*
X24068010Y48321990D01*
X22351999Y50038001D02*
X21590000Y50800000D01*
X25410000Y45860000D02*
X24068010Y47201990D01*
D29*
X15603603Y84472397D02*
X19939999Y84472397D01*
X14224000Y85852000D02*
X15603603Y84472397D01*
D25*
X3207001Y41307001D02*
X5080000Y43180000D01*
X2032000Y36068000D02*
X3207001Y37243001D01*
X3207001Y37243001D02*
X3207001Y41307001D01*
X2032000Y38608000D02*
X2032000Y42672000D01*
X2032000Y42672000D02*
X5080000Y45720000D01*
X24322999Y4132999D02*
X24322999Y4002999D01*
X25410000Y5220000D02*
X24322999Y4132999D01*
X8075001Y5956001D02*
X5395002Y8636000D01*
X24322999Y4002999D02*
X21912999Y1592999D01*
X21912999Y1592999D02*
X9648239Y1592999D01*
X9648239Y1592999D02*
X8075001Y3166237D01*
X8075001Y3166237D02*
X8075001Y5956001D01*
X1182001Y11850001D02*
X2032000Y12700000D01*
X856999Y11524999D02*
X1182001Y11850001D01*
X856999Y9595999D02*
X856999Y11524999D01*
X1816998Y8636000D02*
X856999Y9595999D01*
X5395002Y8636000D02*
X1816998Y8636000D01*
X6204001Y15930989D02*
X6604000Y15530990D01*
X7620000Y28956000D02*
X6204001Y27540001D01*
X6204001Y27540001D02*
X6204001Y15930989D01*
X14732000Y28448000D02*
X18796000Y32512000D01*
X18796000Y32512000D02*
X22061010Y32512000D01*
X23185011Y33636001D02*
X23585010Y34036000D01*
X22061010Y32512000D02*
X23185011Y33636001D01*
X16256000Y26924000D02*
X16764000Y27432000D01*
X16764000Y27432000D02*
X21336000Y27432000D01*
X24304148Y41224905D02*
X24304148Y40694446D01*
X23202010Y42327043D02*
X24304148Y41224905D01*
X11752999Y19372999D02*
X12192000Y19812000D01*
X8059001Y19372999D02*
X11752999Y19372999D01*
X7620000Y19812000D02*
X8059001Y19372999D01*
X20102999Y21553001D02*
X22860000Y18796000D01*
X14732000Y20828000D02*
X15457001Y21553001D01*
X15457001Y21553001D02*
X20102999Y21553001D01*
X27432000Y28598000D02*
X25410000Y30620000D01*
X27432000Y24384000D02*
X27432000Y28598000D01*
X2754999Y64555001D02*
X1905000Y65405000D01*
X4535002Y62774998D02*
X2754999Y64555001D01*
X11016002Y62774998D02*
X4535002Y62774998D01*
X11684000Y63442996D02*
X11016002Y62774998D01*
X11684000Y64516000D02*
X11684000Y63442996D01*
X4535002Y62774998D02*
X4535002Y57440998D01*
X4535002Y57440998D02*
X4572000Y57404000D01*
X2881999Y26249999D02*
X2032000Y25400000D01*
X3207001Y26575001D02*
X2881999Y26249999D01*
X3207001Y32803314D02*
X3207001Y26575001D01*
X3048000Y32962315D02*
X3207001Y32803314D01*
X3048000Y33528000D02*
X3048000Y32962315D01*
X22946148Y30543852D02*
X17853172Y30543852D01*
X25410000Y28080000D02*
X22946148Y30543852D01*
X1182001Y28789999D02*
X2032000Y27940000D01*
X729999Y29242001D02*
X1182001Y28789999D01*
X729999Y74389999D02*
X729999Y29242001D01*
X1905000Y75565000D02*
X729999Y74389999D01*
X7698345Y26976720D02*
X8072314Y27350689D01*
X8072314Y27350689D02*
X8472313Y27750688D01*
X6986362Y26976720D02*
X7698345Y26976720D01*
X23015331Y26506606D02*
X22048725Y25540000D01*
X16453002Y25540000D02*
X16096001Y25182999D01*
X14365339Y25258661D02*
X13965340Y25658660D01*
X16096001Y25182999D02*
X14441001Y25182999D01*
X14441001Y25182999D02*
X14365339Y25258661D01*
X22048725Y25540000D02*
X16453002Y25540000D01*
X25410000Y25540000D02*
X24443394Y26506606D01*
X24443394Y26506606D02*
X23015331Y26506606D01*
X11985813Y70596886D02*
X12192000Y70390699D01*
X11985813Y72990732D02*
X11985813Y70596886D01*
X9415410Y72774987D02*
X12612580Y75972157D01*
X12770709Y75972157D02*
X13336394Y75972157D01*
X4051595Y75565000D02*
X6841608Y72774987D01*
X1905000Y75565000D02*
X4051595Y75565000D01*
X6841608Y72774987D02*
X9415410Y72774987D01*
X12612580Y75972157D02*
X12770709Y75972157D01*
X2000000Y44450000D02*
X1270000Y44450000D01*
D30*
X7352446Y64790695D02*
X7352446Y64225010D01*
X7352446Y67122446D02*
X7352446Y64790695D01*
X7540000Y67310000D02*
X7352446Y67122446D01*
X8890000Y67310000D02*
X7540000Y67310000D01*
D25*
X20320000Y61468000D02*
X18288000Y63500000D01*
X18288000Y63500000D02*
X15240000Y63500000D01*
X15240000Y63500000D02*
X11684000Y67056000D01*
X23772000Y52578000D02*
X25410000Y50940000D01*
X23622000Y52578000D02*
X23772000Y52578000D01*
X2000000Y54610000D02*
X5084660Y51525340D01*
X5084660Y51525340D02*
X5084660Y51312660D01*
X3302000Y52070000D02*
X5080000Y50292000D01*
X2000000Y52070000D02*
X3302000Y52070000D01*
X8128000Y49276000D02*
X8527999Y48876001D01*
X8128000Y38665004D02*
X8853002Y37940002D01*
X8853002Y31936998D02*
X9408001Y31381999D01*
X8853002Y37940002D02*
X8853002Y31936998D01*
X9408001Y31381999D02*
X10170000Y30620000D01*
X8527999Y48876001D02*
X8527999Y46570995D01*
X8527999Y46570995D02*
X8128000Y46170996D01*
X8128000Y46170996D02*
X8128000Y38665004D01*
X4816680Y49530000D02*
X5075340Y49271340D01*
X2000000Y49530000D02*
X4816680Y49530000D01*
X32000000Y5500000D02*
X38500000Y5500000D01*
X2254000Y46736000D02*
X2000000Y46990000D01*
X5080000Y46736000D02*
X2254000Y46736000D01*
X9408001Y28841999D02*
X9408001Y29650997D01*
X6894998Y32164000D02*
X6894998Y37432002D01*
X10170000Y28080000D02*
X9408001Y28841999D01*
X6894998Y37432002D02*
X7620000Y38157004D01*
X7620000Y38157004D02*
X7620000Y46170315D01*
X9408001Y29650997D02*
X6894998Y32164000D01*
X7620000Y46170315D02*
X7620000Y46736000D01*
X9648239Y11752999D02*
X9082999Y12318239D01*
X9082999Y12318239D02*
X9082999Y16267759D01*
X9648239Y16832999D02*
X10691761Y16832999D01*
X9082999Y16267759D02*
X9648239Y16832999D01*
X12192000Y9886762D02*
X10325763Y11752999D01*
X9082999Y22112241D02*
X9082999Y26992999D01*
X9408001Y27318001D02*
X10170000Y28080000D01*
X10325763Y11752999D02*
X9648239Y11752999D01*
X11792001Y4463999D02*
X11792001Y6261003D01*
X9082999Y26992999D02*
X9408001Y27318001D01*
X12192000Y4064000D02*
X11792001Y4463999D01*
X12192000Y6661002D02*
X12192000Y9886762D01*
X11792001Y6261003D02*
X12192000Y6661002D01*
X10691761Y16832999D02*
X12917002Y19058240D01*
X12917002Y19058240D02*
X12917002Y20160002D01*
X12917002Y20160002D02*
X11530003Y21547001D01*
X11530003Y21547001D02*
X9648239Y21547001D01*
X9648239Y21547001D02*
X9082999Y22112241D01*
D30*
X3810000Y69850000D02*
X7687919Y69850000D01*
X7687919Y69850000D02*
X8890000Y69850000D01*
X1905000Y67945000D02*
X3810000Y69850000D01*
D25*
X13367013Y20346402D02*
X13367013Y18577013D01*
X12192000Y21521415D02*
X13367013Y20346402D01*
X12192000Y53848000D02*
X12192000Y21521415D01*
X13367013Y18577013D02*
X10931999Y16141999D01*
X10931999Y16141999D02*
X10170000Y15380000D01*
X34975010Y47680010D02*
X38730000Y51435000D01*
X34297510Y47680010D02*
X34975010Y47680010D01*
X33020000Y46402500D02*
X34297510Y47680010D01*
X33020000Y46355000D02*
X33020000Y46402500D01*
X38030001Y36765001D02*
X38730000Y37465000D01*
X34975010Y33710010D02*
X38030001Y36765001D01*
X34297510Y33710010D02*
X34975010Y33710010D01*
X33020000Y32432500D02*
X34297510Y33710010D01*
X33020000Y32385000D02*
X33020000Y32432500D01*
X38030001Y22795001D02*
X38730000Y23495000D01*
X34900000Y19665000D02*
X38030001Y22795001D01*
X34222500Y19665000D02*
X34900000Y19665000D01*
X33020000Y18462500D02*
X34222500Y19665000D01*
X33020000Y18415000D02*
X33020000Y18462500D01*
X33020000Y73045000D02*
X33020000Y74295000D01*
X30275012Y70300012D02*
X33020000Y73045000D01*
X30275012Y67522269D02*
X30275012Y70300012D01*
X28824000Y62992000D02*
X28824000Y66071257D01*
X28824000Y66071257D02*
X30275012Y67522269D01*
X33020000Y69167500D02*
X33020000Y69215000D01*
X30724999Y66872499D02*
X33020000Y69167500D01*
X30724999Y62862997D02*
X30724999Y66872499D01*
X28956000Y61093998D02*
X30724999Y62862997D01*
X28956000Y57912000D02*
X28956000Y61093998D01*
X38030001Y64705001D02*
X38730000Y65405000D01*
X34975010Y61650010D02*
X38030001Y64705001D01*
X34297510Y61650010D02*
X34975010Y61650010D01*
X33020000Y60372500D02*
X34297510Y61650010D01*
X33020000Y60325000D02*
X33020000Y60372500D01*
X25410000Y12840000D02*
X29914011Y17344011D01*
X29914011Y17344011D02*
X29914011Y35373600D01*
X29914011Y35373600D02*
X30189001Y35648590D01*
X30189001Y35648590D02*
X30189001Y37200205D01*
X30189001Y37200205D02*
X29644942Y37744264D01*
X29644942Y37744264D02*
X29244943Y38144263D01*
X31750000Y65405000D02*
X31750000Y62228913D01*
X29427658Y49604340D02*
X29027659Y49204341D01*
X30189001Y50365683D02*
X29427658Y49604340D01*
X30189001Y60667914D02*
X30189001Y50365683D01*
X31750000Y62228913D02*
X30189001Y60667914D01*
X30480000Y14732000D02*
X28847999Y13099999D01*
X30480000Y31473167D02*
X30480000Y14732000D01*
X30364022Y35187200D02*
X30364022Y31589145D01*
X36830000Y51435000D02*
X35562498Y51435000D01*
X35562498Y51435000D02*
X30951001Y46823503D01*
X28847999Y13099999D02*
X28448000Y12700000D01*
X30364022Y31589145D02*
X30480000Y31473167D01*
X30639012Y35462190D02*
X30364022Y35187200D01*
X30951001Y46823503D02*
X30951001Y38183003D01*
X30951001Y38183003D02*
X30639012Y37871014D01*
X30639012Y37871014D02*
X30639012Y35462190D01*
X28854976Y35401974D02*
X28854976Y31120964D01*
X27976998Y45879998D02*
X27976998Y36279952D01*
X28854976Y31120964D02*
X28448000Y30713988D01*
X27976998Y36279952D02*
X28854976Y35401974D01*
X28448000Y30713988D02*
X28448000Y20958000D01*
X26171999Y18681999D02*
X25410000Y17920000D01*
X28448000Y20958000D02*
X26171999Y18681999D01*
X31750000Y49653000D02*
X27976998Y45879998D01*
X31750000Y51435000D02*
X31750000Y49653000D01*
X15244660Y24379340D02*
X22182745Y24379340D01*
X23185011Y25381606D02*
X23585010Y25781605D01*
X22182745Y24379340D02*
X23185011Y25381606D01*
X31654717Y34634153D02*
X31089032Y34634153D01*
X33999153Y34634153D02*
X31654717Y34634153D01*
X36830000Y37465000D02*
X33999153Y34634153D01*
X20828000Y18796000D02*
X19812000Y17780000D01*
X19812000Y17780000D02*
X15748000Y17780000D01*
X38608000Y7620000D02*
X32004000Y7620000D01*
X15748000Y11006762D02*
X15748000Y15240000D01*
X12700000Y7958762D02*
X15748000Y11006762D01*
X12700000Y6096000D02*
X12700000Y7958762D01*
X22460001Y10051999D02*
X22860000Y9652000D01*
X16546998Y15965002D02*
X22460001Y10051999D01*
X13208000Y13773004D02*
X15399998Y15965002D01*
X13208000Y12700000D02*
X13208000Y13773004D01*
X15399998Y15965002D02*
X16546998Y15965002D01*
X20372494Y55348009D02*
X18078194Y55348009D01*
X23876000Y54356000D02*
X21364503Y54356000D01*
X18078194Y55348009D02*
X16748175Y54017990D01*
X21364503Y54356000D02*
X20372494Y55348009D01*
X28043673Y51645395D02*
X28443672Y51245396D01*
X26820070Y52868998D02*
X28043673Y51645395D01*
X25436998Y53245998D02*
X25813998Y52868998D01*
X25436998Y56292998D02*
X25436998Y53245998D01*
X27056000Y57912000D02*
X25436998Y56292998D01*
X25813998Y52868998D02*
X26820070Y52868998D01*
X19213454Y44196000D02*
X21101991Y46084537D01*
X21101991Y46084537D02*
X21501990Y46484536D01*
X16764000Y44196000D02*
X19213454Y44196000D01*
X30724999Y49828679D02*
X28648320Y47752000D01*
X36830000Y65405000D02*
X35562498Y65405000D01*
X28648320Y47752000D02*
X28418324Y47752000D01*
X30724999Y53273997D02*
X30724999Y49828679D01*
X31205001Y61047503D02*
X31205001Y53753999D01*
X31205001Y53753999D02*
X30724999Y53273997D01*
X28418324Y47752000D02*
X27852639Y47752000D01*
X35562498Y65405000D02*
X31205001Y61047503D01*
X27031474Y40524517D02*
X27031474Y41090202D01*
X27031474Y38252712D02*
X27031474Y40524517D01*
X25931761Y37152999D02*
X27031474Y38252712D01*
X16764000Y33020000D02*
X20896999Y37152999D01*
X20896999Y37152999D02*
X25931761Y37152999D01*
X28194000Y75946000D02*
X27432000Y75184000D01*
X28194000Y78364000D02*
X28194000Y75946000D01*
X25565763Y13927001D02*
X24595001Y13927001D01*
X29464000Y17825238D02*
X25565763Y13927001D01*
X29464000Y36068000D02*
X29464000Y17825238D01*
X24648001Y11061999D02*
X25410000Y10300000D01*
X24322999Y11387001D02*
X24648001Y11061999D01*
X24322999Y13654999D02*
X24322999Y11387001D01*
X24595001Y13927001D02*
X24322999Y13654999D01*
X30950010Y72027999D02*
X30550011Y71628000D01*
X31496000Y77470000D02*
X31496000Y72573989D01*
X31496000Y72573989D02*
X30950010Y72027999D01*
X17780000Y20828000D02*
X17214315Y20828000D01*
X15022998Y18636683D02*
X15022998Y17692998D01*
X10931999Y13601999D02*
X10170000Y12840000D01*
X15022998Y17692998D02*
X10931999Y13601999D01*
X17214315Y20828000D02*
X15022998Y18636683D01*
X1905000Y73025000D02*
X5205393Y73025000D01*
X5205393Y73025000D02*
X5385834Y73205441D01*
X17790000Y65545000D02*
X18877001Y66632001D01*
X18877001Y66632001D02*
X18877001Y73686761D01*
X18877001Y73686761D02*
X18146422Y74417340D01*
X18146422Y74417340D02*
X17588345Y74417340D01*
X17588345Y74417340D02*
X17022660Y74417340D01*
X20828001Y6858001D02*
X21590000Y7620000D01*
X20066000Y6096000D02*
X20828001Y6858001D01*
X15494000Y6096000D02*
X20066000Y6096000D01*
X13970000Y7620000D02*
X15494000Y6096000D01*
X25410000Y35700000D02*
X26665340Y34444660D01*
X26665340Y32828344D02*
X26665340Y32262659D01*
X26665340Y34444660D02*
X26665340Y32828344D01*
X25270000Y38100000D02*
X25410000Y38240000D01*
X19304000Y38100000D02*
X25270000Y38100000D01*
D30*
X46424001Y88685948D02*
X46424001Y64712001D01*
X42164000Y94742000D02*
X42164000Y92945949D01*
X42164000Y92945949D02*
X46424001Y88685948D01*
X46424001Y64712001D02*
X40640000Y58928000D01*
X26416000Y53848000D02*
X26162000Y53594000D01*
X29464000Y53848000D02*
X26416000Y53848000D01*
X19734043Y47575957D02*
X20506262Y47575957D01*
X16510000Y50800000D02*
X19734043Y47575957D01*
X20506262Y47575957D02*
X21071947Y47575957D01*
X42677602Y45720000D02*
X40386000Y45720000D01*
X47244000Y50286398D02*
X42677602Y45720000D01*
X47244000Y94742000D02*
X47244000Y50286398D01*
X30226000Y41402000D02*
X28702000Y39878000D01*
X30226000Y44196000D02*
X30226000Y41402000D01*
X22352000Y47498000D02*
X19050000Y50800000D01*
X22352000Y39624000D02*
X22352000Y47498000D01*
D25*
X29570988Y76432578D02*
X29570988Y78622914D01*
X29570988Y78622914D02*
X30124891Y79176817D01*
X28157002Y75018592D02*
X29570988Y76432578D01*
X28157002Y74835998D02*
X28157002Y75018592D01*
X25342996Y75438000D02*
X26829998Y73950998D01*
X26829998Y73950998D02*
X27272002Y73950998D01*
X19050000Y75438000D02*
X25342996Y75438000D01*
X27272002Y73950998D02*
X28157002Y74835998D01*
X30124891Y79176817D02*
X30524890Y79576816D01*
X9144000Y91032000D02*
X9144000Y85852000D01*
X5348019Y75677981D02*
X508000Y80518000D01*
X508000Y80518000D02*
X508000Y89662000D01*
X508000Y89662000D02*
X3357999Y92511999D01*
X8382000Y75677981D02*
X5348019Y75677981D01*
X3357999Y92511999D02*
X7664001Y92511999D01*
X7664001Y92511999D02*
X9144000Y91032000D01*
X28448000Y88957685D02*
X28448000Y88392000D01*
X28448000Y89916000D02*
X28448000Y88957685D01*
X20574000Y97790000D02*
X28448000Y89916000D01*
X19812000Y97790000D02*
X20574000Y97790000D01*
M02*
