M48
;DRILL file {KiCad (5.0.2)-1} date 1/28/2020 2:28:17 PM
;FORMAT={-:-/ absolute / inch / decimal}
FMAT,2
INCH,TZ
T1C0.0157
T2C0.0276
T3C0.0300
T4C0.0315
T5C0.0394
T6C0.0433
T7C0.0600
T8C0.1693
T9C0.2000
%
G90
G05
T1
X0.12Y1.32
X0.18Y2.26
X0.1998Y1.9398
X0.2Y1.98
X0.2Y1.84
X0.2Y1.8
X0.2Y1.7
X0.2002Y2.0202
X0.212Y2.8821
X0.26Y0.6115
X0.2751Y1.0621
X0.2895Y2.5285
X0.3Y1.84
X0.3Y1.14
X0.3Y0.78
X0.32Y1.94
X0.3288Y2.5286
X0.33Y2.9794
X0.3336Y1.0925
X0.46Y2.64
X0.46Y2.54
X0.4719Y2.8737
X0.48Y3.22
X0.48Y2.7713
X0.48Y2.12
X0.48Y0.78
X0.48Y0.16
X0.5Y0.24
X0.52Y0.5
X0.5251Y2.991
X0.5498Y1.0102
X0.58Y1.12
X0.58Y0.82
X0.6002Y0.9598
X0.62Y0.7
X0.62Y0.6
X0.64Y1.06
X0.6594Y2.1267
X0.66Y1.74
X0.66Y1.3
X0.6702Y2.9298
X0.7Y0.82
X0.7029Y1.2025
X0.75Y2.97
X0.76Y1.5
X0.78Y3.85
X0.785Y3.3257
X0.8Y2.42
X0.82Y0.74
X0.8296Y1.8731
X0.84Y1.08
X0.8465Y1.8301
X0.87Y3.08
X0.88Y1.56
X0.9Y0.74
X0.9Y0.38
X0.9135Y1.6664
X0.9285Y1.34
X0.9285Y1.015
X0.93Y2.07
X0.94Y2.14
X0.9569Y1.6021
X1.03Y2.11
X1.0498Y1.2702
X1.0642Y1.6177
X1.08Y2.96
X1.08Y0.96
X1.0966Y1.88
X1.1198Y2.0175
X1.12Y3.48
X1.12Y0.5
X1.13Y1.57
X1.1428Y1.9372
X1.1514Y1.5017
X1.16Y2.12
X1.16Y1.42
X1.19Y1.74
X1.2018Y3.1329
X1.2028Y2.82
X1.224Y1.3635
X1.24Y3.05
X1.26Y3.73
X1.26Y3.32
X1.26Y3.22
X1.26Y0.3
X1.52Y0.3
X1.59Y1.8
X1.6Y2.32
T2
X1.11Y3.16
X1.11Y3.0852
X1.1Y3.3748
X1.1Y3.3
X1.25Y2.575
X1.3248Y2.575
X1.45Y2.025
X1.5248Y2.025
X1.25Y2.025
X1.3248Y2.025
X1.45Y1.475
X1.5248Y1.475
X1.25Y1.475
X1.3248Y1.475
X1.45Y0.925
X1.5248Y0.925
X1.25Y0.925
X1.3248Y0.925
X1.06Y2.48
X1.1348Y2.48
X1.0652Y2.28
X1.14Y2.28
X1.45Y2.575
X1.5248Y2.575
T3
X0.4004Y2.0055
X0.4004Y1.9055
X0.4004Y1.8055
X0.4004Y1.7055
X0.4004Y1.6055
X0.4004Y1.5055
X0.4004Y1.4055
X0.4004Y1.3055
X0.4004Y1.2055
X0.4004Y1.1055
X0.4004Y1.0055
X0.4004Y0.9055
X0.4004Y0.8055
X0.4004Y0.7055
X0.4004Y0.6055
X0.4004Y0.5055
X0.4004Y0.4055
X0.4004Y0.3055
X0.4004Y0.2055
X0.4004Y0.1055
X1.0004Y2.0055
X1.0004Y1.9055
X1.0004Y1.8055
X1.0004Y1.7055
X1.0004Y1.6055
X1.0004Y1.5055
X1.0004Y1.4055
X1.0004Y1.3055
X1.0004Y1.2055
X1.0004Y1.1055
X1.0004Y1.0055
X1.0004Y0.9055
X1.0004Y0.8055
X1.0004Y0.7055
X1.0004Y0.6055
X1.0004Y0.5055
X1.0004Y0.4055
X1.0004Y0.3055
X1.0004Y0.2055
X1.0004Y0.1055
X0.6004Y2.8805
X0.6004Y2.7805
X0.6004Y2.6805
X0.6004Y2.5805
X0.7004Y2.8805
X0.7004Y2.7805
X0.7004Y2.6805
X0.7004Y2.5805
X0.55Y2.
X0.55Y0.3
X0.65Y2.
X0.65Y0.3
X0.75Y2.
X0.75Y0.3
X0.85Y2.
X0.85Y0.3
T4
X0.2266Y2.2
X0.325Y2.2
X0.225Y2.35
X0.3234Y2.35
X1.55Y3.2184
X1.55Y3.12
T5
X0.0787Y2.25
X0.0787Y2.15
X0.0787Y2.05
X0.0787Y1.95
X0.0787Y1.85
X0.0787Y1.75
X0.9Y2.36
X0.9Y2.26
X0.08Y1.2
X0.08Y1.1
X0.08Y1.
X0.08Y0.9
X0.08Y0.8
X0.08Y0.7
X0.08Y0.6
X0.08Y0.5
X0.08Y0.4
X0.18Y1.2
X0.18Y1.1
X0.18Y1.
X0.18Y0.9
X0.18Y0.8
X0.18Y0.7
X0.18Y0.6
X0.18Y0.5
X0.18Y0.4
X0.08Y1.52
X0.08Y1.42
X0.18Y1.52
X0.18Y1.42
X0.35Y2.75
X0.35Y2.65
X0.075Y2.975
X0.075Y2.875
X0.075Y2.775
X0.075Y2.675
X0.075Y2.575
X0.075Y2.475
T6
X0.774Y3.4731
X0.8921Y3.2763
X0.9Y3.67
X1.2598Y0.3937
X1.2598Y0.2165
X1.5157Y0.3937
X1.5157Y0.2165
X0.5Y2.25
X0.6Y2.25
X0.7Y2.25
X1.3Y2.175
X1.4Y2.175
X1.5Y2.175
X1.3Y1.825
X1.4Y1.825
X1.5Y1.825
X1.3Y1.625
X1.4Y1.625
X1.5Y1.625
X1.3Y1.275
X1.4Y1.275
X1.5Y1.275
X1.3Y1.075
X1.4Y1.075
X1.5Y1.075
X1.3Y0.725
X1.4Y0.725
X1.5Y0.725
X1.3Y0.525
X1.4Y0.525
X1.5Y0.525
X1.3Y2.925
X1.4Y2.925
X1.5Y2.925
X1.3Y2.725
X1.4Y2.725
X1.5Y2.725
X1.3Y2.375
X1.4Y2.375
X1.5Y2.375
T7
X1.76Y3.18
X1.76Y2.98
X1.76Y2.78
X1.76Y2.58
X1.76Y2.38
X1.76Y2.18
X1.76Y1.98
X1.76Y1.78
X1.76Y1.58
X1.76Y1.38
X1.76Y1.18
X1.76Y0.98
X1.76Y0.78
X1.76Y0.58
X1.06Y3.73
X1.26Y3.73
X1.46Y3.73
X1.66Y3.73
X1.86Y3.73
T8
X1.811Y0.1575
X0.9843Y2.7559
X0.1575Y0.1575
T9
X0.16Y3.78
X0.56Y3.78
T0
M30
