%TF.GenerationSoftware,KiCad,Pcbnew,(5.0.2)-1*%
%TF.CreationDate,2020-01-28T14:28:05-08:00*%
%TF.ProjectId,DMX_CTRL,444d585f-4354-4524-9c2e-6b696361645f,rev?*%
%TF.SameCoordinates,PX4c4b400PY8f0d180*%
%TF.FileFunction,Copper,L2,Bot*%
%TF.FilePolarity,Positive*%
%FSLAX46Y46*%
G04 Gerber Fmt 4.6, Leading zero omitted, Abs format (unit mm)*
G04 Created by KiCad (PCBNEW (5.0.2)-1) date 1/28/2020 2:28:05 PM*
%MOMM*%
%LPD*%
G01*
G04 APERTURE LIST*
%ADD10C,0.150000*%
%ADD11C,6.350000*%
%ADD12C,0.100000*%
%ADD13C,2.540000*%
%ADD14C,1.524000*%
%ADD15C,1.400000*%
%ADD16O,1.400000X1.400000*%
%ADD17C,1.600000*%
%ADD18C,7.500000*%
%ADD19R,1.700000X1.700000*%
%ADD20O,1.700000X1.700000*%
%ADD21O,1.905000X2.000000*%
%ADD22R,1.905000X2.000000*%
%ADD23C,2.000000*%
%ADD24C,0.800000*%
%ADD25C,0.250000*%
%ADD26C,1.000000*%
%ADD27C,2.500000*%
%ADD28C,1.500000*%
%ADD29C,0.500000*%
%ADD30C,3.000000*%
G04 APERTURE END LIST*
D10*
X1666666Y0D02*
G75*
G03X1666666Y0I-1666666J0D01*
G01*
X-2500000Y0D02*
X2500000Y0D01*
X0Y2500000D02*
X0Y-2500000D01*
X0Y100000000D02*
X0Y0D01*
X50000000Y100000000D02*
X0Y100000000D01*
X50000000Y0D02*
X50000000Y100000000D01*
X0Y0D02*
X50000000Y0D01*
D11*
X14224000Y96012000D03*
X4064000Y96012000D03*
D12*
G36*
X5022192Y90880172D02*
X5084173Y90873726D01*
X5145225Y90861235D01*
X5204758Y90842821D01*
X6398167Y90408456D01*
X6455608Y90384295D01*
X6510405Y90354620D01*
X6562029Y90319717D01*
X6609984Y90279922D01*
X6653807Y90235619D01*
X6693076Y90187233D01*
X6727414Y90135231D01*
X6756489Y90080114D01*
X6780022Y90022412D01*
X6797786Y89962682D01*
X6809610Y89901498D01*
X6815380Y89839449D01*
X6815040Y89777134D01*
X6808594Y89715153D01*
X6796103Y89654101D01*
X6777689Y89594568D01*
X3737130Y81240701D01*
X3712969Y81183260D01*
X3683294Y81128463D01*
X3648391Y81076839D01*
X3608596Y81028884D01*
X3564292Y80985061D01*
X3515907Y80945792D01*
X3463905Y80911454D01*
X3408788Y80882379D01*
X3351086Y80858846D01*
X3291356Y80841082D01*
X3230172Y80829258D01*
X3168123Y80823488D01*
X3105808Y80823828D01*
X3043827Y80830274D01*
X2982775Y80842765D01*
X2923242Y80861179D01*
X1729833Y81295544D01*
X1672392Y81319705D01*
X1617595Y81349380D01*
X1565971Y81384283D01*
X1518016Y81424078D01*
X1474193Y81468381D01*
X1434924Y81516767D01*
X1400586Y81568769D01*
X1371511Y81623886D01*
X1347978Y81681588D01*
X1330214Y81741318D01*
X1318390Y81802502D01*
X1312620Y81864551D01*
X1312960Y81926866D01*
X1319406Y81988847D01*
X1331897Y82049899D01*
X1350311Y82109432D01*
X4390870Y90463299D01*
X4415031Y90520740D01*
X4444706Y90575537D01*
X4479609Y90627161D01*
X4519404Y90675116D01*
X4563708Y90718939D01*
X4612093Y90758208D01*
X4664095Y90792546D01*
X4719212Y90821621D01*
X4776914Y90845154D01*
X4836644Y90862918D01*
X4897828Y90874742D01*
X4959877Y90880512D01*
X5022192Y90880172D01*
X5022192Y90880172D01*
G37*
D13*
X4064000Y85852000D03*
D12*
G36*
X9841241Y90928942D02*
X9902882Y90919799D01*
X9963331Y90904657D01*
X10022004Y90883664D01*
X10078337Y90857020D01*
X10131787Y90824983D01*
X10181840Y90787862D01*
X10228013Y90746013D01*
X10269862Y90699840D01*
X10306983Y90649787D01*
X10339020Y90596337D01*
X10365664Y90540004D01*
X10386657Y90481331D01*
X10401799Y90420882D01*
X10410942Y90359241D01*
X10414000Y90297000D01*
X10414000Y81407000D01*
X10410942Y81344759D01*
X10401799Y81283118D01*
X10386657Y81222669D01*
X10365664Y81163996D01*
X10339020Y81107663D01*
X10306983Y81054213D01*
X10269862Y81004160D01*
X10228013Y80957987D01*
X10181840Y80916138D01*
X10131787Y80879017D01*
X10078337Y80846980D01*
X10022004Y80820336D01*
X9963331Y80799343D01*
X9902882Y80784201D01*
X9841241Y80775058D01*
X9779000Y80772000D01*
X8509000Y80772000D01*
X8446759Y80775058D01*
X8385118Y80784201D01*
X8324669Y80799343D01*
X8265996Y80820336D01*
X8209663Y80846980D01*
X8156213Y80879017D01*
X8106160Y80916138D01*
X8059987Y80957987D01*
X8018138Y81004160D01*
X7981017Y81054213D01*
X7948980Y81107663D01*
X7922336Y81163996D01*
X7901343Y81222669D01*
X7886201Y81283118D01*
X7877058Y81344759D01*
X7874000Y81407000D01*
X7874000Y90297000D01*
X7877058Y90359241D01*
X7886201Y90420882D01*
X7901343Y90481331D01*
X7922336Y90540004D01*
X7948980Y90596337D01*
X7981017Y90649787D01*
X8018138Y90699840D01*
X8059987Y90746013D01*
X8106160Y90787862D01*
X8156213Y90824983D01*
X8209663Y90857020D01*
X8265996Y90883664D01*
X8324669Y90904657D01*
X8385118Y90919799D01*
X8446759Y90928942D01*
X8509000Y90932000D01*
X9779000Y90932000D01*
X9841241Y90928942D01*
X9841241Y90928942D01*
G37*
D13*
X9144000Y85852000D03*
D12*
G36*
X13390172Y90874742D02*
X13451356Y90862918D01*
X13511086Y90845154D01*
X13568788Y90821621D01*
X13623905Y90792546D01*
X13675907Y90758208D01*
X13724293Y90718939D01*
X13768596Y90675116D01*
X13808391Y90627161D01*
X13843294Y90575537D01*
X13872969Y90520740D01*
X13897130Y90463299D01*
X16937689Y82109432D01*
X16956103Y82049899D01*
X16968594Y81988847D01*
X16975040Y81926866D01*
X16975380Y81864551D01*
X16969610Y81802502D01*
X16957786Y81741318D01*
X16940022Y81681588D01*
X16916489Y81623886D01*
X16887414Y81568769D01*
X16853076Y81516767D01*
X16813807Y81468382D01*
X16769984Y81424078D01*
X16722029Y81384283D01*
X16670405Y81349380D01*
X16615608Y81319705D01*
X16558167Y81295544D01*
X15364758Y80861179D01*
X15305225Y80842765D01*
X15244173Y80830274D01*
X15182192Y80823828D01*
X15119877Y80823488D01*
X15057828Y80829258D01*
X14996644Y80841082D01*
X14936914Y80858846D01*
X14879212Y80882379D01*
X14824095Y80911454D01*
X14772093Y80945792D01*
X14723707Y80985061D01*
X14679404Y81028884D01*
X14639609Y81076839D01*
X14604706Y81128463D01*
X14575031Y81183260D01*
X14550870Y81240701D01*
X11510311Y89594568D01*
X11491897Y89654101D01*
X11479406Y89715153D01*
X11472960Y89777134D01*
X11472620Y89839449D01*
X11478390Y89901498D01*
X11490214Y89962682D01*
X11507978Y90022412D01*
X11531511Y90080114D01*
X11560586Y90135231D01*
X11594924Y90187233D01*
X11634193Y90235618D01*
X11678016Y90279922D01*
X11725971Y90319717D01*
X11777595Y90354620D01*
X11832392Y90384295D01*
X11889833Y90408456D01*
X13083242Y90842821D01*
X13142775Y90861235D01*
X13203827Y90873726D01*
X13265808Y90880172D01*
X13328123Y90880512D01*
X13390172Y90874742D01*
X13390172Y90874742D01*
G37*
D13*
X14224000Y85852000D03*
D14*
X17790000Y73165000D03*
X17790000Y70625000D03*
X17790000Y68085000D03*
X17790000Y65545000D03*
X15250000Y65545000D03*
X15250000Y68085000D03*
X15250000Y70625000D03*
X15250000Y73165000D03*
D15*
X28194000Y80264000D03*
D16*
X28194000Y78364000D03*
D14*
X10170000Y2680000D03*
X10170000Y15380000D03*
X10170000Y33160000D03*
X10170000Y43320000D03*
X10170000Y5220000D03*
X10170000Y28080000D03*
X10170000Y10300000D03*
X10170000Y12840000D03*
X10170000Y7760000D03*
X10170000Y30620000D03*
X10170000Y25540000D03*
X10170000Y38240000D03*
X10170000Y17920000D03*
X10170000Y45860000D03*
X10170000Y40780000D03*
X10170000Y35700000D03*
X10170000Y48400000D03*
X10170000Y23000000D03*
X10170000Y50940000D03*
X10170000Y20460000D03*
X25410000Y2680000D03*
X25410000Y5220000D03*
X25410000Y7760000D03*
X25410000Y10300000D03*
X25410000Y12840000D03*
X25410000Y20460000D03*
X25410000Y15380000D03*
X25410000Y17920000D03*
X25410000Y23000000D03*
X25410000Y25540000D03*
X25410000Y28080000D03*
X25410000Y33160000D03*
X25410000Y30620000D03*
X25410000Y35700000D03*
X25410000Y38240000D03*
X25410000Y45860000D03*
X25410000Y40780000D03*
X25410000Y43320000D03*
X25410000Y48400000D03*
X25410000Y50940000D03*
D13*
X22860000Y93218000D03*
X22660000Y83218000D03*
X19660000Y88218000D03*
D17*
X39370000Y79248000D03*
X39370000Y81748000D03*
X5715000Y59690000D03*
X8215000Y59690000D03*
X8255000Y55880000D03*
X5755000Y55880000D03*
D18*
X4000000Y4000000D03*
X25000000Y70000000D03*
X46000000Y4000000D03*
D19*
X4572000Y36068000D03*
D20*
X2032000Y36068000D03*
X4572000Y38608000D03*
X2032000Y38608000D03*
D19*
X4572000Y10160000D03*
D20*
X2032000Y10160000D03*
X4572000Y12700000D03*
X2032000Y12700000D03*
X4572000Y15240000D03*
X2032000Y15240000D03*
X4572000Y17780000D03*
X2032000Y17780000D03*
X4572000Y20320000D03*
X2032000Y20320000D03*
X4572000Y22860000D03*
X2032000Y22860000D03*
X4572000Y25400000D03*
X2032000Y25400000D03*
X4572000Y27940000D03*
X2032000Y27940000D03*
X4572000Y30480000D03*
X2032000Y30480000D03*
X22860000Y57404000D03*
D19*
X22860000Y59944000D03*
X2000000Y57150000D03*
D20*
X2000000Y54610000D03*
X2000000Y52070000D03*
X2000000Y49530000D03*
X2000000Y46990000D03*
X2000000Y44450000D03*
D19*
X8890000Y67310000D03*
D20*
X8890000Y69850000D03*
X1905000Y75565000D03*
X1905000Y73025000D03*
X1905000Y70485000D03*
X1905000Y67945000D03*
X1905000Y65405000D03*
D19*
X1905000Y62865000D03*
D21*
X38100000Y55245000D03*
X35560000Y55245000D03*
D22*
X33020000Y55245000D03*
X33020000Y46355000D03*
D21*
X35560000Y46355000D03*
X38100000Y46355000D03*
D22*
X33020000Y41275000D03*
D21*
X35560000Y41275000D03*
X38100000Y41275000D03*
X38100000Y32385000D03*
X35560000Y32385000D03*
D22*
X33020000Y32385000D03*
D21*
X38100000Y27305000D03*
X35560000Y27305000D03*
D22*
X33020000Y27305000D03*
X33020000Y18415000D03*
D21*
X35560000Y18415000D03*
X38100000Y18415000D03*
X38100000Y13335000D03*
X35560000Y13335000D03*
D22*
X33020000Y13335000D03*
D21*
X38100000Y74295000D03*
X35560000Y74295000D03*
D22*
X33020000Y74295000D03*
X33020000Y69215000D03*
D21*
X35560000Y69215000D03*
X38100000Y69215000D03*
D22*
X33020000Y60325000D03*
D21*
X35560000Y60325000D03*
X38100000Y60325000D03*
D15*
X31750000Y65405000D03*
D16*
X33650000Y65405000D03*
X38730000Y51435000D03*
D15*
X36830000Y51435000D03*
X31750000Y51435000D03*
D16*
X33650000Y51435000D03*
X38730000Y37465000D03*
D15*
X36830000Y37465000D03*
X31750000Y37465000D03*
D16*
X33650000Y37465000D03*
X38730000Y23495000D03*
D15*
X36830000Y23495000D03*
D16*
X33650000Y23495000D03*
D15*
X31750000Y23495000D03*
X26924000Y62992000D03*
D16*
X28824000Y62992000D03*
D15*
X27056000Y57912000D03*
D16*
X28956000Y57912000D03*
X38730000Y65405000D03*
D15*
X36830000Y65405000D03*
D16*
X27940000Y83820000D03*
D15*
X27940000Y85720000D03*
D23*
X32000000Y5500000D03*
X32000000Y10000000D03*
X38500000Y5500000D03*
X38500000Y10000000D03*
D22*
X12700000Y57150000D03*
D21*
X15240000Y57150000D03*
X17780000Y57150000D03*
D14*
X21590000Y7620000D03*
X19050000Y7620000D03*
X16510000Y7620000D03*
X13970000Y7620000D03*
X13970000Y50800000D03*
X16510000Y50800000D03*
X19050000Y50800000D03*
X21590000Y50800000D03*
D13*
X44704000Y14732000D03*
X44704000Y19812000D03*
X44704000Y24892000D03*
X44704000Y29972000D03*
X44704000Y35052000D03*
X44704000Y40132000D03*
X44704000Y45212000D03*
X44704000Y50292000D03*
X44704000Y55372000D03*
X44704000Y60452000D03*
X44704000Y65532000D03*
X44704000Y70612000D03*
X44704000Y75692000D03*
X44704000Y80772000D03*
X26924000Y94742000D03*
X32004000Y94742000D03*
X37084000Y94742000D03*
X42164000Y94742000D03*
X47244000Y94742000D03*
D24*
X8352456Y64226766D03*
X22098000Y78232000D03*
X32004000Y94742000D03*
X12192000Y81788000D03*
X32004000Y81788000D03*
X32004000Y84328000D03*
X19939999Y84472397D03*
X5080000Y43180000D03*
X5080000Y45720000D03*
X7620000Y28956000D03*
X14732000Y28448000D03*
X6604000Y15530990D03*
X23585010Y34036000D03*
X16256000Y26924000D03*
X21336000Y27432000D03*
X23202010Y42327043D03*
X24304148Y40694446D03*
X7620000Y19812000D03*
X12192000Y19812000D03*
X14732000Y20828000D03*
X22860000Y18796000D03*
X27432000Y24384000D03*
X11684000Y64516000D03*
X4572000Y57404000D03*
X3048000Y33528000D03*
X17853172Y30543852D03*
X8472313Y27750688D03*
X6986362Y26976720D03*
X13965340Y25658660D03*
X11985813Y72990732D03*
X12192000Y70390699D03*
X13336394Y75972157D03*
X7352446Y64225010D03*
X20320000Y61468000D03*
X11684000Y67056000D03*
X23622000Y52578000D03*
X5084660Y51312660D03*
X5080000Y50292000D03*
X8128000Y49276000D03*
X5075340Y49271340D03*
X7620000Y46736000D03*
X5080000Y46736000D03*
X12192000Y4064000D03*
X12192000Y53848000D03*
X29027659Y49204341D03*
X29244943Y38144263D03*
X28448000Y12700000D03*
X15244660Y24379340D03*
X23585010Y25781605D03*
X31089032Y34634153D03*
X20828000Y18796000D03*
X15748000Y17780000D03*
X38608000Y7620000D03*
X32004000Y7620000D03*
X12700000Y6096000D03*
X15748000Y15240000D03*
X13208000Y12700000D03*
X22860000Y9652000D03*
X23876000Y54356000D03*
X16748175Y54017990D03*
X16764000Y44196000D03*
X28443672Y51245396D03*
X21501990Y46484536D03*
X16764000Y33020000D03*
X27852639Y47752000D03*
X27031474Y41090202D03*
X27432000Y75184000D03*
X29464000Y36068000D03*
X31496000Y77470000D03*
X30550011Y71628000D03*
X17780000Y20828000D03*
X5385834Y73205441D03*
X17022660Y74417340D03*
X26665340Y32262659D03*
X19304000Y38100000D03*
X40640000Y58928000D03*
X29464000Y53848000D03*
X26162000Y53594000D03*
X21071947Y47575957D03*
X40386000Y45720000D03*
X30226000Y44196000D03*
X28702000Y39878000D03*
X22352000Y39624000D03*
X19050000Y75438000D03*
X30524890Y79576816D03*
X8382000Y75677981D03*
X28448000Y88392000D03*
X19812000Y97790000D03*
D25*
X6952001Y54157999D02*
X6952001Y62260626D01*
X8352456Y63661081D02*
X8352456Y64226766D01*
X6952001Y62260626D02*
X8352456Y63661081D01*
X10170000Y50940000D02*
X6952001Y54157999D01*
D26*
X15240000Y65535000D02*
X15250000Y65545000D01*
X15240000Y57150000D02*
X15240000Y65535000D01*
X26539999Y89277999D02*
X30734001Y93472001D01*
X30734001Y93472001D02*
X32004000Y94742000D01*
X26539999Y87003742D02*
X26539999Y89277999D01*
X26089988Y86553731D02*
X26539999Y87003742D01*
X26089988Y82223988D02*
X26089988Y86553731D01*
X22098000Y78232000D02*
X26089988Y82223988D01*
D27*
X19660000Y94040598D02*
X19660000Y90014051D01*
X19660000Y90014051D02*
X19660000Y88218000D01*
X23081403Y97462001D02*
X19660000Y94040598D01*
X32004000Y94742000D02*
X29283999Y97462001D01*
X29283999Y97462001D02*
X23081403Y97462001D01*
X12192000Y81788000D02*
X12954000Y81788000D01*
X12954000Y84582000D02*
X14224000Y85852000D01*
X12954000Y81788000D02*
X12954000Y84582000D01*
X16590000Y88218000D02*
X14224000Y85852000D01*
X19660000Y88218000D02*
X16590000Y88218000D01*
D28*
X12700000Y56951945D02*
X12700000Y57150000D01*
D25*
X25410000Y45502001D02*
X25410000Y45860000D01*
D29*
X17780000Y57197500D02*
X17780000Y57150000D01*
D26*
X32004000Y81788000D02*
X32004000Y84328000D01*
D27*
X26924000Y92419732D02*
X26924000Y92945949D01*
X26924000Y92945949D02*
X26924000Y94742000D01*
X24589989Y90085721D02*
X26924000Y92419732D01*
X24589988Y89122386D02*
X24589989Y90085721D01*
D29*
X13540161Y52997998D02*
X11137002Y52997998D01*
X9054999Y55080001D02*
X8255000Y55880000D01*
X17780000Y57150000D02*
X17692163Y57150000D01*
X11137002Y52997998D02*
X9054999Y55080001D01*
X17692163Y57150000D02*
X13540161Y52997998D01*
D27*
X24589989Y89122387D02*
X24589989Y90085721D01*
X19939999Y84472397D02*
X24589989Y89122387D01*
X19939999Y83906712D02*
X19939999Y84472397D01*
X19939999Y79375999D02*
X19939999Y83906712D01*
X4064000Y82038769D02*
X7014779Y79087990D01*
X7014779Y79087990D02*
X7018010Y79087990D01*
X4064000Y85852000D02*
X4064000Y82038769D01*
X7018010Y79087990D02*
X7620000Y78486000D01*
X7620000Y78486000D02*
X19050000Y78486000D01*
X19050000Y78486000D02*
X19939999Y79375999D01*
D28*
X43944000Y19812000D02*
X44704000Y19812000D01*
X40596990Y16464990D02*
X43944000Y19812000D01*
X35560000Y13533055D02*
X38491935Y16464990D01*
X38491935Y16464990D02*
X40596990Y16464990D01*
X35560000Y13335000D02*
X35560000Y13533055D01*
X43944000Y24892000D02*
X44704000Y24892000D01*
X40896999Y21844999D02*
X43944000Y24892000D01*
X38791944Y21844999D02*
X40896999Y21844999D01*
X35560000Y18613055D02*
X38791944Y21844999D01*
X35560000Y18415000D02*
X35560000Y18613055D01*
X41404000Y29972000D02*
X44704000Y29972000D01*
X38028945Y29972000D02*
X41404000Y29972000D01*
X35560000Y27503055D02*
X38028945Y29972000D01*
X35560000Y27305000D02*
X35560000Y27503055D01*
X41404000Y35052000D02*
X44704000Y35052000D01*
X38028945Y35052000D02*
X41404000Y35052000D01*
X35560000Y32583055D02*
X38028945Y35052000D01*
X35560000Y32385000D02*
X35560000Y32583055D01*
D30*
X40664000Y84812000D02*
X44704000Y80772000D01*
X40664000Y91162000D02*
X37084000Y94742000D01*
X40664000Y84812000D02*
X40664000Y91162000D01*
D26*
X32596002Y77194004D02*
X40213998Y84812000D01*
X30586001Y76792001D02*
X31516003Y75861999D01*
X31516003Y75861999D02*
X32596002Y76941998D01*
X24161496Y76792001D02*
X30586001Y76792001D01*
X40213998Y84812000D02*
X40664000Y84812000D01*
X32596002Y76941998D02*
X32596002Y77194004D01*
X20549999Y73180504D02*
X24161496Y76792001D01*
X22860000Y61794000D02*
X20549999Y64104001D01*
X20549999Y64104001D02*
X20549999Y73180504D01*
X22860000Y59944000D02*
X22860000Y61794000D01*
D30*
X45973999Y61721999D02*
X44704000Y60452000D01*
X47674001Y63422001D02*
X45973999Y61721999D01*
X47674001Y77801999D02*
X47674001Y63422001D01*
X44704000Y80772000D02*
X47674001Y77801999D01*
X45973999Y41401999D02*
X44704000Y40132000D01*
X47674001Y43102001D02*
X45973999Y41401999D01*
X47674001Y57481999D02*
X47674001Y43102001D01*
X44704000Y60452000D02*
X47674001Y57481999D01*
D28*
X43196979Y43704979D02*
X44704000Y45212000D01*
X35560000Y43704979D02*
X43196979Y43704979D01*
X35560000Y41275000D02*
X35560000Y43704979D01*
X41404000Y50292000D02*
X44704000Y50292000D01*
X40896999Y49784999D02*
X41404000Y50292000D01*
X38791944Y49784999D02*
X40896999Y49784999D01*
X35560000Y46553055D02*
X38791944Y49784999D01*
X35560000Y46355000D02*
X35560000Y46553055D01*
X39580990Y57195010D02*
X41404000Y55372000D01*
X37311955Y57195010D02*
X39580990Y57195010D01*
X35560000Y55443055D02*
X37311955Y57195010D01*
X41404000Y55372000D02*
X44704000Y55372000D01*
X35560000Y55245000D02*
X35560000Y55443055D01*
X41404000Y65532000D02*
X44704000Y65532000D01*
X39626999Y63754999D02*
X41404000Y65532000D01*
X38791944Y63754999D02*
X39626999Y63754999D01*
X35560000Y60523055D02*
X38791944Y63754999D01*
X35560000Y60325000D02*
X35560000Y60523055D01*
X41404000Y70612000D02*
X44704000Y70612000D01*
X40850990Y71165010D02*
X41404000Y70612000D01*
X37311955Y71165010D02*
X40850990Y71165010D01*
X35560000Y69413055D02*
X37311955Y71165010D01*
X35560000Y69215000D02*
X35560000Y69413055D01*
X41404000Y75692000D02*
X44704000Y75692000D01*
X40850990Y76245010D02*
X41404000Y75692000D01*
X37311955Y76245010D02*
X40850990Y76245010D01*
X35560000Y74493055D02*
X37311955Y76245010D01*
X35560000Y74295000D02*
X35560000Y74493055D01*
D25*
X10030000Y43180000D02*
X10170000Y43320000D01*
X5080000Y43180000D02*
X10030000Y43180000D01*
X10030000Y45720000D02*
X10170000Y45860000D01*
X5080000Y45720000D02*
X10030000Y45720000D01*
X15422999Y7098239D02*
X15057001Y7098239D01*
X6096000Y9523589D02*
X6096000Y10921002D01*
X18528239Y6532999D02*
X17962999Y7098239D01*
X21068239Y6532999D02*
X20502999Y7098239D01*
X12351998Y6821002D02*
X12063996Y6533000D01*
X25410000Y7760000D02*
X23338762Y7760000D01*
X3207001Y11335001D02*
X2881999Y11009999D01*
X17597001Y7098239D02*
X17031761Y6532999D01*
X20137001Y7098239D02*
X19571761Y6532999D01*
X13048002Y6821002D02*
X12351998Y6821002D01*
X15057001Y7098239D02*
X14491762Y6533000D01*
X15988239Y6532999D02*
X15422999Y7098239D01*
X12063996Y6533000D02*
X9086589Y6533000D01*
X14491762Y6533000D02*
X13336004Y6533000D01*
X5682001Y11335001D02*
X3207001Y11335001D01*
X6096000Y10921002D02*
X5682001Y11335001D01*
X22111761Y6532999D02*
X21068239Y6532999D01*
X17031761Y6532999D02*
X15988239Y6532999D01*
X13336004Y6533000D02*
X13048002Y6821002D01*
X20502999Y7098239D02*
X20137001Y7098239D01*
X19571761Y6532999D02*
X18528239Y6532999D01*
X2881999Y11009999D02*
X2032000Y10160000D01*
X17962999Y7098239D02*
X17597001Y7098239D01*
X23338762Y7760000D02*
X22111761Y6532999D01*
X9086589Y6533000D02*
X6096000Y9523589D01*
X1182001Y14390001D02*
X2032000Y15240000D01*
X856999Y14064999D02*
X1182001Y14390001D01*
X856999Y9595999D02*
X856999Y14064999D01*
X1467999Y8984999D02*
X856999Y9595999D01*
X5046003Y8984999D02*
X1467999Y8984999D01*
X8075001Y5956001D02*
X5046003Y8984999D01*
X8075001Y3166237D02*
X8075001Y5956001D01*
X9648239Y1592999D02*
X8075001Y3166237D01*
X24322999Y1592999D02*
X9648239Y1592999D01*
X25410000Y2680000D02*
X24322999Y1592999D01*
X13824001Y29355999D02*
X14732000Y28448000D01*
X8019999Y29355999D02*
X13824001Y29355999D01*
X7620000Y28956000D02*
X8019999Y29355999D01*
X5529991Y16604999D02*
X6204001Y15930989D01*
X6204001Y15930989D02*
X6604000Y15530990D01*
X2032000Y17780000D02*
X3207001Y16604999D01*
X3207001Y16604999D02*
X5529991Y16604999D01*
X25410000Y43320000D02*
X24648001Y42558001D01*
X21626998Y35994012D02*
X23185011Y34435999D01*
X23185011Y34435999D02*
X23585010Y34036000D01*
X21626998Y40058616D02*
X21626998Y35994012D01*
X23736412Y41152030D02*
X22720412Y41152030D01*
X24648001Y42063619D02*
X23736412Y41152030D01*
X24648001Y42558001D02*
X24648001Y42063619D01*
X22720412Y41152030D02*
X21626998Y40058616D01*
X9082999Y18674126D02*
X8888049Y18869076D01*
X8888049Y18869076D02*
X8888049Y23326811D01*
X9648239Y24087001D02*
X10691761Y24087001D01*
X8888049Y23326811D02*
X9648239Y24087001D01*
X4946003Y19144999D02*
X8182977Y15908025D01*
X8182977Y15908025D02*
X8182977Y10678261D01*
X2032000Y20320000D02*
X3207001Y19144999D01*
X9719409Y11387001D02*
X9082999Y12023411D01*
X8182977Y10678261D02*
X9648239Y9212999D01*
X3207001Y19144999D02*
X4946003Y19144999D01*
X9082999Y12023411D02*
X9082999Y18674126D01*
X11257001Y9778239D02*
X11257001Y10821761D01*
X10691761Y9212999D02*
X11257001Y9778239D01*
X10691761Y11387001D02*
X9719409Y11387001D01*
X11257001Y10821761D02*
X10691761Y11387001D01*
X9648239Y9212999D02*
X10691761Y9212999D01*
X10691761Y24087001D02*
X11124423Y23654339D01*
X11124423Y23654339D02*
X15592661Y23654339D01*
X15592661Y23654339D02*
X16256000Y24317678D01*
X16256000Y24317678D02*
X16256000Y26358315D01*
X16256000Y26358315D02*
X16256000Y26924000D01*
X21336000Y27432000D02*
X20662010Y28105990D01*
X22128325Y42327043D02*
X22636325Y42327043D01*
X20662010Y40860728D02*
X22128325Y42327043D01*
X22636325Y42327043D02*
X23202010Y42327043D01*
X20662010Y28105990D02*
X20662010Y40860728D01*
X24332370Y40780000D02*
X24304148Y40751778D01*
X24304148Y40751778D02*
X24304148Y40694446D01*
X25410000Y40780000D02*
X24332370Y40780000D01*
X5747001Y21684999D02*
X7620000Y19812000D01*
X2032000Y22860000D02*
X3207001Y21684999D01*
X3207001Y21684999D02*
X5747001Y21684999D01*
X12192000Y19812000D02*
X13716000Y19812000D01*
X13716000Y19812000D02*
X14732000Y20828000D01*
X27432000Y23368000D02*
X27432000Y24384000D01*
X25611001Y21547001D02*
X27432000Y23368000D01*
X22860000Y18796000D02*
X22860000Y19518762D01*
X24888239Y21547001D02*
X25611001Y21547001D01*
X22860000Y19518762D02*
X24888239Y21547001D01*
X21176987Y34853013D02*
X24648001Y31381999D01*
X17790000Y70625000D02*
X19057510Y69357490D01*
X23042012Y43052045D02*
X23550012Y43052045D01*
X21176987Y40245016D02*
X21176987Y34853013D01*
X20137001Y57283580D02*
X20137001Y45957056D01*
X19057510Y58363071D02*
X20137001Y57283580D01*
X24648001Y31381999D02*
X25410000Y30620000D01*
X20137001Y45957056D02*
X23042012Y43052045D01*
X22534012Y41602041D02*
X21176987Y40245016D01*
X23550012Y43052045D02*
X23927012Y42675045D01*
X19057510Y69357490D02*
X19057510Y58363071D01*
X23927012Y42675045D02*
X23927012Y41979041D01*
X23550012Y41602041D02*
X22534012Y41602041D01*
X23927012Y41979041D02*
X23550012Y41602041D01*
X15250000Y68570000D02*
X15250000Y68085000D01*
X15250000Y68085000D02*
X11684000Y64519000D01*
X11684000Y64519000D02*
X11684000Y64516000D01*
X3875012Y56707012D02*
X3875012Y49915986D01*
X4572000Y57404000D02*
X3875012Y56707012D01*
X3207001Y39172001D02*
X3207001Y34252686D01*
X3207001Y34252686D02*
X3048000Y34093685D01*
X4172001Y49618997D02*
X4172001Y40137001D01*
X3875012Y49915986D02*
X4172001Y49618997D01*
X3048000Y34093685D02*
X3048000Y33528000D01*
X4172001Y40137001D02*
X3207001Y39172001D01*
X3048000Y33528000D02*
X3767001Y34247001D01*
X17853172Y31109537D02*
X17853172Y30543852D01*
X3767001Y34247001D02*
X16610003Y34247001D01*
X16610003Y34247001D02*
X17853172Y33003832D01*
X17853172Y33003832D02*
X17853172Y31109537D01*
X2032000Y27940000D02*
X3395279Y26576721D01*
X6586363Y26576721D02*
X6986362Y26976720D01*
X3395279Y26576721D02*
X6586363Y26576721D01*
X9230002Y26992999D02*
X12631001Y26992999D01*
X13565341Y26058659D02*
X13965340Y25658660D01*
X12631001Y26992999D02*
X13565341Y26058659D01*
X8472313Y27750688D02*
X9230002Y26992999D01*
X12426301Y70625000D02*
X12192000Y70390699D01*
X15250000Y70625000D02*
X12426301Y70625000D01*
X11985813Y74621576D02*
X12936395Y75572158D01*
X12936395Y75572158D02*
X13336394Y75972157D01*
X11985813Y72990732D02*
X11985813Y74621576D01*
X9408001Y11061999D02*
X10170000Y10300000D01*
X8632988Y11837012D02*
X9408001Y11061999D01*
X8632988Y18487726D02*
X8632988Y11837012D01*
X4572000Y30480000D02*
X8438038Y26613962D01*
X8438038Y18682676D02*
X8632988Y18487726D01*
X8438038Y26613962D02*
X8438038Y18682676D01*
X25908000Y51438000D02*
X25410000Y50940000D01*
D29*
X1150001Y43600001D02*
X2000000Y44450000D01*
X731999Y43181999D02*
X1150001Y43600001D01*
X731999Y32982082D02*
X731999Y43181999D01*
X2032000Y31682081D02*
X731999Y32982082D01*
D25*
X21684999Y60103001D02*
X20320000Y61468000D01*
X21684999Y54665001D02*
X21684999Y60103001D01*
X9144000Y67056000D02*
X8890000Y67310000D01*
X11684000Y67056000D02*
X9144000Y67056000D01*
D29*
X3300001Y60172565D02*
X6952447Y63825011D01*
X6952447Y63825011D02*
X7352446Y64225010D01*
X3300001Y45750001D02*
X3300001Y60172565D01*
X2000000Y44450000D02*
X3300001Y45750001D01*
X2032000Y31682081D02*
X2032000Y30480000D01*
X8978002Y32920002D02*
X8536002Y33362002D01*
X9558003Y31832001D02*
X8978002Y32412002D01*
X8536002Y33362002D02*
X4608814Y33362002D01*
X16929998Y14519998D02*
X16929998Y25831994D01*
X10170000Y7760000D02*
X16929998Y14519998D01*
X16929998Y25831994D02*
X17614002Y26515998D01*
X13114003Y31832001D02*
X9558003Y31832001D01*
X17614002Y27332002D02*
X13114003Y31832001D01*
X17614002Y26515998D02*
X17614002Y27332002D01*
X4608814Y33362002D02*
X2928893Y31682081D01*
X2928893Y31682081D02*
X2032000Y31682081D01*
X8978002Y32412002D02*
X8978002Y32920002D01*
X10190001Y69898763D02*
X11531946Y71240709D01*
X11531946Y71240709D02*
X12758392Y71240710D01*
X12758392Y71240710D02*
X14037999Y72520317D01*
X14037999Y72520317D02*
X14037999Y73746761D01*
X14037999Y73746761D02*
X14668239Y74377001D01*
X14668239Y74377001D02*
X15804997Y74377001D01*
X15804997Y74377001D02*
X17016998Y73165000D01*
X17016998Y73165000D02*
X17790000Y73165000D01*
X10190001Y68610001D02*
X10190001Y69898763D01*
X8890000Y67310000D02*
X10190001Y68610001D01*
D25*
X21684999Y54665001D02*
X21684999Y54515001D01*
X21684999Y54515001D02*
X23622000Y52578000D01*
X7164344Y51312660D02*
X5650345Y51312660D01*
X10325763Y49852999D02*
X8624005Y49852999D01*
X5650345Y51312660D02*
X5084660Y51312660D01*
X11257001Y48921761D02*
X10325763Y49852999D01*
X11587243Y48921761D02*
X11257001Y48921761D01*
X14441002Y46068002D02*
X11587243Y48921761D01*
X14441002Y45051002D02*
X14441002Y46068002D01*
X10170000Y40780000D02*
X14441002Y45051002D01*
X8624005Y49852999D02*
X7164344Y51312660D01*
X5080000Y50292000D02*
X6096000Y49276000D01*
X6096000Y49276000D02*
X8128000Y49276000D01*
X9815089Y48754911D02*
X10170000Y48400000D01*
X5475339Y48871341D02*
X5075340Y49271340D01*
X10170000Y48400000D02*
X5946680Y48400000D01*
X5946680Y48400000D02*
X5475339Y48871341D01*
X2254000Y47244000D02*
X2000000Y46990000D01*
X7620000Y46736000D02*
X5080000Y46736000D01*
X32000000Y5500000D02*
X30564000Y4064000D01*
X22645238Y4064000D02*
X12192000Y4064000D01*
X30564000Y4064000D02*
X22645238Y4064000D01*
X2754999Y69323997D02*
X7127229Y64951767D01*
X2754999Y69635001D02*
X2754999Y69323997D01*
X1905000Y70485000D02*
X2754999Y69635001D01*
X7127229Y64951767D02*
X9273235Y64951767D01*
X9869001Y56170999D02*
X11792001Y54247999D01*
X11792001Y54247999D02*
X12192000Y53848000D01*
X9869001Y62135999D02*
X9869001Y56170999D01*
X9273235Y62731765D02*
X9869001Y62135999D01*
X9273235Y64951767D02*
X9273235Y62731765D01*
X19775002Y75786002D02*
X19775002Y73541240D01*
X1905000Y70485000D02*
X2754999Y71334999D01*
X2754999Y71334999D02*
X2754999Y71682378D01*
X2754999Y71682378D02*
X7983610Y76910989D01*
X7983610Y76910989D02*
X18650015Y76910989D01*
X18650015Y76910989D02*
X19775002Y75786002D01*
X16337001Y72077999D02*
X16011999Y72403001D01*
X19775002Y73541240D02*
X18311761Y72077999D01*
X16011999Y72403001D02*
X15250000Y73165000D01*
X18311761Y72077999D02*
X16337001Y72077999D01*
X28484998Y53245998D02*
X28484998Y54651174D01*
X28484998Y54651174D02*
X31742499Y57908675D01*
X31742499Y63497499D02*
X32950001Y64705001D01*
X32950001Y64705001D02*
X33650000Y65405000D01*
X33020000Y55197500D02*
X30691498Y52868998D01*
X30691498Y52868998D02*
X28861998Y52868998D01*
X33020000Y55245000D02*
X33020000Y55197500D01*
X28861998Y52868998D02*
X28484998Y53245998D01*
X31742499Y57908675D02*
X31742499Y63497499D01*
X32950001Y50735001D02*
X33650000Y51435000D01*
X33020000Y41322500D02*
X31817500Y42525000D01*
X31817500Y42525000D02*
X30823996Y42525000D01*
X30823996Y42525000D02*
X29500998Y43847998D01*
X29500998Y43847998D02*
X29500998Y44544002D01*
X31742499Y46785503D02*
X31742499Y49527499D01*
X31742499Y49527499D02*
X32950001Y50735001D01*
X29500998Y44544002D02*
X31742499Y46785503D01*
X33020000Y41275000D02*
X33020000Y41322500D01*
X31742499Y29832501D02*
X31742499Y34214616D01*
X33020000Y27305000D02*
X33020000Y28555000D01*
X33020000Y28555000D02*
X31742499Y29832501D01*
X31742499Y34214616D02*
X33650000Y36122117D01*
X33650000Y36475051D02*
X33650000Y37465000D01*
X33650000Y36122117D02*
X33650000Y36475051D01*
X32950001Y22795001D02*
X33650000Y23495000D01*
X31496000Y21341000D02*
X32950001Y22795001D01*
X31496000Y16109000D02*
X31496000Y21341000D01*
X33020000Y14585000D02*
X31496000Y16109000D01*
X33020000Y13335000D02*
X33020000Y14585000D01*
X29244943Y38709948D02*
X29244943Y38144263D01*
X29427001Y38892006D02*
X29244943Y38709948D01*
X27722999Y41930003D02*
X29427001Y40226001D01*
X27722999Y44675235D02*
X27722999Y41930003D01*
X29427001Y40226001D02*
X29427001Y38892006D01*
X29027659Y45979895D02*
X27722999Y44675235D01*
X29027659Y49204341D02*
X29027659Y45979895D01*
X25768000Y15380000D02*
X25410000Y15380000D01*
X28448000Y12700000D02*
X25768000Y15380000D01*
X15240000Y24384000D02*
X15244660Y24379340D01*
X11326000Y24384000D02*
X15240000Y24384000D01*
X10170000Y25540000D02*
X11326000Y24384000D01*
X31089032Y34068468D02*
X31089032Y34634153D01*
X31089032Y29610270D02*
X31089032Y34068468D01*
X25721423Y24242661D02*
X31089032Y29610270D01*
X25123954Y24242661D02*
X25721423Y24242661D01*
X23585010Y25781605D02*
X25123954Y24242661D01*
X13633004Y23000000D02*
X11247630Y23000000D01*
X11247630Y23000000D02*
X10170000Y23000000D01*
X15748000Y20885004D02*
X13633004Y23000000D01*
X15748000Y17780000D02*
X15748000Y20885004D01*
X27432000Y28493238D02*
X27432000Y32326585D01*
X27432000Y32326585D02*
X31050001Y35944586D01*
X31050001Y36765001D02*
X31750000Y37465000D01*
X22860000Y26416000D02*
X23436999Y26992999D01*
X20828000Y18796000D02*
X22860000Y20828000D01*
X25931761Y26992999D02*
X27432000Y28493238D01*
X31050001Y35944586D02*
X31050001Y36765001D01*
X23436999Y26992999D02*
X25931761Y26992999D01*
X22860000Y20828000D02*
X22860000Y26416000D01*
X41641586Y24520001D02*
X43537585Y26416000D01*
X36830000Y23495000D02*
X37855001Y24520001D01*
X37855001Y24520001D02*
X41641586Y24520001D01*
X42578990Y15760180D02*
X42578990Y11590990D01*
X42915820Y16097010D02*
X42578990Y15760180D01*
X43537585Y26416000D02*
X43378595Y26257010D01*
X46829010Y25457405D02*
X46829010Y19246595D01*
X42578990Y11590990D02*
X38608000Y7620000D01*
X46829010Y19246595D02*
X43679425Y16097010D01*
X43679425Y16097010D02*
X42915820Y16097010D01*
X15240000Y6644828D02*
X14678161Y6082989D01*
X19758161Y6082989D02*
X18341838Y6082990D01*
X20320000Y6644828D02*
X19758161Y6082989D01*
X20881838Y6082990D02*
X20320000Y6644828D01*
X18341838Y6082990D02*
X17780000Y6644828D01*
X17780000Y6644828D02*
X17218161Y6082989D01*
X22888171Y6672999D02*
X22298161Y6082989D01*
X31056999Y6672999D02*
X22888171Y6672999D01*
X32004000Y7620000D02*
X31056999Y6672999D01*
X22298161Y6082989D02*
X20881838Y6082990D01*
X17218161Y6082989D02*
X15801838Y6082990D01*
X15801838Y6082990D02*
X15240000Y6644828D01*
X12713011Y6082989D02*
X12700000Y6096000D01*
X14678161Y6082989D02*
X12713011Y6082989D01*
X14724471Y15240000D02*
X10170000Y19794471D01*
X15748000Y15240000D02*
X14724471Y15240000D01*
X10170000Y19794471D02*
X10170000Y20460000D01*
X43608586Y26487001D02*
X43537585Y26416000D01*
X45799414Y26487001D02*
X43608586Y26487001D01*
X46829010Y25457405D02*
X45799414Y26487001D01*
X10170000Y17920000D02*
X13208000Y14882000D01*
X13208000Y14882000D02*
X13208000Y12700000D01*
X23664999Y8847001D02*
X22860000Y9652000D01*
X25931761Y8847001D02*
X23664999Y8847001D01*
X43422186Y26937011D02*
X45985815Y26937010D01*
X42901175Y26416000D02*
X43422186Y26937011D01*
X42164000Y26416000D02*
X42901175Y26416000D01*
X41727999Y25979999D02*
X42164000Y26416000D01*
X34234999Y25979999D02*
X41727999Y25979999D01*
X31750000Y23495000D02*
X34234999Y25979999D01*
X45985815Y26937010D02*
X47752000Y25170825D01*
X47752000Y25170825D02*
X47752000Y12790998D01*
X47752000Y12790998D02*
X39136001Y4174999D01*
X39136001Y4174999D02*
X37863999Y4174999D01*
X37863999Y4174999D02*
X35052000Y6986998D01*
X35052000Y6986998D02*
X35052000Y8345010D01*
X35052000Y8345010D02*
X31656008Y8345010D01*
X31656008Y8345010D02*
X30930998Y7620000D01*
X30930998Y7620000D02*
X27158762Y7620000D01*
X27158762Y7620000D02*
X25931761Y8847001D01*
X26224001Y62292001D02*
X26924000Y62992000D01*
X24275999Y60343999D02*
X26224001Y62292001D01*
X24275999Y54755999D02*
X24275999Y60343999D01*
X23876000Y54356000D02*
X24275999Y54755999D01*
X14891013Y46254402D02*
X12882999Y48262416D01*
X12882999Y51321761D02*
X15579228Y54017990D01*
X10170000Y38240000D02*
X14891013Y42961013D01*
X14891013Y42961013D02*
X14891013Y46254402D01*
X15579228Y54017990D02*
X16182490Y54017990D01*
X12882999Y48262416D02*
X12882999Y51321761D01*
X16182490Y54017990D02*
X16748175Y54017990D01*
X10931999Y36461999D02*
X10170000Y35700000D01*
X16764000Y42294000D02*
X16764000Y44196000D01*
X10170000Y35700000D02*
X16764000Y42294000D01*
X28443672Y51245396D02*
X28443672Y49824910D01*
X22330453Y47312999D02*
X21901989Y46884535D01*
X21901989Y46884535D02*
X21501990Y46484536D01*
X28443672Y49824910D02*
X25931761Y47312999D01*
X25931761Y47312999D02*
X22330453Y47312999D01*
X10170000Y33160000D02*
X16624000Y33160000D01*
X16624000Y33160000D02*
X16764000Y33020000D01*
X27031474Y41655887D02*
X27031474Y41090202D01*
X27031474Y46930835D02*
X27031474Y41655887D01*
X27852639Y47752000D02*
X27031474Y46930835D01*
X29981001Y36585001D02*
X29863999Y36467999D01*
X29981001Y42095173D02*
X29981001Y36585001D01*
X29863999Y36467999D02*
X29464000Y36068000D01*
X29075001Y64258001D02*
X29981001Y63352001D01*
X29075001Y73540999D02*
X29075001Y64258001D01*
X29981001Y46296827D02*
X28600976Y44916802D01*
X29981001Y50985173D02*
X29981001Y46296827D01*
X28997198Y51968976D02*
X29981001Y50985173D01*
X28489198Y51968976D02*
X28997198Y51968976D01*
X27584976Y52873198D02*
X28489198Y51968976D01*
X27584976Y55023974D02*
X27584976Y52873198D01*
X29981001Y57419999D02*
X27584976Y55023974D01*
X29981001Y63352001D02*
X29981001Y57419999D01*
X28600976Y43475198D02*
X29981001Y42095173D01*
X28600976Y44916802D02*
X28600976Y43475198D01*
X27432000Y75184000D02*
X29075001Y73540999D01*
X29219001Y79746999D02*
X31496000Y77470000D01*
X29219001Y82540999D02*
X29219001Y79746999D01*
X27940000Y83820000D02*
X29219001Y82540999D01*
X29050987Y44730402D02*
X30550011Y46229426D01*
X25410000Y33160000D02*
X27629004Y33160000D01*
X27629004Y33160000D02*
X30550011Y36081007D01*
X30550011Y36081007D02*
X30550011Y42162574D01*
X30550011Y42162574D02*
X29050987Y43661598D01*
X29050987Y43661598D02*
X29050987Y44730402D01*
X30550011Y46229426D02*
X30550011Y51052574D01*
X30550011Y51052574D02*
X29183598Y52418987D01*
X29183598Y52418987D02*
X28675598Y52418987D01*
X30550011Y57352598D02*
X30550011Y71062315D01*
X28034987Y54837574D02*
X30550011Y57352598D01*
X28034987Y53059598D02*
X28034987Y54837574D01*
X28675598Y52418987D02*
X28034987Y53059598D01*
X30550011Y71062315D02*
X30550011Y71628000D01*
X19057510Y54071670D02*
X17790000Y52804160D01*
X18179999Y21227999D02*
X17780000Y20828000D01*
X17790000Y33703415D02*
X18578174Y32915241D01*
X17790000Y52804160D02*
X17790000Y33703415D01*
X18578174Y32915241D02*
X18578174Y21626174D01*
X17790000Y58994171D02*
X19057510Y57726661D01*
X18578174Y21626174D02*
X18179999Y21227999D01*
X19057510Y57726661D02*
X19057510Y54071670D01*
X17790000Y65545000D02*
X17790000Y58994171D01*
X5385834Y73205441D02*
X6775554Y71815721D01*
X6775554Y71815721D02*
X12520215Y71815721D01*
X16487988Y74952012D02*
X16622661Y74817339D01*
X16622661Y74817339D02*
X17022660Y74417340D01*
X14430062Y74952012D02*
X16487988Y74952012D01*
X13462989Y73984939D02*
X14430062Y74952012D01*
X13462989Y72758495D02*
X13462989Y73984939D01*
X12520215Y71815721D02*
X13462989Y72758495D01*
X20102998Y9107002D02*
X20102998Y19144002D01*
X21590000Y7620000D02*
X20102998Y9107002D01*
X20885991Y19926995D02*
X20885991Y25457991D01*
X20102998Y19144002D02*
X20885991Y19926995D01*
X24960999Y29532999D02*
X25931761Y29532999D01*
X20885991Y25457991D02*
X24960999Y29532999D01*
X26497001Y32094320D02*
X26665340Y32262659D01*
X25931761Y29532999D02*
X26497001Y30098239D01*
X26497001Y30098239D02*
X26497001Y32094320D01*
X16510000Y7620000D02*
X19050000Y7620000D01*
X18288001Y18601827D02*
X19304000Y19617826D01*
X18288001Y8381999D02*
X18288001Y18601827D01*
X19304000Y19617826D02*
X19304000Y36894732D01*
X18904001Y37294731D02*
X18904001Y37700001D01*
X19304000Y36894732D02*
X18904001Y37294731D01*
X18904001Y37700001D02*
X19304000Y38100000D01*
X19050000Y7620000D02*
X18288001Y8381999D01*
D29*
X40640000Y58928000D02*
X40107021Y58395021D01*
X29464000Y54451502D02*
X29464000Y53848000D01*
X40107021Y58395021D02*
X33407519Y58395021D01*
X33407519Y58395021D02*
X29464000Y54451502D01*
X25762001Y53194001D02*
X26162000Y53594000D01*
X22802001Y50234001D02*
X25762001Y53194001D01*
X22802001Y49306011D02*
X22802001Y50234001D01*
X21071947Y47575957D02*
X22802001Y49306011D01*
X39570990Y44904990D02*
X30934990Y44904990D01*
X30934990Y44904990D02*
X30226000Y44196000D01*
X40386000Y45720000D02*
X39570990Y44904990D01*
X24918237Y39478001D02*
X24772238Y39624000D01*
X28302001Y39478001D02*
X24918237Y39478001D01*
X28702000Y39878000D02*
X28302001Y39478001D01*
X24772238Y39624000D02*
X22352000Y39624000D01*
D25*
X30524890Y83135110D02*
X30524890Y80142501D01*
X30524890Y80142501D02*
X30524890Y79576816D01*
X27940000Y85720000D02*
X30524890Y83135110D01*
X8382000Y75112296D02*
X8382000Y75677981D01*
X12710814Y72642731D02*
X12333814Y72265731D01*
X14279640Y75438000D02*
X12710814Y73869174D01*
X12710814Y73869174D02*
X12710814Y72642731D01*
X19050000Y75438000D02*
X14279640Y75438000D01*
X11228565Y72265731D02*
X8382000Y75112296D01*
X12333814Y72265731D02*
X11228565Y72265731D01*
X27494001Y80963999D02*
X28194000Y80264000D01*
X26914999Y81543001D02*
X27494001Y80963999D01*
X26914999Y86212001D02*
X26914999Y81543001D01*
X28448000Y87745002D02*
X26914999Y86212001D01*
X28448000Y88392000D02*
X28448000Y87745002D01*
X9144000Y91032000D02*
X10822000Y92710000D01*
X9144000Y85852000D02*
X9144000Y91032000D01*
X15904001Y92511999D02*
X19050000Y95657998D01*
X11020001Y92511999D02*
X15904001Y92511999D01*
X10822000Y92710000D02*
X11020001Y92511999D01*
X19050000Y95657998D02*
X19050000Y97028000D01*
X19050000Y97028000D02*
X19812000Y97790000D01*
M02*
