%TF.GenerationSoftware,KiCad,Pcbnew,(5.0.2)-1*%
%TF.CreationDate,2020-01-28T14:28:05-08:00*%
%TF.ProjectId,DMX_CTRL,444d585f-4354-4524-9c2e-6b696361645f,rev?*%
%TF.SameCoordinates,PX4c4b400PY8f0d180*%
%TF.FileFunction,Legend,Bot*%
%TF.FilePolarity,Positive*%
%FSLAX46Y46*%
G04 Gerber Fmt 4.6, Leading zero omitted, Abs format (unit mm)*
G04 Created by KiCad (PCBNEW (5.0.2)-1) date 1/28/2020 2:28:05 PM*
%MOMM*%
%LPD*%
G01*
G04 APERTURE LIST*
%ADD10C,0.300000*%
%ADD11C,0.150000*%
G04 APERTURE END LIST*
D10*
X48430571Y81404286D02*
X46930571Y81404286D01*
X46930571Y81047143D01*
X47002000Y80832858D01*
X47144857Y80690000D01*
X47287714Y80618572D01*
X47573428Y80547143D01*
X47787714Y80547143D01*
X48073428Y80618572D01*
X48216285Y80690000D01*
X48359142Y80832858D01*
X48430571Y81047143D01*
X48430571Y81404286D01*
X48430571Y79904286D02*
X46930571Y79904286D01*
X48002000Y79404286D01*
X46930571Y78904286D01*
X48430571Y78904286D01*
X46930571Y78332858D02*
X48430571Y77332858D01*
X46930571Y77332858D02*
X48430571Y78332858D01*
X48573428Y77118572D02*
X48573428Y75975715D01*
X48287714Y74761429D02*
X48359142Y74832858D01*
X48430571Y75047143D01*
X48430571Y75190000D01*
X48359142Y75404286D01*
X48216285Y75547143D01*
X48073428Y75618572D01*
X47787714Y75690000D01*
X47573428Y75690000D01*
X47287714Y75618572D01*
X47144857Y75547143D01*
X47002000Y75404286D01*
X46930571Y75190000D01*
X46930571Y75047143D01*
X47002000Y74832858D01*
X47073428Y74761429D01*
X46930571Y74332858D02*
X46930571Y73475715D01*
X48430571Y73904286D02*
X46930571Y73904286D01*
X48430571Y72118572D02*
X47716285Y72618572D01*
X48430571Y72975715D02*
X46930571Y72975715D01*
X46930571Y72404286D01*
X47002000Y72261429D01*
X47073428Y72190000D01*
X47216285Y72118572D01*
X47430571Y72118572D01*
X47573428Y72190000D01*
X47644857Y72261429D01*
X47716285Y72404286D01*
X47716285Y72975715D01*
X48430571Y70761429D02*
X48430571Y71475715D01*
X46930571Y71475715D01*
X46930571Y69332858D02*
X48430571Y68832858D01*
X46930571Y68332858D01*
X48430571Y67047143D02*
X48430571Y67904286D01*
X48430571Y67475715D02*
X46930571Y67475715D01*
X47144857Y67618572D01*
X47287714Y67761429D01*
X47359142Y67904286D01*
X48287714Y66404286D02*
X48359142Y66332858D01*
X48430571Y66404286D01*
X48359142Y66475715D01*
X48287714Y66404286D01*
X48430571Y66404286D01*
X46930571Y65404286D02*
X46930571Y65261429D01*
X47002000Y65118572D01*
X47073428Y65047143D01*
X47216285Y64975715D01*
X47502000Y64904286D01*
X47859142Y64904286D01*
X48144857Y64975715D01*
X48287714Y65047143D01*
X48359142Y65118572D01*
X48430571Y65261429D01*
X48430571Y65404286D01*
X48359142Y65547143D01*
X48287714Y65618572D01*
X48144857Y65690001D01*
X47859142Y65761429D01*
X47502000Y65761429D01*
X47216285Y65690001D01*
X47073428Y65618572D01*
X47002000Y65547143D01*
X46930571Y65404286D01*
X49002000Y62690001D02*
X48930571Y62761429D01*
X48716285Y62904286D01*
X48573428Y62975715D01*
X48359142Y63047143D01*
X48002000Y63118572D01*
X47716285Y63118572D01*
X47359142Y63047143D01*
X47144857Y62975715D01*
X47002000Y62904286D01*
X46787714Y62761429D01*
X46716285Y62690001D01*
X48287714Y61261429D02*
X48359142Y61332858D01*
X48430571Y61547143D01*
X48430571Y61690001D01*
X48359142Y61904286D01*
X48216285Y62047143D01*
X48073428Y62118572D01*
X47787714Y62190001D01*
X47573428Y62190001D01*
X47287714Y62118572D01*
X47144857Y62047143D01*
X47002000Y61904286D01*
X46930571Y61690001D01*
X46930571Y61547143D01*
X47002000Y61332858D01*
X47073428Y61261429D01*
X49002000Y60761429D02*
X48930571Y60690001D01*
X48716285Y60547143D01*
X48573428Y60475715D01*
X48359142Y60404286D01*
X48002000Y60332858D01*
X47716285Y60332858D01*
X47359142Y60404286D01*
X47144857Y60475715D01*
X47002000Y60547143D01*
X46787714Y60690001D01*
X46716285Y60761429D01*
X47073428Y58547143D02*
X47002000Y58475715D01*
X46930571Y58332858D01*
X46930571Y57975715D01*
X47002000Y57832858D01*
X47073428Y57761429D01*
X47216285Y57690001D01*
X47359142Y57690001D01*
X47573428Y57761429D01*
X48430571Y58618572D01*
X48430571Y57690001D01*
X46930571Y56761429D02*
X46930571Y56618572D01*
X47002000Y56475715D01*
X47073428Y56404286D01*
X47216285Y56332858D01*
X47502000Y56261429D01*
X47859142Y56261429D01*
X48144857Y56332858D01*
X48287714Y56404286D01*
X48359142Y56475715D01*
X48430571Y56618572D01*
X48430571Y56761429D01*
X48359142Y56904286D01*
X48287714Y56975715D01*
X48144857Y57047143D01*
X47859142Y57118572D01*
X47502000Y57118572D01*
X47216285Y57047143D01*
X47073428Y56975715D01*
X47002000Y56904286D01*
X46930571Y56761429D01*
X47073428Y55690001D02*
X47002000Y55618572D01*
X46930571Y55475715D01*
X46930571Y55118572D01*
X47002000Y54975715D01*
X47073428Y54904286D01*
X47216285Y54832858D01*
X47359142Y54832858D01*
X47573428Y54904286D01*
X48430571Y55761429D01*
X48430571Y54832858D01*
X46930571Y53904286D02*
X46930571Y53761429D01*
X47002000Y53618572D01*
X47073428Y53547143D01*
X47216285Y53475715D01*
X47502000Y53404286D01*
X47859142Y53404286D01*
X48144857Y53475715D01*
X48287714Y53547143D01*
X48359142Y53618572D01*
X48430571Y53761429D01*
X48430571Y53904286D01*
X48359142Y54047143D01*
X48287714Y54118572D01*
X48144857Y54190001D01*
X47859142Y54261429D01*
X47502000Y54261429D01*
X47216285Y54190001D01*
X47073428Y54118572D01*
X47002000Y54047143D01*
X46930571Y53904286D01*
X48430571Y51618572D02*
X46930571Y51618572D01*
X48002000Y51118572D01*
X46930571Y50618572D01*
X48430571Y50618572D01*
X48287714Y49904286D02*
X48359142Y49832858D01*
X48430571Y49904286D01*
X48359142Y49975715D01*
X48287714Y49904286D01*
X48430571Y49904286D01*
X48430571Y48047143D02*
X46930571Y48047143D01*
X47644857Y48047143D02*
X47644857Y47190001D01*
X48430571Y47190001D02*
X46930571Y47190001D01*
X48430571Y45832858D02*
X47644857Y45832858D01*
X47502000Y45904286D01*
X47430571Y46047143D01*
X47430571Y46332858D01*
X47502000Y46475715D01*
X48359142Y45832858D02*
X48430571Y45975715D01*
X48430571Y46332858D01*
X48359142Y46475715D01*
X48216285Y46547143D01*
X48073428Y46547143D01*
X47930571Y46475715D01*
X47859142Y46332858D01*
X47859142Y45975715D01*
X47787714Y45832858D01*
X48430571Y45118572D02*
X47430571Y45118572D01*
X47716285Y45118572D02*
X47573428Y45047143D01*
X47502000Y44975715D01*
X47430571Y44832858D01*
X47430571Y44690001D01*
X47430571Y44404286D02*
X47430571Y43832858D01*
X46930571Y44190001D02*
X48216285Y44190001D01*
X48359142Y44118572D01*
X48430571Y43975715D01*
X48430571Y43832858D01*
X48430571Y43332858D02*
X47430571Y43332858D01*
X47573428Y43332858D02*
X47502000Y43261429D01*
X47430571Y43118572D01*
X47430571Y42904286D01*
X47502000Y42761429D01*
X47644857Y42690001D01*
X48430571Y42690001D01*
X47644857Y42690001D02*
X47502000Y42618572D01*
X47430571Y42475715D01*
X47430571Y42261429D01*
X47502000Y42118572D01*
X47644857Y42047143D01*
X48430571Y42047143D01*
X48430571Y40690001D02*
X47644857Y40690001D01*
X47502000Y40761429D01*
X47430571Y40904286D01*
X47430571Y41190001D01*
X47502000Y41332858D01*
X48359142Y40690001D02*
X48430571Y40832858D01*
X48430571Y41190001D01*
X48359142Y41332858D01*
X48216285Y41404286D01*
X48073428Y41404286D01*
X47930571Y41332858D01*
X47859142Y41190001D01*
X47859142Y40832858D01*
X47787714Y40690001D01*
X47430571Y39975715D02*
X48430571Y39975715D01*
X47573428Y39975715D02*
X47502000Y39904286D01*
X47430571Y39761429D01*
X47430571Y39547143D01*
X47502000Y39404286D01*
X47644857Y39332858D01*
X48430571Y39332858D01*
X47430571Y38618572D02*
X48430571Y38618572D01*
X47573428Y38618572D02*
X47502000Y38547143D01*
X47430571Y38404286D01*
X47430571Y38190001D01*
X47502000Y38047143D01*
X47644857Y37975715D01*
X48430571Y37975715D01*
D11*
X1666666Y0D02*
G75*
G03X1666666Y0I-1666666J0D01*
G01*
X-2500000Y0D02*
X2500000Y0D01*
X0Y2500000D02*
X0Y-2500000D01*
X0Y100000000D02*
X0Y0D01*
X50000000Y100000000D02*
X0Y100000000D01*
X50000000Y0D02*
X50000000Y100000000D01*
X0Y0D02*
X50000000Y0D01*
X18034000Y78232000D02*
X254000Y78232000D01*
X18034000Y99822000D02*
X18034000Y78232000D01*
X254000Y99822000D02*
X18034000Y99822000D01*
X254000Y78232000D02*
X254000Y99822000D01*
X24130000Y53340000D02*
X24130000Y5080000D01*
X24130000Y5080000D02*
X11430000Y5080000D01*
X11430000Y5080000D02*
X11430000Y53340000D01*
X11430000Y53340000D02*
X24130000Y53340000D01*
X9501142Y96702477D02*
X9548761Y96750096D01*
X9596380Y96892953D01*
X9596380Y96988191D01*
X9548761Y97131048D01*
X9453523Y97226286D01*
X9358285Y97273905D01*
X9167809Y97321524D01*
X9024952Y97321524D01*
X8834476Y97273905D01*
X8739238Y97226286D01*
X8644000Y97131048D01*
X8596380Y96988191D01*
X8596380Y96892953D01*
X8644000Y96750096D01*
X8691619Y96702477D01*
X9596380Y96273905D02*
X8596380Y96273905D01*
X9072571Y96273905D02*
X9072571Y95702477D01*
X9596380Y95702477D02*
X8596380Y95702477D01*
X8691619Y95273905D02*
X8644000Y95226286D01*
X8596380Y95131048D01*
X8596380Y94892953D01*
X8644000Y94797715D01*
X8691619Y94750096D01*
X8786857Y94702477D01*
X8882095Y94702477D01*
X9024952Y94750096D01*
X9596380Y95321524D01*
X9596380Y94702477D01*
X15565428Y79882953D02*
X15565428Y79121048D01*
X9596380Y79763905D02*
X8596380Y79763905D01*
X8596380Y79525810D01*
X8644000Y79382953D01*
X8739238Y79287715D01*
X8834476Y79240096D01*
X9024952Y79192477D01*
X9167809Y79192477D01*
X9358285Y79240096D01*
X9453523Y79287715D01*
X9548761Y79382953D01*
X9596380Y79525810D01*
X9596380Y79763905D01*
X2865428Y79882953D02*
X2865428Y79121048D01*
X3246380Y79502000D02*
X2484476Y79502000D01*
X22351904Y48807620D02*
X22351904Y47998096D01*
X22304285Y47902858D01*
X22256666Y47855239D01*
X22161428Y47807620D01*
X21970952Y47807620D01*
X21875714Y47855239D01*
X21828095Y47902858D01*
X21780476Y47998096D01*
X21780476Y48807620D01*
X20875714Y48474286D02*
X20875714Y47807620D01*
X21113809Y48855239D02*
X21351904Y48140953D01*
X20732857Y48140953D01*
M02*
