M48
;DRILL file {KiCad (5.0.2)-1} date 1/22/2020 7:32:02 PM
;FORMAT={-:-/ absolute / inch / decimal}
FMAT,2
INCH,TZ
T1C0.0157
T2C0.0276
T3C0.0300
T4C0.0315
T5C0.0394
T6C0.0433
T7C0.0600
T8C0.1693
T9C0.2000
%
G90
G05
T1
X0.1221Y1.3183
X0.1821Y2.2583
X0.2019Y1.9381
X0.2021Y1.9783
X0.2021Y1.8383
X0.2021Y1.7983
X0.2021Y1.6983
X0.2023Y2.0185
X0.2142Y2.8804
X0.2621Y0.6097
X0.2772Y1.0603
X0.2916Y2.5268
X0.3021Y1.8383
X0.3021Y1.1383
X0.3021Y0.7783
X0.3221Y1.9383
X0.331Y2.5269
X0.3321Y2.9777
X0.3357Y1.0908
X0.4621Y2.6383
X0.4621Y2.5383
X0.474Y2.8719
X0.4821Y3.2183
X0.4821Y2.7696
X0.4821Y2.1183
X0.4821Y0.7783
X0.4821Y0.1583
X0.5021Y0.2383
X0.5221Y0.4983
X0.5272Y2.9893
X0.5519Y1.0085
X0.5821Y1.1183
X0.5821Y0.8183
X0.6023Y0.9581
X0.6221Y0.6983
X0.6221Y0.5983
X0.6421Y1.0583
X0.6615Y2.125
X0.6621Y1.7383
X0.6621Y1.2983
X0.6723Y2.9281
X0.7021Y0.8183
X0.705Y1.2008
X0.7521Y2.9683
X0.7621Y1.4983
X0.7821Y3.8483
X0.7872Y3.324
X0.8021Y2.4183
X0.8221Y0.7383
X0.8317Y1.8713
X0.8421Y1.0783
X0.8487Y1.8284
X0.8721Y3.0783
X0.8821Y1.5583
X0.9021Y0.7383
X0.9021Y0.3783
X0.9156Y1.6647
X0.9307Y1.3383
X0.9307Y1.0133
X0.9321Y2.0683
X0.9421Y2.1383
X0.959Y1.6004
X1.0321Y2.1083
X1.0519Y1.2685
X1.0664Y1.616
X1.0821Y2.9583
X1.0821Y0.9583
X1.0987Y1.8783
X1.122Y2.0158
X1.1221Y3.4783
X1.1221Y0.4983
X1.1321Y1.5683
X1.1449Y1.9354
X1.1535Y1.5
X1.1621Y2.1183
X1.1621Y1.4183
X1.1921Y1.7383
X1.2039Y3.1312
X1.2049Y2.8183
X1.2261Y1.3618
X1.2421Y3.0483
X1.2621Y3.7283
X1.2621Y3.3183
X1.2621Y3.2183
X1.2621Y0.2983
X1.5221Y0.2983
X1.5921Y1.7983
X1.6021Y2.3183
X2.0921Y1.3183
X2.1521Y2.2583
X2.1719Y1.9381
X2.1721Y1.9783
X2.1721Y1.8383
X2.1721Y1.7983
X2.1721Y1.6983
X2.1723Y2.0185
X2.1842Y2.8804
X2.2321Y0.6097
X2.2472Y1.0603
X2.2616Y2.5268
X2.2721Y1.8383
X2.2721Y1.1383
X2.2721Y0.7783
X2.2921Y1.9383
X2.301Y2.5269
X2.3021Y2.9777
X2.3057Y1.0908
X2.4321Y2.6383
X2.4321Y2.5383
X2.444Y2.8719
X2.4521Y3.2183
X2.4521Y2.7696
X2.4521Y2.1183
X2.4521Y0.7783
X2.4521Y0.1583
X2.4721Y0.2383
X2.4921Y0.4983
X2.4972Y2.9893
X2.5219Y1.0085
X2.5521Y1.1183
X2.5521Y0.8183
X2.5723Y0.9581
X2.5921Y0.6983
X2.5921Y0.5983
X2.6121Y1.0583
X2.6315Y2.125
X2.6321Y1.7383
X2.6321Y1.2983
X2.6423Y2.9281
X2.6721Y0.8183
X2.675Y1.2008
X2.7221Y2.9683
X2.7321Y1.4983
X2.7521Y3.8483
X2.7572Y3.324
X2.7721Y2.4183
X2.7921Y0.7383
X2.8017Y1.8713
X2.8121Y1.0783
X2.8187Y1.8284
X2.8421Y3.0783
X2.8521Y1.5583
X2.8721Y0.7383
X2.8721Y0.3783
X2.8856Y1.6647
X2.9007Y1.3383
X2.9007Y1.0133
X2.9021Y2.0683
X2.9121Y2.1383
X2.929Y1.6004
X3.0021Y2.1083
X3.0219Y1.2685
X3.0364Y1.616
X3.0521Y2.9583
X3.0521Y0.9583
X3.0687Y1.8783
X3.092Y2.0158
X3.0921Y3.4783
X3.0921Y0.4983
X3.1021Y1.5683
X3.1149Y1.9354
X3.1235Y1.5
X3.1321Y2.1183
X3.1321Y1.4183
X3.1621Y1.7383
X3.1739Y3.1312
X3.1749Y2.8183
X3.1961Y1.3618
X3.2121Y3.0483
X3.2321Y3.7283
X3.2321Y3.3183
X3.2321Y3.2183
X3.2321Y0.2983
X3.4921Y0.2983
X3.5621Y1.7983
X3.5721Y2.3183
T2
X1.1121Y3.1583
X1.1121Y3.0835
X1.2521Y2.5733
X1.3269Y2.5733
X1.4521Y2.0233
X1.5269Y2.0233
X1.2521Y2.0233
X1.3269Y2.0233
X1.4521Y1.4733
X1.5269Y1.4733
X1.2521Y1.4733
X1.3269Y1.4733
X1.4521Y0.9233
X1.5269Y0.9233
X1.2521Y0.9233
X1.3269Y0.9233
X1.0621Y2.4783
X1.1369Y2.4783
X1.0673Y2.2783
X1.1421Y2.2783
X1.4521Y2.5733
X1.5269Y2.5733
X1.1021Y3.3731
X1.1021Y3.2983
X3.0821Y3.1583
X3.0821Y3.0835
X3.2221Y2.5733
X3.2969Y2.5733
X3.4221Y2.0233
X3.4969Y2.0233
X3.2221Y2.0233
X3.2969Y2.0233
X3.4221Y1.4733
X3.4969Y1.4733
X3.2221Y1.4733
X3.2969Y1.4733
X3.4221Y0.9233
X3.4969Y0.9233
X3.2221Y0.9233
X3.2969Y0.9233
X3.0321Y2.4783
X3.1069Y2.4783
X3.0373Y2.2783
X3.1121Y2.2783
X3.4221Y2.5733
X3.4969Y2.5733
X3.0721Y3.3731
X3.0721Y3.2983
T3
X0.6025Y2.8788
X0.6025Y2.7788
X0.6025Y2.6788
X0.6025Y2.5788
X0.7025Y2.8788
X0.7025Y2.7788
X0.7025Y2.6788
X0.7025Y2.5788
X0.4025Y2.0038
X0.4025Y1.9038
X0.4025Y1.8038
X0.4025Y1.7038
X0.4025Y1.6038
X0.4025Y1.5038
X0.4025Y1.4038
X0.4025Y1.3038
X0.4025Y1.2038
X0.4025Y1.1038
X0.4025Y1.0038
X0.4025Y0.9038
X0.4025Y0.8038
X0.4025Y0.7038
X0.4025Y0.6038
X0.4025Y0.5038
X0.4025Y0.4038
X0.4025Y0.3038
X0.4025Y0.2038
X0.4025Y0.1038
X1.0025Y2.0038
X1.0025Y1.9038
X1.0025Y1.8038
X1.0025Y1.7038
X1.0025Y1.6038
X1.0025Y1.5038
X1.0025Y1.4038
X1.0025Y1.3038
X1.0025Y1.2038
X1.0025Y1.1038
X1.0025Y1.0038
X1.0025Y0.9038
X1.0025Y0.8038
X1.0025Y0.7038
X1.0025Y0.6038
X1.0025Y0.5038
X1.0025Y0.4038
X1.0025Y0.3038
X1.0025Y0.2038
X1.0025Y0.1038
X0.5521Y1.9983
X0.5521Y0.2983
X0.6521Y1.9983
X0.6521Y0.2983
X0.7521Y1.9983
X0.7521Y0.2983
X0.8521Y1.9983
X0.8521Y0.2983
X2.5725Y2.8788
X2.5725Y2.7788
X2.5725Y2.6788
X2.5725Y2.5788
X2.6725Y2.8788
X2.6725Y2.7788
X2.6725Y2.6788
X2.6725Y2.5788
X2.3725Y2.0038
X2.3725Y1.9038
X2.3725Y1.8038
X2.3725Y1.7038
X2.3725Y1.6038
X2.3725Y1.5038
X2.3725Y1.4038
X2.3725Y1.3038
X2.3725Y1.2038
X2.3725Y1.1038
X2.3725Y1.0038
X2.3725Y0.9038
X2.3725Y0.8038
X2.3725Y0.7038
X2.3725Y0.6038
X2.3725Y0.5038
X2.3725Y0.4038
X2.3725Y0.3038
X2.3725Y0.2038
X2.3725Y0.1038
X2.9725Y2.0038
X2.9725Y1.9038
X2.9725Y1.8038
X2.9725Y1.7038
X2.9725Y1.6038
X2.9725Y1.5038
X2.9725Y1.4038
X2.9725Y1.3038
X2.9725Y1.2038
X2.9725Y1.1038
X2.9725Y1.0038
X2.9725Y0.9038
X2.9725Y0.8038
X2.9725Y0.7038
X2.9725Y0.6038
X2.9725Y0.5038
X2.9725Y0.4038
X2.9725Y0.3038
X2.9725Y0.2038
X2.9725Y0.1038
X2.5221Y1.9983
X2.5221Y0.2983
X2.6221Y1.9983
X2.6221Y0.2983
X2.7221Y1.9983
X2.7221Y0.2983
X2.8221Y1.9983
X2.8221Y0.2983
T4
X1.5521Y3.2167
X1.5521Y3.1183
X0.2271Y2.3483
X0.3256Y2.3483
X0.2287Y2.1983
X0.3271Y2.1983
X3.5221Y3.2167
X3.5221Y3.1183
X2.1971Y2.3483
X2.2956Y2.3483
X2.1987Y2.1983
X2.2971Y2.1983
T5
X0.0821Y1.5183
X0.0821Y1.4183
X0.1821Y1.5183
X0.1821Y1.4183
X0.0821Y1.1983
X0.0821Y1.0983
X0.0821Y0.9983
X0.0821Y0.8983
X0.0821Y0.7983
X0.0821Y0.6983
X0.0821Y0.5983
X0.0821Y0.4983
X0.0821Y0.3983
X0.1821Y1.1983
X0.1821Y1.0983
X0.1821Y0.9983
X0.1821Y0.8983
X0.1821Y0.7983
X0.1821Y0.6983
X0.1821Y0.5983
X0.1821Y0.4983
X0.1821Y0.3983
X0.9021Y2.3583
X0.9021Y2.2583
X0.0809Y2.2483
X0.0809Y2.1483
X0.0809Y2.0483
X0.0809Y1.9483
X0.0809Y1.8483
X0.0809Y1.7483
X0.3521Y2.7483
X0.3521Y2.6483
X0.0771Y2.9733
X0.0771Y2.8733
X0.0771Y2.7733
X0.0771Y2.6733
X0.0771Y2.5733
X0.0771Y2.4733
X2.0521Y1.5183
X2.0521Y1.4183
X2.1521Y1.5183
X2.1521Y1.4183
X2.0521Y1.1983
X2.0521Y1.0983
X2.0521Y0.9983
X2.0521Y0.8983
X2.0521Y0.7983
X2.0521Y0.6983
X2.0521Y0.5983
X2.0521Y0.4983
X2.0521Y0.3983
X2.1521Y1.1983
X2.1521Y1.0983
X2.1521Y0.9983
X2.1521Y0.8983
X2.1521Y0.7983
X2.1521Y0.6983
X2.1521Y0.5983
X2.1521Y0.4983
X2.1521Y0.3983
X2.8721Y2.3583
X2.8721Y2.2583
X2.0509Y2.2483
X2.0509Y2.1483
X2.0509Y2.0483
X2.0509Y1.9483
X2.0509Y1.8483
X2.0509Y1.7483
X2.3221Y2.7483
X2.3221Y2.6483
X2.0471Y2.9733
X2.0471Y2.8733
X2.0471Y2.7733
X2.0471Y2.6733
X2.0471Y2.5733
X2.0471Y2.4733
T6
X0.7761Y3.4714
X0.8943Y3.2746
X0.9021Y3.6683
X1.3021Y2.1733
X1.4021Y2.1733
X1.5021Y2.1733
X1.3021Y1.8233
X1.4021Y1.8233
X1.5021Y1.8233
X1.3021Y1.6233
X1.4021Y1.6233
X1.5021Y1.6233
X1.3021Y1.2733
X1.4021Y1.2733
X1.5021Y1.2733
X1.3021Y1.0733
X1.4021Y1.0733
X1.5021Y1.0733
X1.3021Y0.7233
X1.4021Y0.7233
X1.5021Y0.7233
X1.3021Y0.5233
X1.4021Y0.5233
X1.5021Y0.5233
X1.3021Y2.9233
X1.4021Y2.9233
X1.5021Y2.9233
X1.3021Y2.7233
X1.4021Y2.7233
X1.5021Y2.7233
X1.3021Y2.3733
X1.4021Y2.3733
X1.5021Y2.3733
X1.262Y0.392
X1.262Y0.2148
X1.5179Y0.392
X1.5179Y0.2148
X0.5021Y2.2483
X0.6021Y2.2483
X0.7021Y2.2483
X2.7461Y3.4714
X2.8643Y3.2746
X2.8721Y3.6683
X3.232Y0.392
X3.232Y0.2148
X3.4879Y0.392
X3.4879Y0.2148
X2.4721Y2.2483
X2.5721Y2.2483
X2.6721Y2.2483
X3.2721Y2.1733
X3.3721Y2.1733
X3.4721Y2.1733
X3.2721Y1.8233
X3.3721Y1.8233
X3.4721Y1.8233
X3.2721Y1.6233
X3.3721Y1.6233
X3.4721Y1.6233
X3.2721Y1.2733
X3.3721Y1.2733
X3.4721Y1.2733
X3.2721Y1.0733
X3.3721Y1.0733
X3.4721Y1.0733
X3.2721Y0.7233
X3.3721Y0.7233
X3.4721Y0.7233
X3.2721Y0.5233
X3.3721Y0.5233
X3.4721Y0.5233
X3.2721Y2.9233
X3.3721Y2.9233
X3.4721Y2.9233
X3.2721Y2.7233
X3.3721Y2.7233
X3.4721Y2.7233
X3.2721Y2.3733
X3.3721Y2.3733
X3.4721Y2.3733
T7
X1.7621Y3.1783
X1.7621Y2.9783
X1.7621Y2.7783
X1.7621Y2.5783
X1.7621Y2.3783
X1.7621Y2.1783
X1.7621Y1.9783
X1.7621Y1.7783
X1.7621Y1.5783
X1.7621Y1.3783
X1.7621Y1.1783
X1.7621Y0.9783
X1.7621Y0.7783
X1.7621Y0.5783
X1.0621Y3.7283
X1.2621Y3.7283
X1.4621Y3.7283
X1.6621Y3.7283
X1.8621Y3.7283
X3.7321Y3.1783
X3.7321Y2.9783
X3.7321Y2.7783
X3.7321Y2.5783
X3.7321Y2.3783
X3.7321Y2.1783
X3.7321Y1.9783
X3.7321Y1.7783
X3.7321Y1.5783
X3.7321Y1.3783
X3.7321Y1.1783
X3.7321Y0.9783
X3.7321Y0.7783
X3.7321Y0.5783
X3.0321Y3.7283
X3.2321Y3.7283
X3.4321Y3.7283
X3.6321Y3.7283
X3.8321Y3.7283
T8
X0.1596Y0.1557
X0.9864Y2.7542
X1.8131Y0.1557
X2.1296Y0.1557
X2.9564Y2.7542
X3.7831Y0.1557
T9
X0.1621Y3.7783
X0.5621Y3.7783
X2.1321Y3.7783
X2.5321Y3.7783
T0
M30
