%TF.GenerationSoftware,KiCad,Pcbnew,(5.0.2)-1*%
%TF.CreationDate,2020-01-22T19:31:58-08:00*%
%TF.ProjectId,noname.kicad_pcb_panel_x2,6e6f6e61-6d65-42e6-9b69-6361645f7063,rev?*%
%TF.SameCoordinates,PX4c4b400PY8f0d180*%
%TF.FileFunction,Legend,Bot*%
%TF.FilePolarity,Positive*%
%FSLAX46Y46*%
G04 Gerber Fmt 4.6, Leading zero omitted, Abs format (unit mm)*
G04 Created by KiCad (PCBNEW (5.0.2)-1) date 1/22/2020 7:31:58 PM*
%MOMM*%
%LPD*%
G01*
G04 APERTURE LIST*
%ADD10C,0.150000*%
%ADD11C,0.300000*%
G04 APERTURE END LIST*
D10*
X100000000Y0D02*
X0Y0D01*
X100000000Y100000000D02*
X100000000Y0D01*
X0Y100000000D02*
X100000000Y100000000D01*
X0Y0D02*
X0Y100000000D01*
D11*
X48484571Y81360286D02*
X46984571Y81360286D01*
X46984571Y81003143D01*
X47056000Y80788858D01*
X47198857Y80646000D01*
X47341714Y80574572D01*
X47627428Y80503143D01*
X47841714Y80503143D01*
X48127428Y80574572D01*
X48270285Y80646000D01*
X48413142Y80788858D01*
X48484571Y81003143D01*
X48484571Y81360286D01*
X48484571Y79860286D02*
X46984571Y79860286D01*
X48056000Y79360286D01*
X46984571Y78860286D01*
X48484571Y78860286D01*
X46984571Y78288858D02*
X48484571Y77288858D01*
X46984571Y77288858D02*
X48484571Y78288858D01*
X48627428Y77074572D02*
X48627428Y75931715D01*
X48341714Y74717429D02*
X48413142Y74788858D01*
X48484571Y75003143D01*
X48484571Y75146000D01*
X48413142Y75360286D01*
X48270285Y75503143D01*
X48127428Y75574572D01*
X47841714Y75646000D01*
X47627428Y75646000D01*
X47341714Y75574572D01*
X47198857Y75503143D01*
X47056000Y75360286D01*
X46984571Y75146000D01*
X46984571Y75003143D01*
X47056000Y74788858D01*
X47127428Y74717429D01*
X46984571Y74288858D02*
X46984571Y73431715D01*
X48484571Y73860286D02*
X46984571Y73860286D01*
X48484571Y72074572D02*
X47770285Y72574572D01*
X48484571Y72931715D02*
X46984571Y72931715D01*
X46984571Y72360286D01*
X47056000Y72217429D01*
X47127428Y72146000D01*
X47270285Y72074572D01*
X47484571Y72074572D01*
X47627428Y72146000D01*
X47698857Y72217429D01*
X47770285Y72360286D01*
X47770285Y72931715D01*
X48484571Y70717429D02*
X48484571Y71431715D01*
X46984571Y71431715D01*
X46984571Y69288858D02*
X48484571Y68788858D01*
X46984571Y68288858D01*
X48484571Y67003143D02*
X48484571Y67860286D01*
X48484571Y67431715D02*
X46984571Y67431715D01*
X47198857Y67574572D01*
X47341714Y67717429D01*
X47413142Y67860286D01*
X48341714Y66360286D02*
X48413142Y66288858D01*
X48484571Y66360286D01*
X48413142Y66431715D01*
X48341714Y66360286D01*
X48484571Y66360286D01*
X46984571Y65360286D02*
X46984571Y65217429D01*
X47056000Y65074572D01*
X47127428Y65003143D01*
X47270285Y64931715D01*
X47556000Y64860286D01*
X47913142Y64860286D01*
X48198857Y64931715D01*
X48341714Y65003143D01*
X48413142Y65074572D01*
X48484571Y65217429D01*
X48484571Y65360286D01*
X48413142Y65503143D01*
X48341714Y65574572D01*
X48198857Y65646001D01*
X47913142Y65717429D01*
X47556000Y65717429D01*
X47270285Y65646001D01*
X47127428Y65574572D01*
X47056000Y65503143D01*
X46984571Y65360286D01*
X49056000Y62646001D02*
X48984571Y62717429D01*
X48770285Y62860286D01*
X48627428Y62931715D01*
X48413142Y63003143D01*
X48056000Y63074572D01*
X47770285Y63074572D01*
X47413142Y63003143D01*
X47198857Y62931715D01*
X47056000Y62860286D01*
X46841714Y62717429D01*
X46770285Y62646001D01*
X48341714Y61217429D02*
X48413142Y61288858D01*
X48484571Y61503143D01*
X48484571Y61646001D01*
X48413142Y61860286D01*
X48270285Y62003143D01*
X48127428Y62074572D01*
X47841714Y62146001D01*
X47627428Y62146001D01*
X47341714Y62074572D01*
X47198857Y62003143D01*
X47056000Y61860286D01*
X46984571Y61646001D01*
X46984571Y61503143D01*
X47056000Y61288858D01*
X47127428Y61217429D01*
X49056000Y60717429D02*
X48984571Y60646001D01*
X48770285Y60503143D01*
X48627428Y60431715D01*
X48413142Y60360286D01*
X48056000Y60288858D01*
X47770285Y60288858D01*
X47413142Y60360286D01*
X47198857Y60431715D01*
X47056000Y60503143D01*
X46841714Y60646001D01*
X46770285Y60717429D01*
X47127428Y58503143D02*
X47056000Y58431715D01*
X46984571Y58288858D01*
X46984571Y57931715D01*
X47056000Y57788858D01*
X47127428Y57717429D01*
X47270285Y57646001D01*
X47413142Y57646001D01*
X47627428Y57717429D01*
X48484571Y58574572D01*
X48484571Y57646001D01*
X46984571Y56717429D02*
X46984571Y56574572D01*
X47056000Y56431715D01*
X47127428Y56360286D01*
X47270285Y56288858D01*
X47556000Y56217429D01*
X47913142Y56217429D01*
X48198857Y56288858D01*
X48341714Y56360286D01*
X48413142Y56431715D01*
X48484571Y56574572D01*
X48484571Y56717429D01*
X48413142Y56860286D01*
X48341714Y56931715D01*
X48198857Y57003143D01*
X47913142Y57074572D01*
X47556000Y57074572D01*
X47270285Y57003143D01*
X47127428Y56931715D01*
X47056000Y56860286D01*
X46984571Y56717429D01*
X47127428Y55646001D02*
X47056000Y55574572D01*
X46984571Y55431715D01*
X46984571Y55074572D01*
X47056000Y54931715D01*
X47127428Y54860286D01*
X47270285Y54788858D01*
X47413142Y54788858D01*
X47627428Y54860286D01*
X48484571Y55717429D01*
X48484571Y54788858D01*
X46984571Y53860286D02*
X46984571Y53717429D01*
X47056000Y53574572D01*
X47127428Y53503143D01*
X47270285Y53431715D01*
X47556000Y53360286D01*
X47913142Y53360286D01*
X48198857Y53431715D01*
X48341714Y53503143D01*
X48413142Y53574572D01*
X48484571Y53717429D01*
X48484571Y53860286D01*
X48413142Y54003143D01*
X48341714Y54074572D01*
X48198857Y54146001D01*
X47913142Y54217429D01*
X47556000Y54217429D01*
X47270285Y54146001D01*
X47127428Y54074572D01*
X47056000Y54003143D01*
X46984571Y53860286D01*
X48484571Y51574572D02*
X46984571Y51574572D01*
X48056000Y51074572D01*
X46984571Y50574572D01*
X48484571Y50574572D01*
X48341714Y49860286D02*
X48413142Y49788858D01*
X48484571Y49860286D01*
X48413142Y49931715D01*
X48341714Y49860286D01*
X48484571Y49860286D01*
X48484571Y48003143D02*
X46984571Y48003143D01*
X47698857Y48003143D02*
X47698857Y47146001D01*
X48484571Y47146001D02*
X46984571Y47146001D01*
X48484571Y45788858D02*
X47698857Y45788858D01*
X47556000Y45860286D01*
X47484571Y46003143D01*
X47484571Y46288858D01*
X47556000Y46431715D01*
X48413142Y45788858D02*
X48484571Y45931715D01*
X48484571Y46288858D01*
X48413142Y46431715D01*
X48270285Y46503143D01*
X48127428Y46503143D01*
X47984571Y46431715D01*
X47913142Y46288858D01*
X47913142Y45931715D01*
X47841714Y45788858D01*
X48484571Y45074572D02*
X47484571Y45074572D01*
X47770285Y45074572D02*
X47627428Y45003143D01*
X47556000Y44931715D01*
X47484571Y44788858D01*
X47484571Y44646001D01*
X47484571Y44360286D02*
X47484571Y43788858D01*
X46984571Y44146001D02*
X48270285Y44146001D01*
X48413142Y44074572D01*
X48484571Y43931715D01*
X48484571Y43788858D01*
X48484571Y43288858D02*
X47484571Y43288858D01*
X47627428Y43288858D02*
X47556000Y43217429D01*
X47484571Y43074572D01*
X47484571Y42860286D01*
X47556000Y42717429D01*
X47698857Y42646001D01*
X48484571Y42646001D01*
X47698857Y42646001D02*
X47556000Y42574572D01*
X47484571Y42431715D01*
X47484571Y42217429D01*
X47556000Y42074572D01*
X47698857Y42003143D01*
X48484571Y42003143D01*
X48484571Y40646001D02*
X47698857Y40646001D01*
X47556000Y40717429D01*
X47484571Y40860286D01*
X47484571Y41146001D01*
X47556000Y41288858D01*
X48413142Y40646001D02*
X48484571Y40788858D01*
X48484571Y41146001D01*
X48413142Y41288858D01*
X48270285Y41360286D01*
X48127428Y41360286D01*
X47984571Y41288858D01*
X47913142Y41146001D01*
X47913142Y40788858D01*
X47841714Y40646001D01*
X47484571Y39931715D02*
X48484571Y39931715D01*
X47627428Y39931715D02*
X47556000Y39860286D01*
X47484571Y39717429D01*
X47484571Y39503143D01*
X47556000Y39360286D01*
X47698857Y39288858D01*
X48484571Y39288858D01*
X47484571Y38574572D02*
X48484571Y38574572D01*
X47627428Y38574572D02*
X47556000Y38503143D01*
X47484571Y38360286D01*
X47484571Y38146001D01*
X47556000Y38003143D01*
X47698857Y37931715D01*
X48484571Y37931715D01*
D10*
X1720666Y-44000D02*
G75*
G03X1720666Y-44000I-1666666J0D01*
G01*
X-2446000Y-44000D02*
X2554000Y-44000D01*
X54000Y2456000D02*
X54000Y-2544000D01*
D11*
X98522571Y81360286D02*
X97022571Y81360286D01*
X97022571Y81003143D01*
X97094000Y80788858D01*
X97236857Y80646000D01*
X97379714Y80574572D01*
X97665428Y80503143D01*
X97879714Y80503143D01*
X98165428Y80574572D01*
X98308285Y80646000D01*
X98451142Y80788858D01*
X98522571Y81003143D01*
X98522571Y81360286D01*
X98522571Y79860286D02*
X97022571Y79860286D01*
X98094000Y79360286D01*
X97022571Y78860286D01*
X98522571Y78860286D01*
X97022571Y78288858D02*
X98522571Y77288858D01*
X97022571Y77288858D02*
X98522571Y78288858D01*
X98665428Y77074572D02*
X98665428Y75931715D01*
X98379714Y74717429D02*
X98451142Y74788858D01*
X98522571Y75003143D01*
X98522571Y75146000D01*
X98451142Y75360286D01*
X98308285Y75503143D01*
X98165428Y75574572D01*
X97879714Y75646000D01*
X97665428Y75646000D01*
X97379714Y75574572D01*
X97236857Y75503143D01*
X97094000Y75360286D01*
X97022571Y75146000D01*
X97022571Y75003143D01*
X97094000Y74788858D01*
X97165428Y74717429D01*
X97022571Y74288858D02*
X97022571Y73431715D01*
X98522571Y73860286D02*
X97022571Y73860286D01*
X98522571Y72074572D02*
X97808285Y72574572D01*
X98522571Y72931715D02*
X97022571Y72931715D01*
X97022571Y72360286D01*
X97094000Y72217429D01*
X97165428Y72146000D01*
X97308285Y72074572D01*
X97522571Y72074572D01*
X97665428Y72146000D01*
X97736857Y72217429D01*
X97808285Y72360286D01*
X97808285Y72931715D01*
X98522571Y70717429D02*
X98522571Y71431715D01*
X97022571Y71431715D01*
X97022571Y69288858D02*
X98522571Y68788858D01*
X97022571Y68288858D01*
X98522571Y67003143D02*
X98522571Y67860286D01*
X98522571Y67431715D02*
X97022571Y67431715D01*
X97236857Y67574572D01*
X97379714Y67717429D01*
X97451142Y67860286D01*
X98379714Y66360286D02*
X98451142Y66288858D01*
X98522571Y66360286D01*
X98451142Y66431715D01*
X98379714Y66360286D01*
X98522571Y66360286D01*
X97022571Y65360286D02*
X97022571Y65217429D01*
X97094000Y65074572D01*
X97165428Y65003143D01*
X97308285Y64931715D01*
X97594000Y64860286D01*
X97951142Y64860286D01*
X98236857Y64931715D01*
X98379714Y65003143D01*
X98451142Y65074572D01*
X98522571Y65217429D01*
X98522571Y65360286D01*
X98451142Y65503143D01*
X98379714Y65574572D01*
X98236857Y65646000D01*
X97951142Y65717429D01*
X97594000Y65717429D01*
X97308285Y65646000D01*
X97165428Y65574572D01*
X97094000Y65503143D01*
X97022571Y65360286D01*
X99094000Y62646000D02*
X99022571Y62717429D01*
X98808285Y62860286D01*
X98665428Y62931715D01*
X98451142Y63003143D01*
X98094000Y63074572D01*
X97808285Y63074572D01*
X97451142Y63003143D01*
X97236857Y62931715D01*
X97094000Y62860286D01*
X96879714Y62717429D01*
X96808285Y62646000D01*
X98379714Y61217429D02*
X98451142Y61288858D01*
X98522571Y61503143D01*
X98522571Y61646000D01*
X98451142Y61860286D01*
X98308285Y62003143D01*
X98165428Y62074572D01*
X97879714Y62146000D01*
X97665428Y62146000D01*
X97379714Y62074572D01*
X97236857Y62003143D01*
X97094000Y61860286D01*
X97022571Y61646000D01*
X97022571Y61503143D01*
X97094000Y61288858D01*
X97165428Y61217429D01*
X99094000Y60717429D02*
X99022571Y60646000D01*
X98808285Y60503143D01*
X98665428Y60431715D01*
X98451142Y60360286D01*
X98094000Y60288858D01*
X97808285Y60288858D01*
X97451142Y60360286D01*
X97236857Y60431715D01*
X97094000Y60503143D01*
X96879714Y60646000D01*
X96808285Y60717429D01*
X97165428Y58503143D02*
X97094000Y58431715D01*
X97022571Y58288858D01*
X97022571Y57931715D01*
X97094000Y57788858D01*
X97165428Y57717429D01*
X97308285Y57646001D01*
X97451142Y57646001D01*
X97665428Y57717429D01*
X98522571Y58574572D01*
X98522571Y57646001D01*
X97022571Y56717429D02*
X97022571Y56574572D01*
X97094000Y56431715D01*
X97165428Y56360286D01*
X97308285Y56288858D01*
X97594000Y56217429D01*
X97951142Y56217429D01*
X98236857Y56288858D01*
X98379714Y56360286D01*
X98451142Y56431715D01*
X98522571Y56574572D01*
X98522571Y56717429D01*
X98451142Y56860286D01*
X98379714Y56931715D01*
X98236857Y57003143D01*
X97951142Y57074572D01*
X97594000Y57074572D01*
X97308285Y57003143D01*
X97165428Y56931715D01*
X97094000Y56860286D01*
X97022571Y56717429D01*
X97165428Y55646000D02*
X97094000Y55574572D01*
X97022571Y55431715D01*
X97022571Y55074572D01*
X97094000Y54931715D01*
X97165428Y54860286D01*
X97308285Y54788858D01*
X97451142Y54788858D01*
X97665428Y54860286D01*
X98522571Y55717429D01*
X98522571Y54788858D01*
X97022571Y53860286D02*
X97022571Y53717429D01*
X97094000Y53574572D01*
X97165428Y53503143D01*
X97308285Y53431715D01*
X97594000Y53360286D01*
X97951142Y53360286D01*
X98236857Y53431715D01*
X98379714Y53503143D01*
X98451142Y53574572D01*
X98522571Y53717429D01*
X98522571Y53860286D01*
X98451142Y54003143D01*
X98379714Y54074572D01*
X98236857Y54146001D01*
X97951142Y54217429D01*
X97594000Y54217429D01*
X97308285Y54146001D01*
X97165428Y54074572D01*
X97094000Y54003143D01*
X97022571Y53860286D01*
X98522571Y51574572D02*
X97022571Y51574572D01*
X98094000Y51074572D01*
X97022571Y50574572D01*
X98522571Y50574572D01*
X98379714Y49860286D02*
X98451142Y49788858D01*
X98522571Y49860286D01*
X98451142Y49931715D01*
X98379714Y49860286D01*
X98522571Y49860286D01*
X98522571Y48003143D02*
X97022571Y48003143D01*
X97736857Y48003143D02*
X97736857Y47146001D01*
X98522571Y47146001D02*
X97022571Y47146001D01*
X98522571Y45788858D02*
X97736857Y45788858D01*
X97594000Y45860286D01*
X97522571Y46003143D01*
X97522571Y46288858D01*
X97594000Y46431715D01*
X98451142Y45788858D02*
X98522571Y45931715D01*
X98522571Y46288858D01*
X98451142Y46431715D01*
X98308285Y46503143D01*
X98165428Y46503143D01*
X98022571Y46431715D01*
X97951142Y46288858D01*
X97951142Y45931715D01*
X97879714Y45788858D01*
X98522571Y45074572D02*
X97522571Y45074572D01*
X97808285Y45074572D02*
X97665428Y45003143D01*
X97594000Y44931715D01*
X97522571Y44788858D01*
X97522571Y44646001D01*
X97522571Y44360286D02*
X97522571Y43788858D01*
X97022571Y44146001D02*
X98308285Y44146001D01*
X98451142Y44074572D01*
X98522571Y43931715D01*
X98522571Y43788858D01*
X98522571Y43288858D02*
X97522571Y43288858D01*
X97665428Y43288858D02*
X97594000Y43217429D01*
X97522571Y43074572D01*
X97522571Y42860286D01*
X97594000Y42717429D01*
X97736857Y42646001D01*
X98522571Y42646001D01*
X97736857Y42646001D02*
X97594000Y42574572D01*
X97522571Y42431715D01*
X97522571Y42217429D01*
X97594000Y42074572D01*
X97736857Y42003143D01*
X98522571Y42003143D01*
X98522571Y40646001D02*
X97736857Y40646001D01*
X97594000Y40717429D01*
X97522571Y40860286D01*
X97522571Y41146001D01*
X97594000Y41288858D01*
X98451142Y40646001D02*
X98522571Y40788858D01*
X98522571Y41146001D01*
X98451142Y41288858D01*
X98308285Y41360286D01*
X98165428Y41360286D01*
X98022571Y41288858D01*
X97951142Y41146001D01*
X97951142Y40788858D01*
X97879714Y40646001D01*
X97522571Y39931715D02*
X98522571Y39931715D01*
X97665428Y39931715D02*
X97594000Y39860286D01*
X97522571Y39717429D01*
X97522571Y39503143D01*
X97594000Y39360286D01*
X97736857Y39288858D01*
X98522571Y39288858D01*
X97522571Y38574572D02*
X98522571Y38574572D01*
X97665428Y38574572D02*
X97594000Y38503143D01*
X97522571Y38360286D01*
X97522571Y38146001D01*
X97594000Y38003143D01*
X97736857Y37931715D01*
X98522571Y37931715D01*
D10*
X68126000Y78188000D02*
X50346000Y78188000D01*
X68126000Y99778000D02*
X68126000Y78188000D01*
X50346000Y99778000D02*
X68126000Y99778000D01*
X50346000Y78188000D02*
X50346000Y99778000D01*
X18088000Y78188000D02*
X308000Y78188000D01*
X18088000Y99778000D02*
X18088000Y78188000D01*
X308000Y99778000D02*
X18088000Y99778000D01*
X308000Y78188000D02*
X308000Y99778000D01*
X24184000Y53296000D02*
X24184000Y5036000D01*
X24184000Y5036000D02*
X11484000Y5036000D01*
X11484000Y5036000D02*
X11484000Y53296000D01*
X11484000Y53296000D02*
X24184000Y53296000D01*
X74222000Y53296000D02*
X74222000Y5036000D01*
X74222000Y5036000D02*
X61522000Y5036000D01*
X61522000Y5036000D02*
X61522000Y53296000D01*
X61522000Y53296000D02*
X74222000Y53296000D01*
X59593142Y96658477D02*
X59640761Y96706096D01*
X59688380Y96848953D01*
X59688380Y96944191D01*
X59640761Y97087048D01*
X59545523Y97182286D01*
X59450285Y97229905D01*
X59259809Y97277524D01*
X59116952Y97277524D01*
X58926476Y97229905D01*
X58831238Y97182286D01*
X58736000Y97087048D01*
X58688380Y96944191D01*
X58688380Y96848953D01*
X58736000Y96706096D01*
X58783619Y96658477D01*
X59688380Y96229905D02*
X58688380Y96229905D01*
X59164571Y96229905D02*
X59164571Y95658477D01*
X59688380Y95658477D02*
X58688380Y95658477D01*
X58783619Y95229905D02*
X58736000Y95182286D01*
X58688380Y95087048D01*
X58688380Y94848953D01*
X58736000Y94753715D01*
X58783619Y94706096D01*
X58878857Y94658477D01*
X58974095Y94658477D01*
X59116952Y94706096D01*
X59688380Y95277524D01*
X59688380Y94658477D01*
X65657428Y79838953D02*
X65657428Y79077048D01*
X59688380Y79719905D02*
X58688380Y79719905D01*
X58688380Y79481810D01*
X58736000Y79338953D01*
X58831238Y79243715D01*
X58926476Y79196096D01*
X59116952Y79148477D01*
X59259809Y79148477D01*
X59450285Y79196096D01*
X59545523Y79243715D01*
X59640761Y79338953D01*
X59688380Y79481810D01*
X59688380Y79719905D01*
X52957428Y79838953D02*
X52957428Y79077048D01*
X53338380Y79458000D02*
X52576476Y79458000D01*
X9555142Y96658477D02*
X9602761Y96706096D01*
X9650380Y96848953D01*
X9650380Y96944191D01*
X9602761Y97087048D01*
X9507523Y97182286D01*
X9412285Y97229905D01*
X9221809Y97277524D01*
X9078952Y97277524D01*
X8888476Y97229905D01*
X8793238Y97182286D01*
X8698000Y97087048D01*
X8650380Y96944191D01*
X8650380Y96848953D01*
X8698000Y96706096D01*
X8745619Y96658477D01*
X9650380Y96229905D02*
X8650380Y96229905D01*
X9126571Y96229905D02*
X9126571Y95658477D01*
X9650380Y95658477D02*
X8650380Y95658477D01*
X8745619Y95229905D02*
X8698000Y95182286D01*
X8650380Y95087048D01*
X8650380Y94848953D01*
X8698000Y94753715D01*
X8745619Y94706096D01*
X8840857Y94658477D01*
X8936095Y94658477D01*
X9078952Y94706096D01*
X9650380Y95277524D01*
X9650380Y94658477D01*
X15619428Y79838953D02*
X15619428Y79077048D01*
X9650380Y79719905D02*
X8650380Y79719905D01*
X8650380Y79481810D01*
X8698000Y79338953D01*
X8793238Y79243715D01*
X8888476Y79196096D01*
X9078952Y79148477D01*
X9221809Y79148477D01*
X9412285Y79196096D01*
X9507523Y79243715D01*
X9602761Y79338953D01*
X9650380Y79481810D01*
X9650380Y79719905D01*
X2919428Y79838953D02*
X2919428Y79077048D01*
X3300380Y79458000D02*
X2538476Y79458000D01*
X22405904Y48763620D02*
X22405904Y47954096D01*
X22358285Y47858858D01*
X22310666Y47811239D01*
X22215428Y47763620D01*
X22024952Y47763620D01*
X21929714Y47811239D01*
X21882095Y47858858D01*
X21834476Y47954096D01*
X21834476Y48763620D01*
X20929714Y48430286D02*
X20929714Y47763620D01*
X21167809Y48811239D02*
X21405904Y48096953D01*
X20786857Y48096953D01*
X72443904Y48763620D02*
X72443904Y47954096D01*
X72396285Y47858858D01*
X72348666Y47811239D01*
X72253428Y47763620D01*
X72062952Y47763620D01*
X71967714Y47811239D01*
X71920095Y47858858D01*
X71872476Y47954096D01*
X71872476Y48763620D01*
X70967714Y48430286D02*
X70967714Y47763620D01*
X71205809Y48811239D02*
X71443904Y48096953D01*
X70824857Y48096953D01*
M02*
