%TF.GenerationSoftware,KiCad,Pcbnew,(5.0.2)-1*%
%TF.CreationDate,2020-01-22T19:31:57-08:00*%
%TF.ProjectId,noname.kicad_pcb_panel_x2,6e6f6e61-6d65-42e6-9b69-6361645f7063,rev?*%
%TF.SameCoordinates,PX4c4b400PY8f0d180*%
%TF.FileFunction,Copper,L2,Bot*%
%TF.FilePolarity,Positive*%
%FSLAX46Y46*%
G04 Gerber Fmt 4.6, Leading zero omitted, Abs format (unit mm)*
G04 Created by KiCad (PCBNEW (5.0.2)-1) date 1/22/2020 7:31:57 PM*
%MOMM*%
%LPD*%
G01*
G04 APERTURE LIST*
%ADD10C,0.150000*%
%ADD11C,6.350000*%
%ADD12C,0.100000*%
%ADD13C,2.540000*%
%ADD14C,1.524000*%
%ADD15C,1.400000*%
%ADD16O,1.400000X1.400000*%
%ADD17C,1.600000*%
%ADD18C,7.500000*%
%ADD19R,1.700000X1.700000*%
%ADD20O,1.700000X1.700000*%
%ADD21O,1.905000X2.000000*%
%ADD22R,1.905000X2.000000*%
%ADD23C,2.000000*%
%ADD24C,0.800000*%
%ADD25C,0.250000*%
%ADD26C,1.000000*%
%ADD27C,2.500000*%
%ADD28C,1.500000*%
%ADD29C,0.500000*%
%ADD30C,3.000000*%
G04 APERTURE END LIST*
D10*
X100000000Y0D02*
X0Y0D01*
X100000000Y100000000D02*
X100000000Y0D01*
X0Y100000000D02*
X100000000Y100000000D01*
X0Y0D02*
X0Y100000000D01*
X1720666Y-44000D02*
G75*
G03X1720666Y-44000I-1666666J0D01*
G01*
X-2446000Y-44000D02*
X2554000Y-44000D01*
X54000Y2456000D02*
X54000Y-2544000D01*
D11*
X64316000Y95968000D03*
X54156000Y95968000D03*
D12*
G36*
X55114192Y90836172D02*
X55176173Y90829726D01*
X55237225Y90817235D01*
X55296758Y90798821D01*
X56490167Y90364456D01*
X56547608Y90340295D01*
X56602405Y90310620D01*
X56654029Y90275717D01*
X56701984Y90235922D01*
X56745807Y90191619D01*
X56785076Y90143233D01*
X56819414Y90091231D01*
X56848489Y90036114D01*
X56872022Y89978412D01*
X56889786Y89918682D01*
X56901610Y89857498D01*
X56907380Y89795449D01*
X56907040Y89733134D01*
X56900594Y89671153D01*
X56888103Y89610101D01*
X56869689Y89550568D01*
X53829130Y81196701D01*
X53804969Y81139260D01*
X53775294Y81084463D01*
X53740391Y81032839D01*
X53700596Y80984884D01*
X53656292Y80941061D01*
X53607907Y80901792D01*
X53555905Y80867454D01*
X53500788Y80838379D01*
X53443086Y80814846D01*
X53383356Y80797082D01*
X53322172Y80785258D01*
X53260123Y80779488D01*
X53197808Y80779828D01*
X53135827Y80786274D01*
X53074775Y80798765D01*
X53015242Y80817179D01*
X51821833Y81251544D01*
X51764392Y81275705D01*
X51709595Y81305380D01*
X51657971Y81340283D01*
X51610016Y81380078D01*
X51566193Y81424381D01*
X51526924Y81472767D01*
X51492586Y81524769D01*
X51463511Y81579886D01*
X51439978Y81637588D01*
X51422214Y81697318D01*
X51410390Y81758502D01*
X51404620Y81820551D01*
X51404960Y81882866D01*
X51411406Y81944847D01*
X51423897Y82005899D01*
X51442311Y82065432D01*
X54482870Y90419299D01*
X54507031Y90476740D01*
X54536706Y90531537D01*
X54571609Y90583161D01*
X54611404Y90631116D01*
X54655708Y90674939D01*
X54704093Y90714208D01*
X54756095Y90748546D01*
X54811212Y90777621D01*
X54868914Y90801154D01*
X54928644Y90818918D01*
X54989828Y90830742D01*
X55051877Y90836512D01*
X55114192Y90836172D01*
X55114192Y90836172D01*
G37*
D13*
X54156000Y85808000D03*
D12*
G36*
X59933241Y90884942D02*
X59994882Y90875799D01*
X60055331Y90860657D01*
X60114004Y90839664D01*
X60170337Y90813020D01*
X60223787Y90780983D01*
X60273840Y90743862D01*
X60320013Y90702013D01*
X60361862Y90655840D01*
X60398983Y90605787D01*
X60431020Y90552337D01*
X60457664Y90496004D01*
X60478657Y90437331D01*
X60493799Y90376882D01*
X60502942Y90315241D01*
X60506000Y90253000D01*
X60506000Y81363000D01*
X60502942Y81300759D01*
X60493799Y81239118D01*
X60478657Y81178669D01*
X60457664Y81119996D01*
X60431020Y81063663D01*
X60398983Y81010213D01*
X60361862Y80960160D01*
X60320013Y80913987D01*
X60273840Y80872138D01*
X60223787Y80835017D01*
X60170337Y80802980D01*
X60114004Y80776336D01*
X60055331Y80755343D01*
X59994882Y80740201D01*
X59933241Y80731058D01*
X59871000Y80728000D01*
X58601000Y80728000D01*
X58538759Y80731058D01*
X58477118Y80740201D01*
X58416669Y80755343D01*
X58357996Y80776336D01*
X58301663Y80802980D01*
X58248213Y80835017D01*
X58198160Y80872138D01*
X58151987Y80913987D01*
X58110138Y80960160D01*
X58073017Y81010213D01*
X58040980Y81063663D01*
X58014336Y81119996D01*
X57993343Y81178669D01*
X57978201Y81239118D01*
X57969058Y81300759D01*
X57966000Y81363000D01*
X57966000Y90253000D01*
X57969058Y90315241D01*
X57978201Y90376882D01*
X57993343Y90437331D01*
X58014336Y90496004D01*
X58040980Y90552337D01*
X58073017Y90605787D01*
X58110138Y90655840D01*
X58151987Y90702013D01*
X58198160Y90743862D01*
X58248213Y90780983D01*
X58301663Y90813020D01*
X58357996Y90839664D01*
X58416669Y90860657D01*
X58477118Y90875799D01*
X58538759Y90884942D01*
X58601000Y90888000D01*
X59871000Y90888000D01*
X59933241Y90884942D01*
X59933241Y90884942D01*
G37*
D13*
X59236000Y85808000D03*
D12*
G36*
X63482172Y90830742D02*
X63543356Y90818918D01*
X63603086Y90801154D01*
X63660788Y90777621D01*
X63715905Y90748546D01*
X63767907Y90714208D01*
X63816293Y90674939D01*
X63860596Y90631116D01*
X63900391Y90583161D01*
X63935294Y90531537D01*
X63964969Y90476740D01*
X63989130Y90419299D01*
X67029689Y82065432D01*
X67048103Y82005899D01*
X67060594Y81944847D01*
X67067040Y81882866D01*
X67067380Y81820551D01*
X67061610Y81758502D01*
X67049786Y81697318D01*
X67032022Y81637588D01*
X67008489Y81579886D01*
X66979414Y81524769D01*
X66945076Y81472767D01*
X66905807Y81424382D01*
X66861984Y81380078D01*
X66814029Y81340283D01*
X66762405Y81305380D01*
X66707608Y81275705D01*
X66650167Y81251544D01*
X65456758Y80817179D01*
X65397225Y80798765D01*
X65336173Y80786274D01*
X65274192Y80779828D01*
X65211877Y80779488D01*
X65149828Y80785258D01*
X65088644Y80797082D01*
X65028914Y80814846D01*
X64971212Y80838379D01*
X64916095Y80867454D01*
X64864093Y80901792D01*
X64815707Y80941061D01*
X64771404Y80984884D01*
X64731609Y81032839D01*
X64696706Y81084463D01*
X64667031Y81139260D01*
X64642870Y81196701D01*
X61602311Y89550568D01*
X61583897Y89610101D01*
X61571406Y89671153D01*
X61564960Y89733134D01*
X61564620Y89795449D01*
X61570390Y89857498D01*
X61582214Y89918682D01*
X61599978Y89978412D01*
X61623511Y90036114D01*
X61652586Y90091231D01*
X61686924Y90143233D01*
X61726193Y90191618D01*
X61770016Y90235922D01*
X61817971Y90275717D01*
X61869595Y90310620D01*
X61924392Y90340295D01*
X61981833Y90364456D01*
X63175242Y90798821D01*
X63234775Y90817235D01*
X63295827Y90829726D01*
X63357808Y90836172D01*
X63420123Y90836512D01*
X63482172Y90830742D01*
X63482172Y90830742D01*
G37*
D13*
X64316000Y85808000D03*
D11*
X14278000Y95968000D03*
X4118000Y95968000D03*
D12*
G36*
X5076192Y90836172D02*
X5138173Y90829726D01*
X5199225Y90817235D01*
X5258758Y90798821D01*
X6452167Y90364456D01*
X6509608Y90340295D01*
X6564405Y90310620D01*
X6616029Y90275717D01*
X6663984Y90235922D01*
X6707807Y90191619D01*
X6747076Y90143233D01*
X6781414Y90091231D01*
X6810489Y90036114D01*
X6834022Y89978412D01*
X6851786Y89918682D01*
X6863610Y89857498D01*
X6869380Y89795449D01*
X6869040Y89733134D01*
X6862594Y89671153D01*
X6850103Y89610101D01*
X6831689Y89550568D01*
X3791130Y81196701D01*
X3766969Y81139260D01*
X3737294Y81084463D01*
X3702391Y81032839D01*
X3662596Y80984884D01*
X3618292Y80941061D01*
X3569907Y80901792D01*
X3517905Y80867454D01*
X3462788Y80838379D01*
X3405086Y80814846D01*
X3345356Y80797082D01*
X3284172Y80785258D01*
X3222123Y80779488D01*
X3159808Y80779828D01*
X3097827Y80786274D01*
X3036775Y80798765D01*
X2977242Y80817179D01*
X1783833Y81251544D01*
X1726392Y81275705D01*
X1671595Y81305380D01*
X1619971Y81340283D01*
X1572016Y81380078D01*
X1528193Y81424381D01*
X1488924Y81472767D01*
X1454586Y81524769D01*
X1425511Y81579886D01*
X1401978Y81637588D01*
X1384214Y81697318D01*
X1372390Y81758502D01*
X1366620Y81820551D01*
X1366960Y81882866D01*
X1373406Y81944847D01*
X1385897Y82005899D01*
X1404311Y82065432D01*
X4444870Y90419299D01*
X4469031Y90476740D01*
X4498706Y90531537D01*
X4533609Y90583161D01*
X4573404Y90631116D01*
X4617708Y90674939D01*
X4666093Y90714208D01*
X4718095Y90748546D01*
X4773212Y90777621D01*
X4830914Y90801154D01*
X4890644Y90818918D01*
X4951828Y90830742D01*
X5013877Y90836512D01*
X5076192Y90836172D01*
X5076192Y90836172D01*
G37*
D13*
X4118000Y85808000D03*
D12*
G36*
X9895241Y90884942D02*
X9956882Y90875799D01*
X10017331Y90860657D01*
X10076004Y90839664D01*
X10132337Y90813020D01*
X10185787Y90780983D01*
X10235840Y90743862D01*
X10282013Y90702013D01*
X10323862Y90655840D01*
X10360983Y90605787D01*
X10393020Y90552337D01*
X10419664Y90496004D01*
X10440657Y90437331D01*
X10455799Y90376882D01*
X10464942Y90315241D01*
X10468000Y90253000D01*
X10468000Y81363000D01*
X10464942Y81300759D01*
X10455799Y81239118D01*
X10440657Y81178669D01*
X10419664Y81119996D01*
X10393020Y81063663D01*
X10360983Y81010213D01*
X10323862Y80960160D01*
X10282013Y80913987D01*
X10235840Y80872138D01*
X10185787Y80835017D01*
X10132337Y80802980D01*
X10076004Y80776336D01*
X10017331Y80755343D01*
X9956882Y80740201D01*
X9895241Y80731058D01*
X9833000Y80728000D01*
X8563000Y80728000D01*
X8500759Y80731058D01*
X8439118Y80740201D01*
X8378669Y80755343D01*
X8319996Y80776336D01*
X8263663Y80802980D01*
X8210213Y80835017D01*
X8160160Y80872138D01*
X8113987Y80913987D01*
X8072138Y80960160D01*
X8035017Y81010213D01*
X8002980Y81063663D01*
X7976336Y81119996D01*
X7955343Y81178669D01*
X7940201Y81239118D01*
X7931058Y81300759D01*
X7928000Y81363000D01*
X7928000Y90253000D01*
X7931058Y90315241D01*
X7940201Y90376882D01*
X7955343Y90437331D01*
X7976336Y90496004D01*
X8002980Y90552337D01*
X8035017Y90605787D01*
X8072138Y90655840D01*
X8113987Y90702013D01*
X8160160Y90743862D01*
X8210213Y90780983D01*
X8263663Y90813020D01*
X8319996Y90839664D01*
X8378669Y90860657D01*
X8439118Y90875799D01*
X8500759Y90884942D01*
X8563000Y90888000D01*
X9833000Y90888000D01*
X9895241Y90884942D01*
X9895241Y90884942D01*
G37*
D13*
X9198000Y85808000D03*
D12*
G36*
X13444172Y90830742D02*
X13505356Y90818918D01*
X13565086Y90801154D01*
X13622788Y90777621D01*
X13677905Y90748546D01*
X13729907Y90714208D01*
X13778293Y90674939D01*
X13822596Y90631116D01*
X13862391Y90583161D01*
X13897294Y90531537D01*
X13926969Y90476740D01*
X13951130Y90419299D01*
X16991689Y82065432D01*
X17010103Y82005899D01*
X17022594Y81944847D01*
X17029040Y81882866D01*
X17029380Y81820551D01*
X17023610Y81758502D01*
X17011786Y81697318D01*
X16994022Y81637588D01*
X16970489Y81579886D01*
X16941414Y81524769D01*
X16907076Y81472767D01*
X16867807Y81424382D01*
X16823984Y81380078D01*
X16776029Y81340283D01*
X16724405Y81305380D01*
X16669608Y81275705D01*
X16612167Y81251544D01*
X15418758Y80817179D01*
X15359225Y80798765D01*
X15298173Y80786274D01*
X15236192Y80779828D01*
X15173877Y80779488D01*
X15111828Y80785258D01*
X15050644Y80797082D01*
X14990914Y80814846D01*
X14933212Y80838379D01*
X14878095Y80867454D01*
X14826093Y80901792D01*
X14777707Y80941061D01*
X14733404Y80984884D01*
X14693609Y81032839D01*
X14658706Y81084463D01*
X14629031Y81139260D01*
X14604870Y81196701D01*
X11564311Y89550568D01*
X11545897Y89610101D01*
X11533406Y89671153D01*
X11526960Y89733134D01*
X11526620Y89795449D01*
X11532390Y89857498D01*
X11544214Y89918682D01*
X11561978Y89978412D01*
X11585511Y90036114D01*
X11614586Y90091231D01*
X11648924Y90143233D01*
X11688193Y90191618D01*
X11732016Y90235922D01*
X11779971Y90275717D01*
X11831595Y90310620D01*
X11886392Y90340295D01*
X11943833Y90364456D01*
X13137242Y90798821D01*
X13196775Y90817235D01*
X13257827Y90829726D01*
X13319808Y90836172D01*
X13382123Y90836512D01*
X13444172Y90830742D01*
X13444172Y90830742D01*
G37*
D13*
X14278000Y85808000D03*
D14*
X17844000Y73121000D03*
X17844000Y70581000D03*
X17844000Y68041000D03*
X17844000Y65501000D03*
X15304000Y65501000D03*
X15304000Y68041000D03*
X15304000Y70581000D03*
X15304000Y73121000D03*
D15*
X28248000Y80220000D03*
D16*
X28248000Y78320000D03*
D14*
X10224000Y2636000D03*
X10224000Y15336000D03*
X10224000Y33116000D03*
X10224000Y43276000D03*
X10224000Y5176000D03*
X10224000Y28036000D03*
X10224000Y10256000D03*
X10224000Y12796000D03*
X10224000Y7716000D03*
X10224000Y30576000D03*
X10224000Y25496000D03*
X10224000Y38196000D03*
X10224000Y17876000D03*
X10224000Y45816000D03*
X10224000Y40736000D03*
X10224000Y35656000D03*
X10224000Y48356000D03*
X10224000Y22956000D03*
X10224000Y50896000D03*
X10224000Y20416000D03*
X25464000Y2636000D03*
X25464000Y5176000D03*
X25464000Y7716000D03*
X25464000Y10256000D03*
X25464000Y12796000D03*
X25464000Y20416000D03*
X25464000Y15336000D03*
X25464000Y17876000D03*
X25464000Y22956000D03*
X25464000Y25496000D03*
X25464000Y28036000D03*
X25464000Y33116000D03*
X25464000Y30576000D03*
X25464000Y35656000D03*
X25464000Y38196000D03*
X25464000Y45816000D03*
X25464000Y40736000D03*
X25464000Y43276000D03*
X25464000Y48356000D03*
X25464000Y50896000D03*
D13*
X22914000Y93174000D03*
X22714000Y83174000D03*
X19714000Y88174000D03*
D17*
X39424000Y79204000D03*
X39424000Y81704000D03*
X5769000Y59646000D03*
X8269000Y59646000D03*
X8309000Y55836000D03*
X5809000Y55836000D03*
D18*
X4054000Y3956000D03*
X25054000Y69956000D03*
X46054000Y3956000D03*
D19*
X4626000Y36024000D03*
D20*
X2086000Y36024000D03*
X4626000Y38564000D03*
X2086000Y38564000D03*
D19*
X4626000Y10116000D03*
D20*
X2086000Y10116000D03*
X4626000Y12656000D03*
X2086000Y12656000D03*
X4626000Y15196000D03*
X2086000Y15196000D03*
X4626000Y17736000D03*
X2086000Y17736000D03*
X4626000Y20276000D03*
X2086000Y20276000D03*
X4626000Y22816000D03*
X2086000Y22816000D03*
X4626000Y25356000D03*
X2086000Y25356000D03*
X4626000Y27896000D03*
X2086000Y27896000D03*
X4626000Y30436000D03*
X2086000Y30436000D03*
X22914000Y57360000D03*
D19*
X22914000Y59900000D03*
X2054000Y57106000D03*
D20*
X2054000Y54566000D03*
X2054000Y52026000D03*
X2054000Y49486000D03*
X2054000Y46946000D03*
X2054000Y44406000D03*
D19*
X8944000Y67266000D03*
D20*
X8944000Y69806000D03*
X1959000Y75521000D03*
X1959000Y72981000D03*
X1959000Y70441000D03*
X1959000Y67901000D03*
X1959000Y65361000D03*
D19*
X1959000Y62821000D03*
D21*
X38154000Y55201000D03*
X35614000Y55201000D03*
D22*
X33074000Y55201000D03*
X33074000Y46311000D03*
D21*
X35614000Y46311000D03*
X38154000Y46311000D03*
D22*
X33074000Y41231000D03*
D21*
X35614000Y41231000D03*
X38154000Y41231000D03*
X38154000Y32341000D03*
X35614000Y32341000D03*
D22*
X33074000Y32341000D03*
D21*
X38154000Y27261000D03*
X35614000Y27261000D03*
D22*
X33074000Y27261000D03*
X33074000Y18371000D03*
D21*
X35614000Y18371000D03*
X38154000Y18371000D03*
X38154000Y13291000D03*
X35614000Y13291000D03*
D22*
X33074000Y13291000D03*
D21*
X38154000Y74251000D03*
X35614000Y74251000D03*
D22*
X33074000Y74251000D03*
X33074000Y69171000D03*
D21*
X35614000Y69171000D03*
X38154000Y69171000D03*
D22*
X33074000Y60281000D03*
D21*
X35614000Y60281000D03*
X38154000Y60281000D03*
D15*
X31804000Y65361000D03*
D16*
X33704000Y65361000D03*
X38784000Y51391000D03*
D15*
X36884000Y51391000D03*
X31804000Y51391000D03*
D16*
X33704000Y51391000D03*
X38784000Y37421000D03*
D15*
X36884000Y37421000D03*
X31804000Y37421000D03*
D16*
X33704000Y37421000D03*
X38784000Y23451000D03*
D15*
X36884000Y23451000D03*
D16*
X33704000Y23451000D03*
D15*
X31804000Y23451000D03*
X26978000Y62948000D03*
D16*
X28878000Y62948000D03*
D15*
X27110000Y57868000D03*
D16*
X29010000Y57868000D03*
X38784000Y65361000D03*
D15*
X36884000Y65361000D03*
D16*
X27994000Y83776000D03*
D15*
X27994000Y85676000D03*
D23*
X32054000Y5456000D03*
X32054000Y9956000D03*
X38554000Y5456000D03*
X38554000Y9956000D03*
D22*
X12754000Y57106000D03*
D21*
X15294000Y57106000D03*
X17834000Y57106000D03*
D14*
X21644000Y7576000D03*
X19104000Y7576000D03*
X16564000Y7576000D03*
X14024000Y7576000D03*
X14024000Y50756000D03*
X16564000Y50756000D03*
X19104000Y50756000D03*
X21644000Y50756000D03*
D13*
X44758000Y14688000D03*
X44758000Y19768000D03*
X44758000Y24848000D03*
X44758000Y29928000D03*
X44758000Y35008000D03*
X44758000Y40088000D03*
X44758000Y45168000D03*
X44758000Y50248000D03*
X44758000Y55328000D03*
X44758000Y60408000D03*
X44758000Y65488000D03*
X44758000Y70568000D03*
X44758000Y75648000D03*
X44758000Y80728000D03*
X26978000Y94698000D03*
X32058000Y94698000D03*
X37138000Y94698000D03*
X42218000Y94698000D03*
X47298000Y94698000D03*
D14*
X67882000Y73121000D03*
X67882000Y70581000D03*
X67882000Y68041000D03*
X67882000Y65501000D03*
X65342000Y65501000D03*
X65342000Y68041000D03*
X65342000Y70581000D03*
X65342000Y73121000D03*
D15*
X78286000Y80220000D03*
D16*
X78286000Y78320000D03*
D14*
X60262000Y2636000D03*
X60262000Y15336000D03*
X60262000Y33116000D03*
X60262000Y43276000D03*
X60262000Y5176000D03*
X60262000Y28036000D03*
X60262000Y10256000D03*
X60262000Y12796000D03*
X60262000Y7716000D03*
X60262000Y30576000D03*
X60262000Y25496000D03*
X60262000Y38196000D03*
X60262000Y17876000D03*
X60262000Y45816000D03*
X60262000Y40736000D03*
X60262000Y35656000D03*
X60262000Y48356000D03*
X60262000Y22956000D03*
X60262000Y50896000D03*
X60262000Y20416000D03*
X75502000Y2636000D03*
X75502000Y5176000D03*
X75502000Y7716000D03*
X75502000Y10256000D03*
X75502000Y12796000D03*
X75502000Y20416000D03*
X75502000Y15336000D03*
X75502000Y17876000D03*
X75502000Y22956000D03*
X75502000Y25496000D03*
X75502000Y28036000D03*
X75502000Y33116000D03*
X75502000Y30576000D03*
X75502000Y35656000D03*
X75502000Y38196000D03*
X75502000Y45816000D03*
X75502000Y40736000D03*
X75502000Y43276000D03*
X75502000Y48356000D03*
X75502000Y50896000D03*
D13*
X72952000Y93174000D03*
X72752000Y83174000D03*
X69752000Y88174000D03*
D17*
X89462000Y79204000D03*
X89462000Y81704000D03*
X55807000Y59646000D03*
X58307000Y59646000D03*
X58347000Y55836000D03*
X55847000Y55836000D03*
D18*
X54092000Y3956000D03*
X75092000Y69956000D03*
X96092000Y3956000D03*
D19*
X54664000Y36024000D03*
D20*
X52124000Y36024000D03*
X54664000Y38564000D03*
X52124000Y38564000D03*
D19*
X54664000Y10116000D03*
D20*
X52124000Y10116000D03*
X54664000Y12656000D03*
X52124000Y12656000D03*
X54664000Y15196000D03*
X52124000Y15196000D03*
X54664000Y17736000D03*
X52124000Y17736000D03*
X54664000Y20276000D03*
X52124000Y20276000D03*
X54664000Y22816000D03*
X52124000Y22816000D03*
X54664000Y25356000D03*
X52124000Y25356000D03*
X54664000Y27896000D03*
X52124000Y27896000D03*
X54664000Y30436000D03*
X52124000Y30436000D03*
X72952000Y57360000D03*
D19*
X72952000Y59900000D03*
X52092000Y57106000D03*
D20*
X52092000Y54566000D03*
X52092000Y52026000D03*
X52092000Y49486000D03*
X52092000Y46946000D03*
X52092000Y44406000D03*
D19*
X58982000Y67266000D03*
D20*
X58982000Y69806000D03*
X51997000Y75521000D03*
X51997000Y72981000D03*
X51997000Y70441000D03*
X51997000Y67901000D03*
X51997000Y65361000D03*
D19*
X51997000Y62821000D03*
D21*
X88192000Y55201000D03*
X85652000Y55201000D03*
D22*
X83112000Y55201000D03*
X83112000Y46311000D03*
D21*
X85652000Y46311000D03*
X88192000Y46311000D03*
D22*
X83112000Y41231000D03*
D21*
X85652000Y41231000D03*
X88192000Y41231000D03*
X88192000Y32341000D03*
X85652000Y32341000D03*
D22*
X83112000Y32341000D03*
D21*
X88192000Y27261000D03*
X85652000Y27261000D03*
D22*
X83112000Y27261000D03*
X83112000Y18371000D03*
D21*
X85652000Y18371000D03*
X88192000Y18371000D03*
X88192000Y13291000D03*
X85652000Y13291000D03*
D22*
X83112000Y13291000D03*
D21*
X88192000Y74251000D03*
X85652000Y74251000D03*
D22*
X83112000Y74251000D03*
X83112000Y69171000D03*
D21*
X85652000Y69171000D03*
X88192000Y69171000D03*
D22*
X83112000Y60281000D03*
D21*
X85652000Y60281000D03*
X88192000Y60281000D03*
D15*
X81842000Y65361000D03*
D16*
X83742000Y65361000D03*
X88822000Y51391000D03*
D15*
X86922000Y51391000D03*
X81842000Y51391000D03*
D16*
X83742000Y51391000D03*
X88822000Y37421000D03*
D15*
X86922000Y37421000D03*
X81842000Y37421000D03*
D16*
X83742000Y37421000D03*
X88822000Y23451000D03*
D15*
X86922000Y23451000D03*
D16*
X83742000Y23451000D03*
D15*
X81842000Y23451000D03*
X77016000Y62948000D03*
D16*
X78916000Y62948000D03*
D15*
X77148000Y57868000D03*
D16*
X79048000Y57868000D03*
X88822000Y65361000D03*
D15*
X86922000Y65361000D03*
D16*
X78032000Y83776000D03*
D15*
X78032000Y85676000D03*
D23*
X82092000Y5456000D03*
X82092000Y9956000D03*
X88592000Y5456000D03*
X88592000Y9956000D03*
D22*
X62792000Y57106000D03*
D21*
X65332000Y57106000D03*
X67872000Y57106000D03*
D14*
X71682000Y7576000D03*
X69142000Y7576000D03*
X66602000Y7576000D03*
X64062000Y7576000D03*
X64062000Y50756000D03*
X66602000Y50756000D03*
X69142000Y50756000D03*
X71682000Y50756000D03*
D13*
X94796000Y14688000D03*
X94796000Y19768000D03*
X94796000Y24848000D03*
X94796000Y29928000D03*
X94796000Y35008000D03*
X94796000Y40088000D03*
X94796000Y45168000D03*
X94796000Y50248000D03*
X94796000Y55328000D03*
X94796000Y60408000D03*
X94796000Y65488000D03*
X94796000Y70568000D03*
X94796000Y75648000D03*
X94796000Y80728000D03*
X77016000Y94698000D03*
X82096000Y94698000D03*
X87176000Y94698000D03*
X92256000Y94698000D03*
X97336000Y94698000D03*
D24*
X8406456Y64182766D03*
X58444456Y64182766D03*
X22152000Y78188000D03*
X32058000Y94698000D03*
X12246000Y81744000D03*
X72190000Y78188000D03*
X82096000Y94698000D03*
X62284000Y81744000D03*
X32058000Y81744000D03*
X32058000Y84284000D03*
X19993999Y84428397D03*
X82096000Y81744000D03*
X82096000Y84284000D03*
X70031999Y84428397D03*
X5134000Y43136000D03*
X55172000Y43136000D03*
X5134000Y45676000D03*
X55172000Y45676000D03*
X7674000Y28912000D03*
X14786000Y28404000D03*
X6658000Y15486990D03*
X23639010Y33992000D03*
X57712000Y28912000D03*
X64824000Y28404000D03*
X56696000Y15486990D03*
X73677010Y33992000D03*
X16310000Y26880000D03*
X21390000Y27388000D03*
X23256010Y42283043D03*
X24358148Y40650446D03*
X66348000Y26880000D03*
X71428000Y27388000D03*
X73294010Y42283043D03*
X74396148Y40650446D03*
X7674000Y19768000D03*
X12246000Y19768000D03*
X14786000Y20784000D03*
X22914000Y18752000D03*
X27486000Y24340000D03*
X57712000Y19768000D03*
X62284000Y19768000D03*
X64824000Y20784000D03*
X72952000Y18752000D03*
X77524000Y24340000D03*
X11738000Y64472000D03*
X4626000Y57360000D03*
X3102000Y33484000D03*
X17907172Y30499852D03*
X61776000Y64472000D03*
X54664000Y57360000D03*
X53140000Y33484000D03*
X67945172Y30499852D03*
X8526313Y27706688D03*
X7040362Y26932720D03*
X14019340Y25614660D03*
X12039813Y72946732D03*
X12246000Y70346699D03*
X13390394Y75928157D03*
X58564313Y27706688D03*
X57078362Y26932720D03*
X64057340Y25614660D03*
X62077813Y72946732D03*
X62284000Y70346699D03*
X63428394Y75928157D03*
X7406446Y64181010D03*
X20374000Y61424000D03*
X11738000Y67012000D03*
X23676000Y52534000D03*
X57444446Y64181010D03*
X70412000Y61424000D03*
X61776000Y67012000D03*
X73714000Y52534000D03*
X5138660Y51268660D03*
X55176660Y51268660D03*
X5134000Y50248000D03*
X8182000Y49232000D03*
X55172000Y50248000D03*
X58220000Y49232000D03*
X5129340Y49227340D03*
X55167340Y49227340D03*
X7674000Y46692000D03*
X5134000Y46692000D03*
X12246000Y4020000D03*
X57712000Y46692000D03*
X55172000Y46692000D03*
X62284000Y4020000D03*
X12246000Y53804000D03*
X62284000Y53804000D03*
X29081659Y49160341D03*
X29298943Y38100263D03*
X79119659Y49160341D03*
X79336943Y38100263D03*
X28502000Y12656000D03*
X78540000Y12656000D03*
X15298660Y24335340D03*
X23639010Y25737605D03*
X31143032Y34590153D03*
X65336660Y24335340D03*
X73677010Y25737605D03*
X81181032Y34590153D03*
X20882000Y18752000D03*
X15802000Y17736000D03*
X70920000Y18752000D03*
X65840000Y17736000D03*
X38662000Y7576000D03*
X32058000Y7576000D03*
X12754000Y6052000D03*
X15802000Y15196000D03*
X88700000Y7576000D03*
X82096000Y7576000D03*
X62792000Y6052000D03*
X65840000Y15196000D03*
X13262000Y12656000D03*
X22914000Y9608000D03*
X63300000Y12656000D03*
X72952000Y9608000D03*
X23930000Y54312000D03*
X16802175Y53973990D03*
X73968000Y54312000D03*
X66840175Y53973990D03*
X16818000Y44152000D03*
X28497672Y51201396D03*
X21555990Y46440536D03*
X66856000Y44152000D03*
X78535672Y51201396D03*
X71593990Y46440536D03*
X16818000Y32976000D03*
X27906639Y47708000D03*
X27085474Y41046202D03*
X66856000Y32976000D03*
X77944639Y47708000D03*
X77123474Y41046202D03*
X27486000Y75140000D03*
X29518000Y36024000D03*
X77524000Y75140000D03*
X79556000Y36024000D03*
X31550000Y77426000D03*
X30604011Y71584000D03*
X81588000Y77426000D03*
X80642011Y71584000D03*
X17834000Y20784000D03*
X5439834Y73161441D03*
X17076660Y74373340D03*
X67872000Y20784000D03*
X55477834Y73161441D03*
X67114660Y74373340D03*
X26719340Y32218659D03*
X76757340Y32218659D03*
X19358000Y38056000D03*
X69396000Y38056000D03*
X40694000Y58884000D03*
X29518000Y53804000D03*
X26216000Y53550000D03*
X21125947Y47531957D03*
X90732000Y58884000D03*
X79556000Y53804000D03*
X76254000Y53550000D03*
X71163947Y47531957D03*
X40440000Y45676000D03*
X30280000Y44152000D03*
X28756000Y39834000D03*
X22406000Y39580000D03*
X90478000Y45676000D03*
X80318000Y44152000D03*
X78794000Y39834000D03*
X72444000Y39580000D03*
X19104000Y75394000D03*
X30578890Y79532816D03*
X8436000Y75633981D03*
X69142000Y75394000D03*
X80616890Y79532816D03*
X58474000Y75633981D03*
X28502000Y88348000D03*
X19866000Y97746000D03*
X78540000Y88348000D03*
X69904000Y97746000D03*
D25*
X7006001Y54113999D02*
X7006001Y62216626D01*
X8406456Y63617081D02*
X8406456Y64182766D01*
X7006001Y62216626D02*
X8406456Y63617081D01*
X10224000Y50896000D02*
X7006001Y54113999D01*
X57044001Y54113999D02*
X57044001Y62216626D01*
X58444456Y63617081D02*
X58444456Y64182766D01*
X57044001Y62216626D02*
X58444456Y63617081D01*
X60262000Y50896000D02*
X57044001Y54113999D01*
D26*
X15294000Y65491000D02*
X15304000Y65501000D01*
X15294000Y57106000D02*
X15294000Y65491000D01*
X26593999Y89233999D02*
X30788001Y93428001D01*
X30788001Y93428001D02*
X32058000Y94698000D01*
X26593999Y86959742D02*
X26593999Y89233999D01*
X26143988Y86509731D02*
X26593999Y86959742D01*
X26143988Y82179988D02*
X26143988Y86509731D01*
X22152000Y78188000D02*
X26143988Y82179988D01*
D27*
X19714000Y93996598D02*
X19714000Y89970051D01*
X19714000Y89970051D02*
X19714000Y88174000D01*
X23135403Y97418001D02*
X19714000Y93996598D01*
X32058000Y94698000D02*
X29337999Y97418001D01*
X29337999Y97418001D02*
X23135403Y97418001D01*
X12246000Y81744000D02*
X13008000Y81744000D01*
X13008000Y84538000D02*
X14278000Y85808000D01*
X13008000Y81744000D02*
X13008000Y84538000D01*
X16644000Y88174000D02*
X14278000Y85808000D01*
X19714000Y88174000D02*
X16644000Y88174000D01*
D26*
X65332000Y65491000D02*
X65342000Y65501000D01*
X65332000Y57106000D02*
X65332000Y65491000D01*
X76631999Y89233999D02*
X80826001Y93428001D01*
X80826001Y93428001D02*
X82096000Y94698000D01*
X76631999Y86959742D02*
X76631999Y89233999D01*
X76181988Y86509731D02*
X76631999Y86959742D01*
X76181988Y82179988D02*
X76181988Y86509731D01*
X72190000Y78188000D02*
X76181988Y82179988D01*
D27*
X69752000Y93996598D02*
X69752000Y89970051D01*
X69752000Y89970051D02*
X69752000Y88174000D01*
X73173403Y97418001D02*
X69752000Y93996598D01*
X82096000Y94698000D02*
X79375999Y97418001D01*
X79375999Y97418001D02*
X73173403Y97418001D01*
X62284000Y81744000D02*
X63046000Y81744000D01*
X63046000Y84538000D02*
X64316000Y85808000D01*
X63046000Y81744000D02*
X63046000Y84538000D01*
X66682000Y88174000D02*
X64316000Y85808000D01*
X69752000Y88174000D02*
X66682000Y88174000D01*
D28*
X12754000Y56907945D02*
X12754000Y57106000D01*
X62792000Y56907945D02*
X62792000Y57106000D01*
D25*
X25464000Y45458001D02*
X25464000Y45816000D01*
D29*
X17834000Y57153500D02*
X17834000Y57106000D01*
D26*
X32058000Y81744000D02*
X32058000Y84284000D01*
D27*
X26978000Y92375732D02*
X26978000Y92901949D01*
X26978000Y92901949D02*
X26978000Y94698000D01*
X24643989Y90041721D02*
X26978000Y92375732D01*
X24643988Y89078386D02*
X24643989Y90041721D01*
D29*
X13594161Y52953998D02*
X11191002Y52953998D01*
X9108999Y55036001D02*
X8309000Y55836000D01*
X17834000Y57106000D02*
X17746163Y57106000D01*
X11191002Y52953998D02*
X9108999Y55036001D01*
X17746163Y57106000D02*
X13594161Y52953998D01*
D27*
X24643989Y89078387D02*
X24643989Y90041721D01*
X19993999Y84428397D02*
X24643989Y89078387D01*
X19993999Y83862712D02*
X19993999Y84428397D01*
X19993999Y79331999D02*
X19993999Y83862712D01*
X4118000Y81994769D02*
X7068779Y79043990D01*
X7068779Y79043990D02*
X7072010Y79043990D01*
X4118000Y85808000D02*
X4118000Y81994769D01*
X7072010Y79043990D02*
X7674000Y78442000D01*
X7674000Y78442000D02*
X19104000Y78442000D01*
X19104000Y78442000D02*
X19993999Y79331999D01*
D25*
X75502000Y45458001D02*
X75502000Y45816000D01*
D29*
X67872000Y57153500D02*
X67872000Y57106000D01*
D26*
X82096000Y81744000D02*
X82096000Y84284000D01*
D27*
X77016000Y92375732D02*
X77016000Y92901949D01*
X77016000Y92901949D02*
X77016000Y94698000D01*
X74681989Y90041721D02*
X77016000Y92375732D01*
X74681988Y89078386D02*
X74681989Y90041721D01*
D29*
X63632161Y52953998D02*
X61229002Y52953998D01*
X59146999Y55036001D02*
X58347000Y55836000D01*
X67872000Y57106000D02*
X67784163Y57106000D01*
X61229002Y52953998D02*
X59146999Y55036001D01*
X67784163Y57106000D02*
X63632161Y52953998D01*
D27*
X74681989Y89078387D02*
X74681989Y90041721D01*
X70031999Y84428397D02*
X74681989Y89078387D01*
X70031999Y83862712D02*
X70031999Y84428397D01*
X70031999Y79331999D02*
X70031999Y83862712D01*
X54156000Y81994769D02*
X57106779Y79043990D01*
X57106779Y79043990D02*
X57110010Y79043990D01*
X54156000Y85808000D02*
X54156000Y81994769D01*
X57110010Y79043990D02*
X57712000Y78442000D01*
X57712000Y78442000D02*
X69142000Y78442000D01*
X69142000Y78442000D02*
X70031999Y79331999D01*
D28*
X43998000Y19768000D02*
X44758000Y19768000D01*
X40650990Y16420990D02*
X43998000Y19768000D01*
X35614000Y13489055D02*
X38545935Y16420990D01*
X38545935Y16420990D02*
X40650990Y16420990D01*
X35614000Y13291000D02*
X35614000Y13489055D01*
X94036000Y19768000D02*
X94796000Y19768000D01*
X90688990Y16420990D02*
X94036000Y19768000D01*
X85652000Y13489055D02*
X88583935Y16420990D01*
X88583935Y16420990D02*
X90688990Y16420990D01*
X85652000Y13291000D02*
X85652000Y13489055D01*
X43998000Y24848000D02*
X44758000Y24848000D01*
X40950999Y21800999D02*
X43998000Y24848000D01*
X38845944Y21800999D02*
X40950999Y21800999D01*
X35614000Y18569055D02*
X38845944Y21800999D01*
X35614000Y18371000D02*
X35614000Y18569055D01*
X94036000Y24848000D02*
X94796000Y24848000D01*
X90988999Y21800999D02*
X94036000Y24848000D01*
X88883944Y21800999D02*
X90988999Y21800999D01*
X85652000Y18569055D02*
X88883944Y21800999D01*
X85652000Y18371000D02*
X85652000Y18569055D01*
X41458000Y29928000D02*
X44758000Y29928000D01*
X38082945Y29928000D02*
X41458000Y29928000D01*
X35614000Y27459055D02*
X38082945Y29928000D01*
X35614000Y27261000D02*
X35614000Y27459055D01*
X91496000Y29928000D02*
X94796000Y29928000D01*
X88120945Y29928000D02*
X91496000Y29928000D01*
X85652000Y27459055D02*
X88120945Y29928000D01*
X85652000Y27261000D02*
X85652000Y27459055D01*
X41458000Y35008000D02*
X44758000Y35008000D01*
X38082945Y35008000D02*
X41458000Y35008000D01*
X35614000Y32539055D02*
X38082945Y35008000D01*
X35614000Y32341000D02*
X35614000Y32539055D01*
X91496000Y35008000D02*
X94796000Y35008000D01*
X88120945Y35008000D02*
X91496000Y35008000D01*
X85652000Y32539055D02*
X88120945Y35008000D01*
X85652000Y32341000D02*
X85652000Y32539055D01*
D30*
X40718000Y84768000D02*
X44758000Y80728000D01*
X40718000Y91118000D02*
X37138000Y94698000D01*
X40718000Y84768000D02*
X40718000Y91118000D01*
D26*
X32650002Y77150004D02*
X40267998Y84768000D01*
X30640001Y76748001D02*
X31570003Y75817999D01*
X31570003Y75817999D02*
X32650002Y76897998D01*
X24215496Y76748001D02*
X30640001Y76748001D01*
X40267998Y84768000D02*
X40718000Y84768000D01*
X32650002Y76897998D02*
X32650002Y77150004D01*
X20603999Y73136504D02*
X24215496Y76748001D01*
X22914000Y61750000D02*
X20603999Y64060001D01*
X20603999Y64060001D02*
X20603999Y73136504D01*
X22914000Y59900000D02*
X22914000Y61750000D01*
D30*
X46027999Y61677999D02*
X44758000Y60408000D01*
X47728001Y63378001D02*
X46027999Y61677999D01*
X47728001Y77757999D02*
X47728001Y63378001D01*
X44758000Y80728000D02*
X47728001Y77757999D01*
X46027999Y41357999D02*
X44758000Y40088000D01*
X47728001Y43058001D02*
X46027999Y41357999D01*
X47728001Y57437999D02*
X47728001Y43058001D01*
X44758000Y60408000D02*
X47728001Y57437999D01*
X90756000Y84768000D02*
X94796000Y80728000D01*
X90756000Y91118000D02*
X87176000Y94698000D01*
X90756000Y84768000D02*
X90756000Y91118000D01*
D26*
X82688002Y77150004D02*
X90305998Y84768000D01*
X80678001Y76748001D02*
X81608003Y75817999D01*
X81608003Y75817999D02*
X82688002Y76897998D01*
X74253496Y76748001D02*
X80678001Y76748001D01*
X90305998Y84768000D02*
X90756000Y84768000D01*
X82688002Y76897998D02*
X82688002Y77150004D01*
X70641999Y73136504D02*
X74253496Y76748001D01*
X72952000Y61750000D02*
X70641999Y64060001D01*
X70641999Y64060001D02*
X70641999Y73136504D01*
X72952000Y59900000D02*
X72952000Y61750000D01*
D30*
X96065999Y61677999D02*
X94796000Y60408000D01*
X97766001Y63378001D02*
X96065999Y61677999D01*
X97766001Y77757999D02*
X97766001Y63378001D01*
X94796000Y80728000D02*
X97766001Y77757999D01*
X96065999Y41357999D02*
X94796000Y40088000D01*
X97766001Y43058001D02*
X96065999Y41357999D01*
X97766001Y57437999D02*
X97766001Y43058001D01*
X94796000Y60408000D02*
X97766001Y57437999D01*
D28*
X43250979Y43660979D02*
X44758000Y45168000D01*
X35614000Y43660979D02*
X43250979Y43660979D01*
X35614000Y41231000D02*
X35614000Y43660979D01*
X93288979Y43660979D02*
X94796000Y45168000D01*
X85652000Y43660979D02*
X93288979Y43660979D01*
X85652000Y41231000D02*
X85652000Y43660979D01*
X41458000Y50248000D02*
X44758000Y50248000D01*
X40950999Y49740999D02*
X41458000Y50248000D01*
X38845944Y49740999D02*
X40950999Y49740999D01*
X35614000Y46509055D02*
X38845944Y49740999D01*
X35614000Y46311000D02*
X35614000Y46509055D01*
X91496000Y50248000D02*
X94796000Y50248000D01*
X90988999Y49740999D02*
X91496000Y50248000D01*
X88883944Y49740999D02*
X90988999Y49740999D01*
X85652000Y46509055D02*
X88883944Y49740999D01*
X85652000Y46311000D02*
X85652000Y46509055D01*
X39634990Y57151010D02*
X41458000Y55328000D01*
X37365955Y57151010D02*
X39634990Y57151010D01*
X35614000Y55399055D02*
X37365955Y57151010D01*
X41458000Y55328000D02*
X44758000Y55328000D01*
X35614000Y55201000D02*
X35614000Y55399055D01*
X89672990Y57151010D02*
X91496000Y55328000D01*
X87403955Y57151010D02*
X89672990Y57151010D01*
X85652000Y55399055D02*
X87403955Y57151010D01*
X91496000Y55328000D02*
X94796000Y55328000D01*
X85652000Y55201000D02*
X85652000Y55399055D01*
X41458000Y65488000D02*
X44758000Y65488000D01*
X39680999Y63710999D02*
X41458000Y65488000D01*
X38845944Y63710999D02*
X39680999Y63710999D01*
X35614000Y60479055D02*
X38845944Y63710999D01*
X35614000Y60281000D02*
X35614000Y60479055D01*
X91496000Y65488000D02*
X94796000Y65488000D01*
X89718999Y63710999D02*
X91496000Y65488000D01*
X88883944Y63710999D02*
X89718999Y63710999D01*
X85652000Y60479055D02*
X88883944Y63710999D01*
X85652000Y60281000D02*
X85652000Y60479055D01*
X41458000Y70568000D02*
X44758000Y70568000D01*
X40904990Y71121010D02*
X41458000Y70568000D01*
X37365955Y71121010D02*
X40904990Y71121010D01*
X35614000Y69369055D02*
X37365955Y71121010D01*
X35614000Y69171000D02*
X35614000Y69369055D01*
X91496000Y70568000D02*
X94796000Y70568000D01*
X90942990Y71121010D02*
X91496000Y70568000D01*
X87403955Y71121010D02*
X90942990Y71121010D01*
X85652000Y69369055D02*
X87403955Y71121010D01*
X85652000Y69171000D02*
X85652000Y69369055D01*
X41458000Y75648000D02*
X44758000Y75648000D01*
X40904990Y76201010D02*
X41458000Y75648000D01*
X37365955Y76201010D02*
X40904990Y76201010D01*
X35614000Y74449055D02*
X37365955Y76201010D01*
X35614000Y74251000D02*
X35614000Y74449055D01*
X91496000Y75648000D02*
X94796000Y75648000D01*
X90942990Y76201010D02*
X91496000Y75648000D01*
X87403955Y76201010D02*
X90942990Y76201010D01*
X85652000Y74449055D02*
X87403955Y76201010D01*
X85652000Y74251000D02*
X85652000Y74449055D01*
D25*
X10084000Y43136000D02*
X10224000Y43276000D01*
X5134000Y43136000D02*
X10084000Y43136000D01*
X60122000Y43136000D02*
X60262000Y43276000D01*
X55172000Y43136000D02*
X60122000Y43136000D01*
X10084000Y45676000D02*
X10224000Y45816000D01*
X5134000Y45676000D02*
X10084000Y45676000D01*
X60122000Y45676000D02*
X60262000Y45816000D01*
X55172000Y45676000D02*
X60122000Y45676000D01*
X15476999Y7054239D02*
X15111001Y7054239D01*
X6150000Y9479589D02*
X6150000Y10877002D01*
X18582239Y6488999D02*
X18016999Y7054239D01*
X21122239Y6488999D02*
X20556999Y7054239D01*
X12405998Y6777002D02*
X12117996Y6489000D01*
X25464000Y7716000D02*
X23392762Y7716000D01*
X3261001Y11291001D02*
X2935999Y10965999D01*
X17651001Y7054239D02*
X17085761Y6488999D01*
X20191001Y7054239D02*
X19625761Y6488999D01*
X13102002Y6777002D02*
X12405998Y6777002D01*
X15111001Y7054239D02*
X14545762Y6489000D01*
X16042239Y6488999D02*
X15476999Y7054239D01*
X12117996Y6489000D02*
X9140589Y6489000D01*
X14545762Y6489000D02*
X13390004Y6489000D01*
X5736001Y11291001D02*
X3261001Y11291001D01*
X6150000Y10877002D02*
X5736001Y11291001D01*
X22165761Y6488999D02*
X21122239Y6488999D01*
X17085761Y6488999D02*
X16042239Y6488999D01*
X13390004Y6489000D02*
X13102002Y6777002D01*
X20556999Y7054239D02*
X20191001Y7054239D01*
X19625761Y6488999D02*
X18582239Y6488999D01*
X2935999Y10965999D02*
X2086000Y10116000D01*
X18016999Y7054239D02*
X17651001Y7054239D01*
X23392762Y7716000D02*
X22165761Y6488999D01*
X9140589Y6489000D02*
X6150000Y9479589D01*
X65514999Y7054239D02*
X65149001Y7054239D01*
X56188000Y9479589D02*
X56188000Y10877002D01*
X68620239Y6488999D02*
X68054999Y7054239D01*
X71160239Y6488999D02*
X70594999Y7054239D01*
X62443998Y6777002D02*
X62155996Y6489000D01*
X75502000Y7716000D02*
X73430762Y7716000D01*
X53299001Y11291001D02*
X52973999Y10965999D01*
X67689001Y7054239D02*
X67123761Y6488999D01*
X70229001Y7054239D02*
X69663761Y6488999D01*
X63140002Y6777002D02*
X62443998Y6777002D01*
X65149001Y7054239D02*
X64583762Y6489000D01*
X66080239Y6488999D02*
X65514999Y7054239D01*
X62155996Y6489000D02*
X59178589Y6489000D01*
X64583762Y6489000D02*
X63428004Y6489000D01*
X55774001Y11291001D02*
X53299001Y11291001D01*
X56188000Y10877002D02*
X55774001Y11291001D01*
X72203761Y6488999D02*
X71160239Y6488999D01*
X67123761Y6488999D02*
X66080239Y6488999D01*
X63428004Y6489000D02*
X63140002Y6777002D01*
X70594999Y7054239D02*
X70229001Y7054239D01*
X69663761Y6488999D02*
X68620239Y6488999D01*
X52973999Y10965999D02*
X52124000Y10116000D01*
X68054999Y7054239D02*
X67689001Y7054239D01*
X73430762Y7716000D02*
X72203761Y6488999D01*
X59178589Y6489000D02*
X56188000Y9479589D01*
X1236001Y14346001D02*
X2086000Y15196000D01*
X910999Y14020999D02*
X1236001Y14346001D01*
X910999Y9551999D02*
X910999Y14020999D01*
X1521999Y8940999D02*
X910999Y9551999D01*
X5100003Y8940999D02*
X1521999Y8940999D01*
X8129001Y5912001D02*
X5100003Y8940999D01*
X8129001Y3122237D02*
X8129001Y5912001D01*
X9702239Y1548999D02*
X8129001Y3122237D01*
X24376999Y1548999D02*
X9702239Y1548999D01*
X25464000Y2636000D02*
X24376999Y1548999D01*
X51274001Y14346001D02*
X52124000Y15196000D01*
X50948999Y14020999D02*
X51274001Y14346001D01*
X50948999Y9551999D02*
X50948999Y14020999D01*
X51559999Y8940999D02*
X50948999Y9551999D01*
X55138003Y8940999D02*
X51559999Y8940999D01*
X58167001Y5912001D02*
X55138003Y8940999D01*
X58167001Y3122237D02*
X58167001Y5912001D01*
X59740239Y1548999D02*
X58167001Y3122237D01*
X74414999Y1548999D02*
X59740239Y1548999D01*
X75502000Y2636000D02*
X74414999Y1548999D01*
X13878001Y29311999D02*
X14786000Y28404000D01*
X8073999Y29311999D02*
X13878001Y29311999D01*
X7674000Y28912000D02*
X8073999Y29311999D01*
X5583991Y16560999D02*
X6258001Y15886989D01*
X6258001Y15886989D02*
X6658000Y15486990D01*
X2086000Y17736000D02*
X3261001Y16560999D01*
X3261001Y16560999D02*
X5583991Y16560999D01*
X25464000Y43276000D02*
X24702001Y42514001D01*
X21680998Y35950012D02*
X23239011Y34391999D01*
X23239011Y34391999D02*
X23639010Y33992000D01*
X21680998Y40014616D02*
X21680998Y35950012D01*
X23790412Y41108030D02*
X22774412Y41108030D01*
X24702001Y42019619D02*
X23790412Y41108030D01*
X24702001Y42514001D02*
X24702001Y42019619D01*
X22774412Y41108030D02*
X21680998Y40014616D01*
X63916001Y29311999D02*
X64824000Y28404000D01*
X58111999Y29311999D02*
X63916001Y29311999D01*
X57712000Y28912000D02*
X58111999Y29311999D01*
X55621991Y16560999D02*
X56296001Y15886989D01*
X56296001Y15886989D02*
X56696000Y15486990D01*
X52124000Y17736000D02*
X53299001Y16560999D01*
X53299001Y16560999D02*
X55621991Y16560999D01*
X75502000Y43276000D02*
X74740001Y42514001D01*
X71718998Y35950012D02*
X73277011Y34391999D01*
X73277011Y34391999D02*
X73677010Y33992000D01*
X71718998Y40014616D02*
X71718998Y35950012D01*
X73828412Y41108030D02*
X72812412Y41108030D01*
X74740001Y42019619D02*
X73828412Y41108030D01*
X74740001Y42514001D02*
X74740001Y42019619D01*
X72812412Y41108030D02*
X71718998Y40014616D01*
X9136999Y18630126D02*
X8942049Y18825076D01*
X8942049Y18825076D02*
X8942049Y23282811D01*
X9702239Y24043001D02*
X10745761Y24043001D01*
X8942049Y23282811D02*
X9702239Y24043001D01*
X5000003Y19100999D02*
X8236977Y15864025D01*
X8236977Y15864025D02*
X8236977Y10634261D01*
X2086000Y20276000D02*
X3261001Y19100999D01*
X9773409Y11343001D02*
X9136999Y11979411D01*
X8236977Y10634261D02*
X9702239Y9168999D01*
X3261001Y19100999D02*
X5000003Y19100999D01*
X9136999Y11979411D02*
X9136999Y18630126D01*
X11311001Y9734239D02*
X11311001Y10777761D01*
X10745761Y9168999D02*
X11311001Y9734239D01*
X10745761Y11343001D02*
X9773409Y11343001D01*
X11311001Y10777761D02*
X10745761Y11343001D01*
X9702239Y9168999D02*
X10745761Y9168999D01*
X10745761Y24043001D02*
X11178423Y23610339D01*
X11178423Y23610339D02*
X15646661Y23610339D01*
X15646661Y23610339D02*
X16310000Y24273678D01*
X16310000Y24273678D02*
X16310000Y26314315D01*
X16310000Y26314315D02*
X16310000Y26880000D01*
X21390000Y27388000D02*
X20716010Y28061990D01*
X22182325Y42283043D02*
X22690325Y42283043D01*
X20716010Y40816728D02*
X22182325Y42283043D01*
X22690325Y42283043D02*
X23256010Y42283043D01*
X20716010Y28061990D02*
X20716010Y40816728D01*
X24386370Y40736000D02*
X24358148Y40707778D01*
X24358148Y40707778D02*
X24358148Y40650446D01*
X25464000Y40736000D02*
X24386370Y40736000D01*
X59174999Y18630126D02*
X58980049Y18825076D01*
X58980049Y18825076D02*
X58980049Y23282811D01*
X59740239Y24043001D02*
X60783761Y24043001D01*
X58980049Y23282811D02*
X59740239Y24043001D01*
X55038003Y19100999D02*
X58274977Y15864025D01*
X58274977Y15864025D02*
X58274977Y10634261D01*
X52124000Y20276000D02*
X53299001Y19100999D01*
X59811409Y11343001D02*
X59174999Y11979411D01*
X58274977Y10634261D02*
X59740239Y9168999D01*
X53299001Y19100999D02*
X55038003Y19100999D01*
X59174999Y11979411D02*
X59174999Y18630126D01*
X61349001Y9734239D02*
X61349001Y10777761D01*
X60783761Y9168999D02*
X61349001Y9734239D01*
X60783761Y11343001D02*
X59811409Y11343001D01*
X61349001Y10777761D02*
X60783761Y11343001D01*
X59740239Y9168999D02*
X60783761Y9168999D01*
X60783761Y24043001D02*
X61216423Y23610339D01*
X61216423Y23610339D02*
X65684661Y23610339D01*
X65684661Y23610339D02*
X66348000Y24273678D01*
X66348000Y24273678D02*
X66348000Y26314315D01*
X66348000Y26314315D02*
X66348000Y26880000D01*
X71428000Y27388000D02*
X70754010Y28061990D01*
X72220325Y42283043D02*
X72728325Y42283043D01*
X70754010Y40816728D02*
X72220325Y42283043D01*
X72728325Y42283043D02*
X73294010Y42283043D01*
X70754010Y28061990D02*
X70754010Y40816728D01*
X74424370Y40736000D02*
X74396148Y40707778D01*
X74396148Y40707778D02*
X74396148Y40650446D01*
X75502000Y40736000D02*
X74424370Y40736000D01*
X5801001Y21640999D02*
X7674000Y19768000D01*
X2086000Y22816000D02*
X3261001Y21640999D01*
X3261001Y21640999D02*
X5801001Y21640999D01*
X12246000Y19768000D02*
X13770000Y19768000D01*
X13770000Y19768000D02*
X14786000Y20784000D01*
X27486000Y23324000D02*
X27486000Y24340000D01*
X25665001Y21503001D02*
X27486000Y23324000D01*
X22914000Y18752000D02*
X22914000Y19474762D01*
X24942239Y21503001D02*
X25665001Y21503001D01*
X22914000Y19474762D02*
X24942239Y21503001D01*
X21230987Y34809013D02*
X24702001Y31337999D01*
X17844000Y70581000D02*
X19111510Y69313490D01*
X23096012Y43008045D02*
X23604012Y43008045D01*
X21230987Y40201016D02*
X21230987Y34809013D01*
X20191001Y57239580D02*
X20191001Y45913056D01*
X19111510Y58319071D02*
X20191001Y57239580D01*
X24702001Y31337999D02*
X25464000Y30576000D01*
X20191001Y45913056D02*
X23096012Y43008045D01*
X22588012Y41558041D02*
X21230987Y40201016D01*
X23604012Y43008045D02*
X23981012Y42631045D01*
X19111510Y69313490D02*
X19111510Y58319071D01*
X23981012Y42631045D02*
X23981012Y41935041D01*
X23604012Y41558041D02*
X22588012Y41558041D01*
X23981012Y41935041D02*
X23604012Y41558041D01*
X55839001Y21640999D02*
X57712000Y19768000D01*
X52124000Y22816000D02*
X53299001Y21640999D01*
X53299001Y21640999D02*
X55839001Y21640999D01*
X62284000Y19768000D02*
X63808000Y19768000D01*
X63808000Y19768000D02*
X64824000Y20784000D01*
X77524000Y23324000D02*
X77524000Y24340000D01*
X75703001Y21503001D02*
X77524000Y23324000D01*
X72952000Y18752000D02*
X72952000Y19474762D01*
X74980239Y21503001D02*
X75703001Y21503001D01*
X72952000Y19474762D02*
X74980239Y21503001D01*
X71268987Y34809013D02*
X74740001Y31337999D01*
X67882000Y70581000D02*
X69149510Y69313490D01*
X73134012Y43008045D02*
X73642012Y43008045D01*
X71268987Y40201016D02*
X71268987Y34809013D01*
X70229001Y57239580D02*
X70229001Y45913056D01*
X69149510Y58319071D02*
X70229001Y57239580D01*
X74740001Y31337999D02*
X75502000Y30576000D01*
X70229001Y45913056D02*
X73134012Y43008045D01*
X72626012Y41558041D02*
X71268987Y40201016D01*
X73642012Y43008045D02*
X74019012Y42631045D01*
X69149510Y69313490D02*
X69149510Y58319071D01*
X74019012Y42631045D02*
X74019012Y41935041D01*
X73642012Y41558041D02*
X72626012Y41558041D01*
X74019012Y41935041D02*
X73642012Y41558041D01*
X15304000Y68526000D02*
X15304000Y68041000D01*
X15304000Y68041000D02*
X11738000Y64475000D01*
X11738000Y64475000D02*
X11738000Y64472000D01*
X3929012Y56663012D02*
X3929012Y49871986D01*
X4626000Y57360000D02*
X3929012Y56663012D01*
X3261001Y39128001D02*
X3261001Y34208686D01*
X3261001Y34208686D02*
X3102000Y34049685D01*
X4226001Y49574997D02*
X4226001Y40093001D01*
X3929012Y49871986D02*
X4226001Y49574997D01*
X3102000Y34049685D02*
X3102000Y33484000D01*
X4226001Y40093001D02*
X3261001Y39128001D01*
X3102000Y33484000D02*
X3821001Y34203001D01*
X17907172Y31065537D02*
X17907172Y30499852D01*
X3821001Y34203001D02*
X16664003Y34203001D01*
X16664003Y34203001D02*
X17907172Y32959832D01*
X17907172Y32959832D02*
X17907172Y31065537D01*
X65342000Y68526000D02*
X65342000Y68041000D01*
X65342000Y68041000D02*
X61776000Y64475000D01*
X61776000Y64475000D02*
X61776000Y64472000D01*
X53967012Y56663012D02*
X53967012Y49871986D01*
X54664000Y57360000D02*
X53967012Y56663012D01*
X53299001Y39128001D02*
X53299001Y34208686D01*
X53299001Y34208686D02*
X53140000Y34049685D01*
X54264001Y49574997D02*
X54264001Y40093001D01*
X53967012Y49871986D02*
X54264001Y49574997D01*
X53140000Y34049685D02*
X53140000Y33484000D01*
X54264001Y40093001D02*
X53299001Y39128001D01*
X53140000Y33484000D02*
X53859001Y34203001D01*
X67945172Y31065537D02*
X67945172Y30499852D01*
X53859001Y34203001D02*
X66702003Y34203001D01*
X66702003Y34203001D02*
X67945172Y32959832D01*
X67945172Y32959832D02*
X67945172Y31065537D01*
X2086000Y27896000D02*
X3449279Y26532721D01*
X6640363Y26532721D02*
X7040362Y26932720D01*
X3449279Y26532721D02*
X6640363Y26532721D01*
X9284002Y26948999D02*
X12685001Y26948999D01*
X13619341Y26014659D02*
X14019340Y25614660D01*
X12685001Y26948999D02*
X13619341Y26014659D01*
X8526313Y27706688D02*
X9284002Y26948999D01*
X12480301Y70581000D02*
X12246000Y70346699D01*
X15304000Y70581000D02*
X12480301Y70581000D01*
X12039813Y74577576D02*
X12990395Y75528158D01*
X12990395Y75528158D02*
X13390394Y75928157D01*
X12039813Y72946732D02*
X12039813Y74577576D01*
X52124000Y27896000D02*
X53487279Y26532721D01*
X56678363Y26532721D02*
X57078362Y26932720D01*
X53487279Y26532721D02*
X56678363Y26532721D01*
X59322002Y26948999D02*
X62723001Y26948999D01*
X63657341Y26014659D02*
X64057340Y25614660D01*
X62723001Y26948999D02*
X63657341Y26014659D01*
X58564313Y27706688D02*
X59322002Y26948999D01*
X62518301Y70581000D02*
X62284000Y70346699D01*
X65342000Y70581000D02*
X62518301Y70581000D01*
X62077813Y74577576D02*
X63028395Y75528158D01*
X63028395Y75528158D02*
X63428394Y75928157D01*
X62077813Y72946732D02*
X62077813Y74577576D01*
X9462001Y11017999D02*
X10224000Y10256000D01*
X8686988Y11793012D02*
X9462001Y11017999D01*
X8686988Y18443726D02*
X8686988Y11793012D01*
X4626000Y30436000D02*
X8492038Y26569962D01*
X8492038Y18638676D02*
X8686988Y18443726D01*
X8492038Y26569962D02*
X8492038Y18638676D01*
X59500001Y11017999D02*
X60262000Y10256000D01*
X58724988Y11793012D02*
X59500001Y11017999D01*
X58724988Y18443726D02*
X58724988Y11793012D01*
X54664000Y30436000D02*
X58530038Y26569962D01*
X58530038Y18638676D02*
X58724988Y18443726D01*
X58530038Y26569962D02*
X58530038Y18638676D01*
X25962000Y51394000D02*
X25464000Y50896000D01*
D29*
X1204001Y43556001D02*
X2054000Y44406000D01*
X785999Y43137999D02*
X1204001Y43556001D01*
X785999Y32938082D02*
X785999Y43137999D01*
X2086000Y31638081D02*
X785999Y32938082D01*
D25*
X21738999Y60059001D02*
X20374000Y61424000D01*
X21738999Y54621001D02*
X21738999Y60059001D01*
X9198000Y67012000D02*
X8944000Y67266000D01*
X11738000Y67012000D02*
X9198000Y67012000D01*
D29*
X3354001Y60128565D02*
X7006447Y63781011D01*
X7006447Y63781011D02*
X7406446Y64181010D01*
X3354001Y45706001D02*
X3354001Y60128565D01*
X2054000Y44406000D02*
X3354001Y45706001D01*
X2086000Y31638081D02*
X2086000Y30436000D01*
X9032002Y32876002D02*
X8590002Y33318002D01*
X9612003Y31788001D02*
X9032002Y32368002D01*
X8590002Y33318002D02*
X4662814Y33318002D01*
X16983998Y14475998D02*
X16983998Y25787994D01*
X10224000Y7716000D02*
X16983998Y14475998D01*
X16983998Y25787994D02*
X17668002Y26471998D01*
X13168003Y31788001D02*
X9612003Y31788001D01*
X17668002Y27288002D02*
X13168003Y31788001D01*
X17668002Y26471998D02*
X17668002Y27288002D01*
X4662814Y33318002D02*
X2982893Y31638081D01*
X2982893Y31638081D02*
X2086000Y31638081D01*
X9032002Y32368002D02*
X9032002Y32876002D01*
X10244001Y69854763D02*
X11585946Y71196709D01*
X11585946Y71196709D02*
X12812392Y71196710D01*
X12812392Y71196710D02*
X14091999Y72476317D01*
X14091999Y72476317D02*
X14091999Y73702761D01*
X14091999Y73702761D02*
X14722239Y74333001D01*
X14722239Y74333001D02*
X15858997Y74333001D01*
X15858997Y74333001D02*
X17070998Y73121000D01*
X17070998Y73121000D02*
X17844000Y73121000D01*
X10244001Y68566001D02*
X10244001Y69854763D01*
X8944000Y67266000D02*
X10244001Y68566001D01*
D25*
X21738999Y54621001D02*
X21738999Y54471001D01*
X21738999Y54471001D02*
X23676000Y52534000D01*
X76000000Y51394000D02*
X75502000Y50896000D01*
D29*
X51242001Y43556001D02*
X52092000Y44406000D01*
X50823999Y43137999D02*
X51242001Y43556001D01*
X50823999Y32938082D02*
X50823999Y43137999D01*
X52124000Y31638081D02*
X50823999Y32938082D01*
D25*
X71776999Y60059001D02*
X70412000Y61424000D01*
X71776999Y54621001D02*
X71776999Y60059001D01*
X59236000Y67012000D02*
X58982000Y67266000D01*
X61776000Y67012000D02*
X59236000Y67012000D01*
D29*
X53392001Y60128565D02*
X57044447Y63781011D01*
X57044447Y63781011D02*
X57444446Y64181010D01*
X53392001Y45706001D02*
X53392001Y60128565D01*
X52092000Y44406000D02*
X53392001Y45706001D01*
X52124000Y31638081D02*
X52124000Y30436000D01*
X59070002Y32876002D02*
X58628002Y33318002D01*
X59650003Y31788001D02*
X59070002Y32368002D01*
X58628002Y33318002D02*
X54700814Y33318002D01*
X67021998Y14475998D02*
X67021998Y25787994D01*
X60262000Y7716000D02*
X67021998Y14475998D01*
X67021998Y25787994D02*
X67706002Y26471998D01*
X63206003Y31788001D02*
X59650003Y31788001D01*
X67706002Y27288002D02*
X63206003Y31788001D01*
X67706002Y26471998D02*
X67706002Y27288002D01*
X54700814Y33318002D02*
X53020893Y31638081D01*
X53020893Y31638081D02*
X52124000Y31638081D01*
X59070002Y32368002D02*
X59070002Y32876002D01*
X60282001Y69854763D02*
X61623946Y71196709D01*
X61623946Y71196709D02*
X62850392Y71196710D01*
X62850392Y71196710D02*
X64129999Y72476317D01*
X64129999Y72476317D02*
X64129999Y73702761D01*
X64129999Y73702761D02*
X64760239Y74333001D01*
X64760239Y74333001D02*
X65896997Y74333001D01*
X65896997Y74333001D02*
X67108998Y73121000D01*
X67108998Y73121000D02*
X67882000Y73121000D01*
X60282001Y68566001D02*
X60282001Y69854763D01*
X58982000Y67266000D02*
X60282001Y68566001D01*
D25*
X71776999Y54621001D02*
X71776999Y54471001D01*
X71776999Y54471001D02*
X73714000Y52534000D01*
X7218344Y51268660D02*
X5704345Y51268660D01*
X10379763Y49808999D02*
X8678005Y49808999D01*
X5704345Y51268660D02*
X5138660Y51268660D01*
X11311001Y48877761D02*
X10379763Y49808999D01*
X11641243Y48877761D02*
X11311001Y48877761D01*
X14495002Y46024002D02*
X11641243Y48877761D01*
X14495002Y45007002D02*
X14495002Y46024002D01*
X10224000Y40736000D02*
X14495002Y45007002D01*
X8678005Y49808999D02*
X7218344Y51268660D01*
X57256344Y51268660D02*
X55742345Y51268660D01*
X60417763Y49808999D02*
X58716005Y49808999D01*
X55742345Y51268660D02*
X55176660Y51268660D01*
X61349001Y48877761D02*
X60417763Y49808999D01*
X61679243Y48877761D02*
X61349001Y48877761D01*
X64533002Y46024002D02*
X61679243Y48877761D01*
X64533002Y45007002D02*
X64533002Y46024002D01*
X60262000Y40736000D02*
X64533002Y45007002D01*
X58716005Y49808999D02*
X57256344Y51268660D01*
X5134000Y50248000D02*
X6150000Y49232000D01*
X6150000Y49232000D02*
X8182000Y49232000D01*
X55172000Y50248000D02*
X56188000Y49232000D01*
X56188000Y49232000D02*
X58220000Y49232000D01*
X9869089Y48710911D02*
X10224000Y48356000D01*
X5529339Y48827341D02*
X5129340Y49227340D01*
X10224000Y48356000D02*
X6000680Y48356000D01*
X6000680Y48356000D02*
X5529339Y48827341D01*
X59907089Y48710911D02*
X60262000Y48356000D01*
X55567339Y48827341D02*
X55167340Y49227340D01*
X60262000Y48356000D02*
X56038680Y48356000D01*
X56038680Y48356000D02*
X55567339Y48827341D01*
X2308000Y47200000D02*
X2054000Y46946000D01*
X7674000Y46692000D02*
X5134000Y46692000D01*
X32054000Y5456000D02*
X30618000Y4020000D01*
X22699238Y4020000D02*
X12246000Y4020000D01*
X30618000Y4020000D02*
X22699238Y4020000D01*
X52346000Y47200000D02*
X52092000Y46946000D01*
X57712000Y46692000D02*
X55172000Y46692000D01*
X82092000Y5456000D02*
X80656000Y4020000D01*
X72737238Y4020000D02*
X62284000Y4020000D01*
X80656000Y4020000D02*
X72737238Y4020000D01*
X2808999Y69279997D02*
X7181229Y64907767D01*
X2808999Y69591001D02*
X2808999Y69279997D01*
X1959000Y70441000D02*
X2808999Y69591001D01*
X7181229Y64907767D02*
X9327235Y64907767D01*
X9923001Y56126999D02*
X11846001Y54203999D01*
X11846001Y54203999D02*
X12246000Y53804000D01*
X9923001Y62091999D02*
X9923001Y56126999D01*
X9327235Y62687765D02*
X9923001Y62091999D01*
X9327235Y64907767D02*
X9327235Y62687765D01*
X19829002Y75742002D02*
X19829002Y73497240D01*
X1959000Y70441000D02*
X2808999Y71290999D01*
X2808999Y71290999D02*
X2808999Y71638378D01*
X2808999Y71638378D02*
X8037610Y76866989D01*
X8037610Y76866989D02*
X18704015Y76866989D01*
X18704015Y76866989D02*
X19829002Y75742002D01*
X16391001Y72033999D02*
X16065999Y72359001D01*
X19829002Y73497240D02*
X18365761Y72033999D01*
X16065999Y72359001D02*
X15304000Y73121000D01*
X18365761Y72033999D02*
X16391001Y72033999D01*
X52846999Y69279997D02*
X57219229Y64907767D01*
X52846999Y69591001D02*
X52846999Y69279997D01*
X51997000Y70441000D02*
X52846999Y69591001D01*
X57219229Y64907767D02*
X59365235Y64907767D01*
X59961001Y56126999D02*
X61884001Y54203999D01*
X61884001Y54203999D02*
X62284000Y53804000D01*
X59961001Y62091999D02*
X59961001Y56126999D01*
X59365235Y62687765D02*
X59961001Y62091999D01*
X59365235Y64907767D02*
X59365235Y62687765D01*
X69867002Y75742002D02*
X69867002Y73497240D01*
X51997000Y70441000D02*
X52846999Y71290999D01*
X52846999Y71290999D02*
X52846999Y71638378D01*
X52846999Y71638378D02*
X58075610Y76866989D01*
X58075610Y76866989D02*
X68742015Y76866989D01*
X68742015Y76866989D02*
X69867002Y75742002D01*
X66429001Y72033999D02*
X66103999Y72359001D01*
X69867002Y73497240D02*
X68403761Y72033999D01*
X66103999Y72359001D02*
X65342000Y73121000D01*
X68403761Y72033999D02*
X66429001Y72033999D01*
X28538998Y53201998D02*
X28538998Y54607174D01*
X28538998Y54607174D02*
X31796499Y57864675D01*
X31796499Y63453499D02*
X33004001Y64661001D01*
X33004001Y64661001D02*
X33704000Y65361000D01*
X33074000Y55153500D02*
X30745498Y52824998D01*
X30745498Y52824998D02*
X28915998Y52824998D01*
X33074000Y55201000D02*
X33074000Y55153500D01*
X28915998Y52824998D02*
X28538998Y53201998D01*
X31796499Y57864675D02*
X31796499Y63453499D01*
X78576998Y53201998D02*
X78576998Y54607174D01*
X78576998Y54607174D02*
X81834499Y57864675D01*
X81834499Y63453499D02*
X83042001Y64661001D01*
X83042001Y64661001D02*
X83742000Y65361000D01*
X83112000Y55153500D02*
X80783498Y52824998D01*
X80783498Y52824998D02*
X78953998Y52824998D01*
X83112000Y55201000D02*
X83112000Y55153500D01*
X78953998Y52824998D02*
X78576998Y53201998D01*
X81834499Y57864675D02*
X81834499Y63453499D01*
X33004001Y50691001D02*
X33704000Y51391000D01*
X33074000Y41278500D02*
X31871500Y42481000D01*
X31871500Y42481000D02*
X30877996Y42481000D01*
X30877996Y42481000D02*
X29554998Y43803998D01*
X29554998Y43803998D02*
X29554998Y44500002D01*
X31796499Y46741503D02*
X31796499Y49483499D01*
X31796499Y49483499D02*
X33004001Y50691001D01*
X29554998Y44500002D02*
X31796499Y46741503D01*
X33074000Y41231000D02*
X33074000Y41278500D01*
X83042001Y50691001D02*
X83742000Y51391000D01*
X83112000Y41278500D02*
X81909500Y42481000D01*
X81909500Y42481000D02*
X80915996Y42481000D01*
X80915996Y42481000D02*
X79592998Y43803998D01*
X79592998Y43803998D02*
X79592998Y44500002D01*
X81834499Y46741503D02*
X81834499Y49483499D01*
X81834499Y49483499D02*
X83042001Y50691001D01*
X79592998Y44500002D02*
X81834499Y46741503D01*
X83112000Y41231000D02*
X83112000Y41278500D01*
X31796499Y29788501D02*
X31796499Y34170616D01*
X33074000Y27261000D02*
X33074000Y28511000D01*
X33074000Y28511000D02*
X31796499Y29788501D01*
X31796499Y34170616D02*
X33704000Y36078117D01*
X33704000Y36431051D02*
X33704000Y37421000D01*
X33704000Y36078117D02*
X33704000Y36431051D01*
X81834499Y29788501D02*
X81834499Y34170616D01*
X83112000Y27261000D02*
X83112000Y28511000D01*
X83112000Y28511000D02*
X81834499Y29788501D01*
X81834499Y34170616D02*
X83742000Y36078117D01*
X83742000Y36431051D02*
X83742000Y37421000D01*
X83742000Y36078117D02*
X83742000Y36431051D01*
X33004001Y22751001D02*
X33704000Y23451000D01*
X31550000Y21297000D02*
X33004001Y22751001D01*
X31550000Y16065000D02*
X31550000Y21297000D01*
X33074000Y14541000D02*
X31550000Y16065000D01*
X33074000Y13291000D02*
X33074000Y14541000D01*
X83042001Y22751001D02*
X83742000Y23451000D01*
X81588000Y21297000D02*
X83042001Y22751001D01*
X81588000Y16065000D02*
X81588000Y21297000D01*
X83112000Y14541000D02*
X81588000Y16065000D01*
X83112000Y13291000D02*
X83112000Y14541000D01*
X29298943Y38665948D02*
X29298943Y38100263D01*
X29481001Y38848006D02*
X29298943Y38665948D01*
X27776999Y41886003D02*
X29481001Y40182001D01*
X27776999Y44631235D02*
X27776999Y41886003D01*
X29481001Y40182001D02*
X29481001Y38848006D01*
X29081659Y45935895D02*
X27776999Y44631235D01*
X29081659Y49160341D02*
X29081659Y45935895D01*
X79336943Y38665948D02*
X79336943Y38100263D01*
X79519001Y38848006D02*
X79336943Y38665948D01*
X77814999Y41886003D02*
X79519001Y40182001D01*
X77814999Y44631235D02*
X77814999Y41886003D01*
X79519001Y40182001D02*
X79519001Y38848006D01*
X79119659Y45935895D02*
X77814999Y44631235D01*
X79119659Y49160341D02*
X79119659Y45935895D01*
X25822000Y15336000D02*
X25464000Y15336000D01*
X28502000Y12656000D02*
X25822000Y15336000D01*
X75860000Y15336000D02*
X75502000Y15336000D01*
X78540000Y12656000D02*
X75860000Y15336000D01*
X15294000Y24340000D02*
X15298660Y24335340D01*
X11380000Y24340000D02*
X15294000Y24340000D01*
X10224000Y25496000D02*
X11380000Y24340000D01*
X31143032Y34024468D02*
X31143032Y34590153D01*
X31143032Y29566270D02*
X31143032Y34024468D01*
X25775423Y24198661D02*
X31143032Y29566270D01*
X25177954Y24198661D02*
X25775423Y24198661D01*
X23639010Y25737605D02*
X25177954Y24198661D01*
X65332000Y24340000D02*
X65336660Y24335340D01*
X61418000Y24340000D02*
X65332000Y24340000D01*
X60262000Y25496000D02*
X61418000Y24340000D01*
X81181032Y34024468D02*
X81181032Y34590153D01*
X81181032Y29566270D02*
X81181032Y34024468D01*
X75813423Y24198661D02*
X81181032Y29566270D01*
X75215954Y24198661D02*
X75813423Y24198661D01*
X73677010Y25737605D02*
X75215954Y24198661D01*
X13687004Y22956000D02*
X11301630Y22956000D01*
X11301630Y22956000D02*
X10224000Y22956000D01*
X15802000Y20841004D02*
X13687004Y22956000D01*
X15802000Y17736000D02*
X15802000Y20841004D01*
X27486000Y28449238D02*
X27486000Y32282585D01*
X27486000Y32282585D02*
X31104001Y35900586D01*
X31104001Y36721001D02*
X31804000Y37421000D01*
X22914000Y26372000D02*
X23490999Y26948999D01*
X20882000Y18752000D02*
X22914000Y20784000D01*
X25985761Y26948999D02*
X27486000Y28449238D01*
X31104001Y35900586D02*
X31104001Y36721001D01*
X23490999Y26948999D02*
X25985761Y26948999D01*
X22914000Y20784000D02*
X22914000Y26372000D01*
X63725004Y22956000D02*
X61339630Y22956000D01*
X61339630Y22956000D02*
X60262000Y22956000D01*
X65840000Y20841004D02*
X63725004Y22956000D01*
X65840000Y17736000D02*
X65840000Y20841004D01*
X77524000Y28449238D02*
X77524000Y32282585D01*
X77524000Y32282585D02*
X81142001Y35900586D01*
X81142001Y36721001D02*
X81842000Y37421000D01*
X72952000Y26372000D02*
X73528999Y26948999D01*
X70920000Y18752000D02*
X72952000Y20784000D01*
X76023761Y26948999D02*
X77524000Y28449238D01*
X81142001Y35900586D02*
X81142001Y36721001D01*
X73528999Y26948999D02*
X76023761Y26948999D01*
X72952000Y20784000D02*
X72952000Y26372000D01*
X41695586Y24476001D02*
X43591585Y26372000D01*
X36884000Y23451000D02*
X37909001Y24476001D01*
X37909001Y24476001D02*
X41695586Y24476001D01*
X42632990Y15716180D02*
X42632990Y11546990D01*
X42969820Y16053010D02*
X42632990Y15716180D01*
X43591585Y26372000D02*
X43432595Y26213010D01*
X46883010Y25413405D02*
X46883010Y19202595D01*
X42632990Y11546990D02*
X38662000Y7576000D01*
X46883010Y19202595D02*
X43733425Y16053010D01*
X43733425Y16053010D02*
X42969820Y16053010D01*
X15294000Y6600828D02*
X14732161Y6038989D01*
X19812161Y6038989D02*
X18395838Y6038990D01*
X20374000Y6600828D02*
X19812161Y6038989D01*
X20935838Y6038990D02*
X20374000Y6600828D01*
X18395838Y6038990D02*
X17834000Y6600828D01*
X17834000Y6600828D02*
X17272161Y6038989D01*
X22942171Y6628999D02*
X22352161Y6038989D01*
X31110999Y6628999D02*
X22942171Y6628999D01*
X32058000Y7576000D02*
X31110999Y6628999D01*
X22352161Y6038989D02*
X20935838Y6038990D01*
X17272161Y6038989D02*
X15855838Y6038990D01*
X15855838Y6038990D02*
X15294000Y6600828D01*
X12767011Y6038989D02*
X12754000Y6052000D01*
X14732161Y6038989D02*
X12767011Y6038989D01*
X14778471Y15196000D02*
X10224000Y19750471D01*
X15802000Y15196000D02*
X14778471Y15196000D01*
X10224000Y19750471D02*
X10224000Y20416000D01*
X43662586Y26443001D02*
X43591585Y26372000D01*
X45853414Y26443001D02*
X43662586Y26443001D01*
X46883010Y25413405D02*
X45853414Y26443001D01*
X91733586Y24476001D02*
X93629585Y26372000D01*
X86922000Y23451000D02*
X87947001Y24476001D01*
X87947001Y24476001D02*
X91733586Y24476001D01*
X92670990Y15716180D02*
X92670990Y11546990D01*
X93007820Y16053010D02*
X92670990Y15716180D01*
X93629585Y26372000D02*
X93470595Y26213010D01*
X96921010Y25413405D02*
X96921010Y19202595D01*
X92670990Y11546990D02*
X88700000Y7576000D01*
X96921010Y19202595D02*
X93771425Y16053010D01*
X93771425Y16053010D02*
X93007820Y16053010D01*
X65332000Y6600828D02*
X64770161Y6038989D01*
X69850161Y6038989D02*
X68433838Y6038990D01*
X70412000Y6600828D02*
X69850161Y6038989D01*
X70973838Y6038990D02*
X70412000Y6600828D01*
X68433838Y6038990D02*
X67872000Y6600828D01*
X67872000Y6600828D02*
X67310161Y6038989D01*
X72980171Y6628999D02*
X72390161Y6038989D01*
X81148999Y6628999D02*
X72980171Y6628999D01*
X82096000Y7576000D02*
X81148999Y6628999D01*
X72390161Y6038989D02*
X70973838Y6038990D01*
X67310161Y6038989D02*
X65893838Y6038990D01*
X65893838Y6038990D02*
X65332000Y6600828D01*
X62805011Y6038989D02*
X62792000Y6052000D01*
X64770161Y6038989D02*
X62805011Y6038989D01*
X64816471Y15196000D02*
X60262000Y19750471D01*
X65840000Y15196000D02*
X64816471Y15196000D01*
X60262000Y19750471D02*
X60262000Y20416000D01*
X93700586Y26443001D02*
X93629585Y26372000D01*
X95891414Y26443001D02*
X93700586Y26443001D01*
X96921010Y25413405D02*
X95891414Y26443001D01*
X10224000Y17876000D02*
X13262000Y14838000D01*
X13262000Y14838000D02*
X13262000Y12656000D01*
X23718999Y8803001D02*
X22914000Y9608000D01*
X25985761Y8803001D02*
X23718999Y8803001D01*
X43476186Y26893011D02*
X46039815Y26893010D01*
X42955175Y26372000D02*
X43476186Y26893011D01*
X42218000Y26372000D02*
X42955175Y26372000D01*
X41781999Y25935999D02*
X42218000Y26372000D01*
X34288999Y25935999D02*
X41781999Y25935999D01*
X31804000Y23451000D02*
X34288999Y25935999D01*
X46039815Y26893010D02*
X47806000Y25126825D01*
X47806000Y25126825D02*
X47806000Y12746998D01*
X47806000Y12746998D02*
X39190001Y4130999D01*
X39190001Y4130999D02*
X37917999Y4130999D01*
X37917999Y4130999D02*
X35106000Y6942998D01*
X35106000Y6942998D02*
X35106000Y8301010D01*
X35106000Y8301010D02*
X31710008Y8301010D01*
X31710008Y8301010D02*
X30984998Y7576000D01*
X30984998Y7576000D02*
X27212762Y7576000D01*
X27212762Y7576000D02*
X25985761Y8803001D01*
X60262000Y17876000D02*
X63300000Y14838000D01*
X63300000Y14838000D02*
X63300000Y12656000D01*
X73756999Y8803001D02*
X72952000Y9608000D01*
X76023761Y8803001D02*
X73756999Y8803001D01*
X93514186Y26893011D02*
X96077815Y26893010D01*
X92993175Y26372000D02*
X93514186Y26893011D01*
X92256000Y26372000D02*
X92993175Y26372000D01*
X91819999Y25935999D02*
X92256000Y26372000D01*
X84326999Y25935999D02*
X91819999Y25935999D01*
X81842000Y23451000D02*
X84326999Y25935999D01*
X96077815Y26893010D02*
X97844000Y25126825D01*
X97844000Y25126825D02*
X97844000Y12746998D01*
X97844000Y12746998D02*
X89228001Y4130999D01*
X89228001Y4130999D02*
X87955999Y4130999D01*
X87955999Y4130999D02*
X85144000Y6942998D01*
X85144000Y6942998D02*
X85144000Y8301010D01*
X85144000Y8301010D02*
X81748008Y8301010D01*
X81748008Y8301010D02*
X81022998Y7576000D01*
X81022998Y7576000D02*
X77250762Y7576000D01*
X77250762Y7576000D02*
X76023761Y8803001D01*
X26278001Y62248001D02*
X26978000Y62948000D01*
X24329999Y60299999D02*
X26278001Y62248001D01*
X24329999Y54711999D02*
X24329999Y60299999D01*
X23930000Y54312000D02*
X24329999Y54711999D01*
X14945013Y46210402D02*
X12936999Y48218416D01*
X12936999Y51277761D02*
X15633228Y53973990D01*
X10224000Y38196000D02*
X14945013Y42917013D01*
X14945013Y42917013D02*
X14945013Y46210402D01*
X15633228Y53973990D02*
X16236490Y53973990D01*
X12936999Y48218416D02*
X12936999Y51277761D01*
X16236490Y53973990D02*
X16802175Y53973990D01*
X76316001Y62248001D02*
X77016000Y62948000D01*
X74367999Y60299999D02*
X76316001Y62248001D01*
X74367999Y54711999D02*
X74367999Y60299999D01*
X73968000Y54312000D02*
X74367999Y54711999D01*
X64983013Y46210402D02*
X62974999Y48218416D01*
X62974999Y51277761D02*
X65671228Y53973990D01*
X60262000Y38196000D02*
X64983013Y42917013D01*
X64983013Y42917013D02*
X64983013Y46210402D01*
X65671228Y53973990D02*
X66274490Y53973990D01*
X62974999Y48218416D02*
X62974999Y51277761D01*
X66274490Y53973990D02*
X66840175Y53973990D01*
X10985999Y36417999D02*
X10224000Y35656000D01*
X16818000Y42250000D02*
X16818000Y44152000D01*
X10224000Y35656000D02*
X16818000Y42250000D01*
X28497672Y51201396D02*
X28497672Y49780910D01*
X22384453Y47268999D02*
X21955989Y46840535D01*
X21955989Y46840535D02*
X21555990Y46440536D01*
X28497672Y49780910D02*
X25985761Y47268999D01*
X25985761Y47268999D02*
X22384453Y47268999D01*
X61023999Y36417999D02*
X60262000Y35656000D01*
X66856000Y42250000D02*
X66856000Y44152000D01*
X60262000Y35656000D02*
X66856000Y42250000D01*
X78535672Y51201396D02*
X78535672Y49780910D01*
X72422453Y47268999D02*
X71993989Y46840535D01*
X71993989Y46840535D02*
X71593990Y46440536D01*
X78535672Y49780910D02*
X76023761Y47268999D01*
X76023761Y47268999D02*
X72422453Y47268999D01*
X10224000Y33116000D02*
X16678000Y33116000D01*
X16678000Y33116000D02*
X16818000Y32976000D01*
X27085474Y41611887D02*
X27085474Y41046202D01*
X27085474Y46886835D02*
X27085474Y41611887D01*
X27906639Y47708000D02*
X27085474Y46886835D01*
X60262000Y33116000D02*
X66716000Y33116000D01*
X66716000Y33116000D02*
X66856000Y32976000D01*
X77123474Y41611887D02*
X77123474Y41046202D01*
X77123474Y46886835D02*
X77123474Y41611887D01*
X77944639Y47708000D02*
X77123474Y46886835D01*
X30035001Y36541001D02*
X29917999Y36423999D01*
X30035001Y42051173D02*
X30035001Y36541001D01*
X29917999Y36423999D02*
X29518000Y36024000D01*
X29129001Y64214001D02*
X30035001Y63308001D01*
X29129001Y73496999D02*
X29129001Y64214001D01*
X30035001Y46252827D02*
X28654976Y44872802D01*
X30035001Y50941173D02*
X30035001Y46252827D01*
X29051198Y51924976D02*
X30035001Y50941173D01*
X28543198Y51924976D02*
X29051198Y51924976D01*
X27638976Y52829198D02*
X28543198Y51924976D01*
X27638976Y54979974D02*
X27638976Y52829198D01*
X30035001Y57375999D02*
X27638976Y54979974D01*
X30035001Y63308001D02*
X30035001Y57375999D01*
X28654976Y43431198D02*
X30035001Y42051173D01*
X28654976Y44872802D02*
X28654976Y43431198D01*
X27486000Y75140000D02*
X29129001Y73496999D01*
X80073001Y36541001D02*
X79955999Y36423999D01*
X80073001Y42051173D02*
X80073001Y36541001D01*
X79955999Y36423999D02*
X79556000Y36024000D01*
X79167001Y64214001D02*
X80073001Y63308001D01*
X79167001Y73496999D02*
X79167001Y64214001D01*
X80073001Y46252827D02*
X78692976Y44872802D01*
X80073001Y50941173D02*
X80073001Y46252827D01*
X79089198Y51924976D02*
X80073001Y50941173D01*
X78581198Y51924976D02*
X79089198Y51924976D01*
X77676976Y52829198D02*
X78581198Y51924976D01*
X77676976Y54979974D02*
X77676976Y52829198D01*
X80073001Y57375999D02*
X77676976Y54979974D01*
X80073001Y63308001D02*
X80073001Y57375999D01*
X78692976Y43431198D02*
X80073001Y42051173D01*
X78692976Y44872802D02*
X78692976Y43431198D01*
X77524000Y75140000D02*
X79167001Y73496999D01*
X29273001Y79702999D02*
X31550000Y77426000D01*
X29273001Y82496999D02*
X29273001Y79702999D01*
X27994000Y83776000D02*
X29273001Y82496999D01*
X29104987Y44686402D02*
X30604011Y46185426D01*
X25464000Y33116000D02*
X27683004Y33116000D01*
X27683004Y33116000D02*
X30604011Y36037007D01*
X30604011Y36037007D02*
X30604011Y42118574D01*
X30604011Y42118574D02*
X29104987Y43617598D01*
X29104987Y43617598D02*
X29104987Y44686402D01*
X30604011Y46185426D02*
X30604011Y51008574D01*
X30604011Y51008574D02*
X29237598Y52374987D01*
X29237598Y52374987D02*
X28729598Y52374987D01*
X30604011Y57308598D02*
X30604011Y71018315D01*
X28088987Y54793574D02*
X30604011Y57308598D01*
X28088987Y53015598D02*
X28088987Y54793574D01*
X28729598Y52374987D02*
X28088987Y53015598D01*
X30604011Y71018315D02*
X30604011Y71584000D01*
X79311001Y79702999D02*
X81588000Y77426000D01*
X79311001Y82496999D02*
X79311001Y79702999D01*
X78032000Y83776000D02*
X79311001Y82496999D01*
X79142987Y44686402D02*
X80642011Y46185426D01*
X75502000Y33116000D02*
X77721004Y33116000D01*
X77721004Y33116000D02*
X80642011Y36037007D01*
X80642011Y36037007D02*
X80642011Y42118574D01*
X80642011Y42118574D02*
X79142987Y43617598D01*
X79142987Y43617598D02*
X79142987Y44686402D01*
X80642011Y46185426D02*
X80642011Y51008574D01*
X80642011Y51008574D02*
X79275598Y52374987D01*
X79275598Y52374987D02*
X78767598Y52374987D01*
X80642011Y57308598D02*
X80642011Y71018315D01*
X78126987Y54793574D02*
X80642011Y57308598D01*
X78126987Y53015598D02*
X78126987Y54793574D01*
X78767598Y52374987D02*
X78126987Y53015598D01*
X80642011Y71018315D02*
X80642011Y71584000D01*
X19111510Y54027670D02*
X17844000Y52760160D01*
X18233999Y21183999D02*
X17834000Y20784000D01*
X17844000Y33659415D02*
X18632174Y32871241D01*
X17844000Y52760160D02*
X17844000Y33659415D01*
X18632174Y32871241D02*
X18632174Y21582174D01*
X17844000Y58950171D02*
X19111510Y57682661D01*
X18632174Y21582174D02*
X18233999Y21183999D01*
X19111510Y57682661D02*
X19111510Y54027670D01*
X17844000Y65501000D02*
X17844000Y58950171D01*
X5439834Y73161441D02*
X6829554Y71771721D01*
X6829554Y71771721D02*
X12574215Y71771721D01*
X16541988Y74908012D02*
X16676661Y74773339D01*
X16676661Y74773339D02*
X17076660Y74373340D01*
X14484062Y74908012D02*
X16541988Y74908012D01*
X13516989Y73940939D02*
X14484062Y74908012D01*
X13516989Y72714495D02*
X13516989Y73940939D01*
X12574215Y71771721D02*
X13516989Y72714495D01*
X69149510Y54027670D02*
X67882000Y52760160D01*
X68271999Y21183999D02*
X67872000Y20784000D01*
X67882000Y33659415D02*
X68670174Y32871241D01*
X67882000Y52760160D02*
X67882000Y33659415D01*
X68670174Y32871241D02*
X68670174Y21582174D01*
X67882000Y58950171D02*
X69149510Y57682661D01*
X68670174Y21582174D02*
X68271999Y21183999D01*
X69149510Y57682661D02*
X69149510Y54027670D01*
X67882000Y65501000D02*
X67882000Y58950171D01*
X55477834Y73161441D02*
X56867554Y71771721D01*
X56867554Y71771721D02*
X62612215Y71771721D01*
X66579988Y74908012D02*
X66714661Y74773339D01*
X66714661Y74773339D02*
X67114660Y74373340D01*
X64522062Y74908012D02*
X66579988Y74908012D01*
X63554989Y73940939D02*
X64522062Y74908012D01*
X63554989Y72714495D02*
X63554989Y73940939D01*
X62612215Y71771721D02*
X63554989Y72714495D01*
X20156998Y9063002D02*
X20156998Y19100002D01*
X21644000Y7576000D02*
X20156998Y9063002D01*
X20939991Y19882995D02*
X20939991Y25413991D01*
X20156998Y19100002D02*
X20939991Y19882995D01*
X25014999Y29488999D02*
X25985761Y29488999D01*
X20939991Y25413991D02*
X25014999Y29488999D01*
X26551001Y32050320D02*
X26719340Y32218659D01*
X25985761Y29488999D02*
X26551001Y30054239D01*
X26551001Y30054239D02*
X26551001Y32050320D01*
X70194998Y9063002D02*
X70194998Y19100002D01*
X71682000Y7576000D02*
X70194998Y9063002D01*
X70977991Y19882995D02*
X70977991Y25413991D01*
X70194998Y19100002D02*
X70977991Y19882995D01*
X75052999Y29488999D02*
X76023761Y29488999D01*
X70977991Y25413991D02*
X75052999Y29488999D01*
X76589001Y32050320D02*
X76757340Y32218659D01*
X76023761Y29488999D02*
X76589001Y30054239D01*
X76589001Y30054239D02*
X76589001Y32050320D01*
X16564000Y7576000D02*
X19104000Y7576000D01*
X18342001Y18557827D02*
X19358000Y19573826D01*
X18342001Y8337999D02*
X18342001Y18557827D01*
X19358000Y19573826D02*
X19358000Y36850732D01*
X18958001Y37250731D02*
X18958001Y37656001D01*
X19358000Y36850732D02*
X18958001Y37250731D01*
X18958001Y37656001D02*
X19358000Y38056000D01*
X19104000Y7576000D02*
X18342001Y8337999D01*
X66602000Y7576000D02*
X69142000Y7576000D01*
X68380001Y18557827D02*
X69396000Y19573826D01*
X68380001Y8337999D02*
X68380001Y18557827D01*
X69396000Y19573826D02*
X69396000Y36850732D01*
X68996001Y37250731D02*
X68996001Y37656001D01*
X69396000Y36850732D02*
X68996001Y37250731D01*
X68996001Y37656001D02*
X69396000Y38056000D01*
X69142000Y7576000D02*
X68380001Y8337999D01*
D29*
X40694000Y58884000D02*
X40161021Y58351021D01*
X29518000Y54407502D02*
X29518000Y53804000D01*
X40161021Y58351021D02*
X33461519Y58351021D01*
X33461519Y58351021D02*
X29518000Y54407502D01*
X25816001Y53150001D02*
X26216000Y53550000D01*
X22856001Y50190001D02*
X25816001Y53150001D01*
X22856001Y49262011D02*
X22856001Y50190001D01*
X21125947Y47531957D02*
X22856001Y49262011D01*
X90732000Y58884000D02*
X90199021Y58351021D01*
X79556000Y54407502D02*
X79556000Y53804000D01*
X90199021Y58351021D02*
X83499519Y58351021D01*
X83499519Y58351021D02*
X79556000Y54407502D01*
X75854001Y53150001D02*
X76254000Y53550000D01*
X72894001Y50190001D02*
X75854001Y53150001D01*
X72894001Y49262011D02*
X72894001Y50190001D01*
X71163947Y47531957D02*
X72894001Y49262011D01*
X39624990Y44860990D02*
X30988990Y44860990D01*
X30988990Y44860990D02*
X30280000Y44152000D01*
X40440000Y45676000D02*
X39624990Y44860990D01*
X24972237Y39434001D02*
X24826238Y39580000D01*
X28356001Y39434001D02*
X24972237Y39434001D01*
X28756000Y39834000D02*
X28356001Y39434001D01*
X24826238Y39580000D02*
X22406000Y39580000D01*
X89662990Y44860990D02*
X81026990Y44860990D01*
X81026990Y44860990D02*
X80318000Y44152000D01*
X90478000Y45676000D02*
X89662990Y44860990D01*
X75010237Y39434001D02*
X74864238Y39580000D01*
X78394001Y39434001D02*
X75010237Y39434001D01*
X78794000Y39834000D02*
X78394001Y39434001D01*
X74864238Y39580000D02*
X72444000Y39580000D01*
D25*
X30578890Y83091110D02*
X30578890Y80098501D01*
X30578890Y80098501D02*
X30578890Y79532816D01*
X27994000Y85676000D02*
X30578890Y83091110D01*
X8436000Y75068296D02*
X8436000Y75633981D01*
X12764814Y72598731D02*
X12387814Y72221731D01*
X14333640Y75394000D02*
X12764814Y73825174D01*
X12764814Y73825174D02*
X12764814Y72598731D01*
X19104000Y75394000D02*
X14333640Y75394000D01*
X11282565Y72221731D02*
X8436000Y75068296D01*
X12387814Y72221731D02*
X11282565Y72221731D01*
X80616890Y83091110D02*
X80616890Y80098501D01*
X80616890Y80098501D02*
X80616890Y79532816D01*
X78032000Y85676000D02*
X80616890Y83091110D01*
X58474000Y75068296D02*
X58474000Y75633981D01*
X62802814Y72598731D02*
X62425814Y72221731D01*
X64371640Y75394000D02*
X62802814Y73825174D01*
X62802814Y73825174D02*
X62802814Y72598731D01*
X69142000Y75394000D02*
X64371640Y75394000D01*
X61320565Y72221731D02*
X58474000Y75068296D01*
X62425814Y72221731D02*
X61320565Y72221731D01*
X27548001Y80919999D02*
X28248000Y80220000D01*
X26968999Y81499001D02*
X27548001Y80919999D01*
X26968999Y86168001D02*
X26968999Y81499001D01*
X28502000Y87701002D02*
X26968999Y86168001D01*
X28502000Y88348000D02*
X28502000Y87701002D01*
X9198000Y90988000D02*
X10876000Y92666000D01*
X9198000Y85808000D02*
X9198000Y90988000D01*
X15958001Y92467999D02*
X19104000Y95613998D01*
X11074001Y92467999D02*
X15958001Y92467999D01*
X10876000Y92666000D02*
X11074001Y92467999D01*
X19104000Y95613998D02*
X19104000Y96984000D01*
X19104000Y96984000D02*
X19866000Y97746000D01*
X77586001Y80919999D02*
X78286000Y80220000D01*
X77006999Y81499001D02*
X77586001Y80919999D01*
X77006999Y86168001D02*
X77006999Y81499001D01*
X78540000Y87701002D02*
X77006999Y86168001D01*
X78540000Y88348000D02*
X78540000Y87701002D01*
X59236000Y90988000D02*
X60914000Y92666000D01*
X59236000Y85808000D02*
X59236000Y90988000D01*
X65996001Y92467999D02*
X69142000Y95613998D01*
X61112001Y92467999D02*
X65996001Y92467999D01*
X60914000Y92666000D02*
X61112001Y92467999D01*
X69142000Y95613998D02*
X69142000Y96984000D01*
X69142000Y96984000D02*
X69904000Y97746000D01*
M02*
