%TF.GenerationSoftware,KiCad,Pcbnew,(5.99.0-1450-gc67d5d7f2)*%
%TF.CreationDate,2020-04-28T18:22:32-07:00*%
%TF.ProjectId,DMX_CTRL,444d585f-4354-4524-9c2e-6b696361645f,rev?*%
%TF.SameCoordinates,PX4c4b400PY8f0d180*%
%TF.FileFunction,Legend,Bot*%
%TF.FilePolarity,Positive*%
%FSLAX46Y46*%
G04 Gerber Fmt 4.6, Leading zero omitted, Abs format (unit mm)*
G04 Created by KiCad (PCBNEW (5.99.0-1450-gc67d5d7f2)) date 2020-04-28 18:22:32*
%MOMM*%
%LPD*%
G01*
G04 APERTURE LIST*
%ADD10C,0.300000*%
%TA.AperFunction,Profile*%
%ADD11C,0.150000*%
%TD*%
%ADD12C,0.150000*%
%ADD13C,1.626000*%
%ADD14O,2.007000X2.102000*%
%ADD15C,5.102000*%
%ADD16C,2.102000*%
%ADD17O,1.502000X1.502000*%
%ADD18C,1.502000*%
%ADD19C,7.602000*%
%ADD20C,2.642000*%
%ADD21C,1.702000*%
%ADD22O,1.802000X1.802000*%
G04 APERTURE END LIST*
D10*
X29678571Y54214286D02*
X28178571Y54214286D01*
X28178571Y53857143D01*
X28250000Y53642858D01*
X28392857Y53500000D01*
X28535714Y53428572D01*
X28821428Y53357143D01*
X29035714Y53357143D01*
X29321428Y53428572D01*
X29464285Y53500000D01*
X29607142Y53642858D01*
X29678571Y53857143D01*
X29678571Y54214286D01*
X29678571Y52714286D02*
X28178571Y52714286D01*
X29250000Y52214286D01*
X28178571Y51714286D01*
X29678571Y51714286D01*
X28178571Y51142858D02*
X29678571Y50142858D01*
X28178571Y50142858D02*
X29678571Y51142858D01*
X29821428Y49928572D02*
X29821428Y48785715D01*
X29535714Y47571429D02*
X29607142Y47642858D01*
X29678571Y47857143D01*
X29678571Y48000001D01*
X29607142Y48214286D01*
X29464285Y48357143D01*
X29321428Y48428572D01*
X29035714Y48500001D01*
X28821428Y48500001D01*
X28535714Y48428572D01*
X28392857Y48357143D01*
X28250000Y48214286D01*
X28178571Y48000001D01*
X28178571Y47857143D01*
X28250000Y47642858D01*
X28321428Y47571429D01*
X28178571Y47142858D02*
X28178571Y46285715D01*
X29678571Y46714286D02*
X28178571Y46714286D01*
X29678571Y44928572D02*
X28964285Y45428572D01*
X29678571Y45785715D02*
X28178571Y45785715D01*
X28178571Y45214286D01*
X28250000Y45071429D01*
X28321428Y45000001D01*
X28464285Y44928572D01*
X28678571Y44928572D01*
X28821428Y45000001D01*
X28892857Y45071429D01*
X28964285Y45214286D01*
X28964285Y45785715D01*
X29678571Y43571429D02*
X29678571Y44285715D01*
X28178571Y44285715D01*
X28178571Y42142858D02*
X29678571Y41642858D01*
X28178571Y41142858D01*
X28321428Y40714286D02*
X28250000Y40642858D01*
X28178571Y40500001D01*
X28178571Y40142858D01*
X28250000Y40000001D01*
X28321428Y39928572D01*
X28464285Y39857143D01*
X28607142Y39857143D01*
X28821428Y39928572D01*
X29678571Y40785715D01*
X29678571Y39857143D01*
X29535714Y39214286D02*
X29607142Y39142858D01*
X29678571Y39214286D01*
X29607142Y39285715D01*
X29535714Y39214286D01*
X29678571Y39214286D01*
X28178571Y38214286D02*
X28178571Y38071429D01*
X28250000Y37928572D01*
X28321428Y37857143D01*
X28464285Y37785715D01*
X28750000Y37714286D01*
X29107142Y37714286D01*
X29392857Y37785715D01*
X29535714Y37857143D01*
X29607142Y37928572D01*
X29678571Y38071429D01*
X29678571Y38214286D01*
X29607142Y38357143D01*
X29535714Y38428572D01*
X29392857Y38500001D01*
X29107142Y38571429D01*
X28750000Y38571429D01*
X28464285Y38500001D01*
X28321428Y38428572D01*
X28250000Y38357143D01*
X28178571Y38214286D01*
X30250000Y35500001D02*
X30178571Y35571429D01*
X29964285Y35714286D01*
X29821428Y35785715D01*
X29607142Y35857143D01*
X29250000Y35928572D01*
X28964285Y35928572D01*
X28607142Y35857143D01*
X28392857Y35785715D01*
X28250000Y35714286D01*
X28035714Y35571429D01*
X27964285Y35500001D01*
X29535714Y34071429D02*
X29607142Y34142858D01*
X29678571Y34357143D01*
X29678571Y34500001D01*
X29607142Y34714286D01*
X29464285Y34857143D01*
X29321428Y34928572D01*
X29035714Y35000001D01*
X28821428Y35000001D01*
X28535714Y34928572D01*
X28392857Y34857143D01*
X28250000Y34714286D01*
X28178571Y34500001D01*
X28178571Y34357143D01*
X28250000Y34142858D01*
X28321428Y34071429D01*
X30250000Y33571429D02*
X30178571Y33500001D01*
X29964285Y33357143D01*
X29821428Y33285715D01*
X29607142Y33214286D01*
X29250000Y33142858D01*
X28964285Y33142858D01*
X28607142Y33214286D01*
X28392857Y33285715D01*
X28250000Y33357143D01*
X28035714Y33500001D01*
X27964285Y33571429D01*
X28321428Y31357143D02*
X28250000Y31285715D01*
X28178571Y31142858D01*
X28178571Y30785715D01*
X28250000Y30642858D01*
X28321428Y30571429D01*
X28464285Y30500001D01*
X28607142Y30500001D01*
X28821428Y30571429D01*
X29678571Y31428572D01*
X29678571Y30500001D01*
X28178571Y29571429D02*
X28178571Y29428572D01*
X28250000Y29285715D01*
X28321428Y29214286D01*
X28464285Y29142858D01*
X28750000Y29071429D01*
X29107142Y29071429D01*
X29392857Y29142858D01*
X29535714Y29214286D01*
X29607142Y29285715D01*
X29678571Y29428572D01*
X29678571Y29571429D01*
X29607142Y29714286D01*
X29535714Y29785715D01*
X29392857Y29857143D01*
X29107142Y29928572D01*
X28750000Y29928572D01*
X28464285Y29857143D01*
X28321428Y29785715D01*
X28250000Y29714286D01*
X28178571Y29571429D01*
X28321428Y28500001D02*
X28250000Y28428572D01*
X28178571Y28285715D01*
X28178571Y27928572D01*
X28250000Y27785715D01*
X28321428Y27714286D01*
X28464285Y27642858D01*
X28607142Y27642858D01*
X28821428Y27714286D01*
X29678571Y28571429D01*
X29678571Y27642858D01*
X28178571Y26714286D02*
X28178571Y26571429D01*
X28250000Y26428572D01*
X28321428Y26357143D01*
X28464285Y26285715D01*
X28750000Y26214286D01*
X29107142Y26214286D01*
X29392857Y26285715D01*
X29535714Y26357143D01*
X29607142Y26428572D01*
X29678571Y26571429D01*
X29678571Y26714286D01*
X29607142Y26857143D01*
X29535714Y26928572D01*
X29392857Y27000001D01*
X29107142Y27071429D01*
X28750000Y27071429D01*
X28464285Y27000001D01*
X28321428Y26928572D01*
X28250000Y26857143D01*
X28178571Y26714286D01*
X29678571Y24428572D02*
X28178571Y24428572D01*
X29250000Y23928572D01*
X28178571Y23428572D01*
X29678571Y23428572D01*
X29535714Y22714286D02*
X29607142Y22642858D01*
X29678571Y22714286D01*
X29607142Y22785715D01*
X29535714Y22714286D01*
X29678571Y22714286D01*
X29678571Y20857143D02*
X28178571Y20857143D01*
X28892857Y20857143D02*
X28892857Y20000001D01*
X29678571Y20000001D02*
X28178571Y20000001D01*
X29678571Y18642858D02*
X28892857Y18642858D01*
X28750000Y18714286D01*
X28678571Y18857143D01*
X28678571Y19142858D01*
X28750000Y19285715D01*
X29607142Y18642858D02*
X29678571Y18785715D01*
X29678571Y19142858D01*
X29607142Y19285715D01*
X29464285Y19357143D01*
X29321428Y19357143D01*
X29178571Y19285715D01*
X29107142Y19142858D01*
X29107142Y18785715D01*
X29035714Y18642858D01*
X29678571Y17928572D02*
X28678571Y17928572D01*
X28964285Y17928572D02*
X28821428Y17857143D01*
X28750000Y17785715D01*
X28678571Y17642858D01*
X28678571Y17500001D01*
X28678571Y17214286D02*
X28678571Y16642858D01*
X28178571Y17000001D02*
X29464285Y17000001D01*
X29607142Y16928572D01*
X29678571Y16785715D01*
X29678571Y16642858D01*
X29678571Y16142858D02*
X28678571Y16142858D01*
X28821428Y16142858D02*
X28750000Y16071429D01*
X28678571Y15928572D01*
X28678571Y15714286D01*
X28750000Y15571429D01*
X28892857Y15500000D01*
X29678571Y15500000D01*
X28892857Y15500000D02*
X28750000Y15428572D01*
X28678571Y15285715D01*
X28678571Y15071429D01*
X28750000Y14928572D01*
X28892857Y14857143D01*
X29678571Y14857143D01*
X29678571Y13500000D02*
X28892857Y13500000D01*
X28750000Y13571429D01*
X28678571Y13714286D01*
X28678571Y14000000D01*
X28750000Y14142858D01*
X29607142Y13500000D02*
X29678571Y13642858D01*
X29678571Y14000000D01*
X29607142Y14142858D01*
X29464285Y14214286D01*
X29321428Y14214286D01*
X29178571Y14142858D01*
X29107142Y14000000D01*
X29107142Y13642858D01*
X29035714Y13500000D01*
X28678571Y12785715D02*
X29678571Y12785715D01*
X28821428Y12785715D02*
X28750000Y12714286D01*
X28678571Y12571429D01*
X28678571Y12357143D01*
X28750000Y12214286D01*
X28892857Y12142858D01*
X29678571Y12142858D01*
X28678571Y11428572D02*
X29678571Y11428572D01*
X28821428Y11428572D02*
X28750000Y11357143D01*
X28678571Y11214286D01*
X28678571Y11000000D01*
X28750000Y10857143D01*
X28892857Y10785715D01*
X29678571Y10785715D01*
X26964285Y97178572D02*
X26250000Y97178572D01*
X26178571Y97892858D01*
X26250000Y97821429D01*
X26392857Y97750000D01*
X26750000Y97750000D01*
X26892857Y97821429D01*
X26964285Y97892858D01*
X27035714Y98035715D01*
X27035714Y98392858D01*
X26964285Y98535715D01*
X26892857Y98607143D01*
X26750000Y98678572D01*
X26392857Y98678572D01*
X26250000Y98607143D01*
X26178571Y98535715D01*
X27464285Y97178572D02*
X27964285Y98678572D01*
X28464285Y97178572D01*
X30892857Y97250000D02*
X30750000Y97178572D01*
X30535714Y97178572D01*
X30321428Y97250000D01*
X30178571Y97392858D01*
X30107142Y97535715D01*
X30035714Y97821429D01*
X30035714Y98035715D01*
X30107142Y98321429D01*
X30178571Y98464286D01*
X30321428Y98607143D01*
X30535714Y98678572D01*
X30678571Y98678572D01*
X30892857Y98607143D01*
X30964285Y98535715D01*
X30964285Y98035715D01*
X30678571Y98035715D01*
X31607142Y98678572D02*
X31607142Y97178572D01*
X32464285Y98678572D01*
X32464285Y97178572D01*
X33178571Y98678572D02*
X33178571Y97178572D01*
X33535714Y97178572D01*
X33750000Y97250000D01*
X33892857Y97392858D01*
X33964285Y97535715D01*
X34035714Y97821429D01*
X34035714Y98035715D01*
X33964285Y98321429D01*
X33892857Y98464286D01*
X33750000Y98607143D01*
X33535714Y98678572D01*
X33178571Y98678572D01*
X36607142Y98678572D02*
X35750000Y98678572D01*
X36178571Y98678572D02*
X36178571Y97178572D01*
X36035714Y97392858D01*
X35892857Y97535715D01*
X35750000Y97607143D01*
X37178571Y97321429D02*
X37250000Y97250000D01*
X37392857Y97178572D01*
X37750000Y97178572D01*
X37892857Y97250000D01*
X37964285Y97321429D01*
X38035714Y97464286D01*
X38035714Y97607143D01*
X37964285Y97821429D01*
X37107142Y98678572D01*
X38035714Y98678572D01*
X38464285Y97178572D02*
X38964285Y98678572D01*
X39464285Y97178572D01*
X42178571Y98250000D02*
X42892857Y98250000D01*
X42035714Y98678572D02*
X42535714Y97178572D01*
X43035714Y98678572D01*
X47464285Y97892858D02*
X47678571Y97964286D01*
X47750000Y98035715D01*
X47821428Y98178572D01*
X47821428Y98392858D01*
X47750000Y98535715D01*
X47678571Y98607143D01*
X47535714Y98678572D01*
X46964285Y98678572D01*
X46964285Y97178572D01*
X47464285Y97178572D01*
X47607142Y97250000D01*
X47678571Y97321429D01*
X47750000Y97464286D01*
X47750000Y97607143D01*
X47678571Y97750000D01*
X47607142Y97821429D01*
X47464285Y97892858D01*
X46964285Y97892858D01*
D11*
X1666666Y0D02*
G75*
G03*
X1666666Y0I-1666666J0D01*
G01*
X-2500000Y0D02*
X2500000Y0D01*
X0Y2500000D02*
X0Y-2500000D01*
X0Y100000000D02*
X0Y0D01*
X50000000Y100000000D02*
X0Y100000000D01*
X50000000Y0D02*
X50000000Y100000000D01*
X0Y0D02*
X50000000Y0D01*
D12*
X24160000Y240000D02*
X11460000Y240000D01*
X24160000Y51040000D02*
X24160000Y240000D01*
X11460000Y51040000D02*
X24160000Y51040000D01*
X11460000Y240000D02*
X11460000Y51040000D01*
X16590000Y81555000D02*
X80000Y81555000D01*
X16590000Y99970000D02*
X16590000Y81555000D01*
X80000Y99970000D02*
X16590000Y99970000D01*
X80000Y81555000D02*
X80000Y99970000D01*
X14761904Y8407620D02*
X14761904Y7598096D01*
X14714285Y7502858D01*
X14666666Y7455239D01*
X14571428Y7407620D01*
X14380952Y7407620D01*
X14285714Y7455239D01*
X14238095Y7502858D01*
X14190476Y7598096D01*
X14190476Y8407620D01*
X13285714Y8074286D02*
X13285714Y7407620D01*
X13523809Y8455239D02*
X13761904Y7740953D01*
X13142857Y7740953D01*
X8057142Y96850477D02*
X8104761Y96898096D01*
X8152380Y97040953D01*
X8152380Y97136191D01*
X8104761Y97279048D01*
X8009523Y97374286D01*
X7914285Y97421905D01*
X7723809Y97469524D01*
X7580952Y97469524D01*
X7390476Y97421905D01*
X7295238Y97374286D01*
X7200000Y97279048D01*
X7152380Y97136191D01*
X7152380Y97040953D01*
X7200000Y96898096D01*
X7247619Y96850477D01*
X8152380Y96421905D02*
X7152380Y96421905D01*
X7628571Y96421905D02*
X7628571Y95850477D01*
X8152380Y95850477D02*
X7152380Y95850477D01*
X7247619Y95421905D02*
X7200000Y95374286D01*
X7152380Y95279048D01*
X7152380Y95040953D01*
X7200000Y94945715D01*
X7247619Y94898096D01*
X7342857Y94850477D01*
X7438095Y94850477D01*
X7580952Y94898096D01*
X8152380Y95469524D01*
X8152380Y94850477D01*
X14571428Y89380953D02*
X14571428Y88619048D01*
X8952380Y90761905D02*
X7952380Y90761905D01*
X7952380Y90523810D01*
X8000000Y90380953D01*
X8095238Y90285715D01*
X8190476Y90238096D01*
X8380952Y90190477D01*
X8523809Y90190477D01*
X8714285Y90238096D01*
X8809523Y90285715D01*
X8904761Y90380953D01*
X8952380Y90523810D01*
X8952380Y90761905D01*
X2071428Y90380953D02*
X2071428Y89619048D01*
X2452380Y90000000D02*
X1690476Y90000000D01*
%LPC*%
G36*
X38200000Y89000000D02*
G01*
X41800000Y85200000D01*
X48800000Y78200000D01*
X48800000Y63000000D01*
X46400000Y60400000D01*
X48800000Y58000000D01*
X48800000Y42600000D01*
X45600000Y39400000D01*
X44200000Y41200000D01*
X46600000Y43400000D01*
X46600000Y57000000D01*
X44200000Y59400000D01*
X44000000Y61400000D01*
X46600000Y64000000D01*
X46600000Y77400000D01*
X36000000Y88000000D01*
X36000000Y94400000D01*
X38200000Y94400000D01*
X38200000Y89000000D01*
G37*
X38200000Y89000000D02*
X41800000Y85200000D01*
X48800000Y78200000D01*
X48800000Y63000000D01*
X46400000Y60400000D01*
X48800000Y58000000D01*
X48800000Y42600000D01*
X45600000Y39400000D01*
X44200000Y41200000D01*
X46600000Y43400000D01*
X46600000Y57000000D01*
X44200000Y59400000D01*
X44000000Y61400000D01*
X46600000Y64000000D01*
X46600000Y77400000D01*
X36000000Y88000000D01*
X36000000Y94400000D01*
X38200000Y94400000D01*
X38200000Y89000000D01*
D13*
X10170000Y2680000D03*
X10170000Y15380000D03*
X10170000Y33160000D03*
X10170000Y43320000D03*
X10170000Y5220000D03*
X10170000Y28080000D03*
X10170000Y10300000D03*
X10170000Y12840000D03*
X10170000Y7760000D03*
X10170000Y30620000D03*
X10170000Y25540000D03*
X10170000Y38240000D03*
X10170000Y17920000D03*
X10170000Y45860000D03*
X10170000Y40780000D03*
X10170000Y35700000D03*
X10170000Y48400000D03*
X10170000Y23000000D03*
X10170000Y50940000D03*
X10170000Y20460000D03*
X25410000Y2680000D03*
X25410000Y5220000D03*
X25410000Y7760000D03*
X25410000Y10300000D03*
X25410000Y12840000D03*
X25410000Y20460000D03*
X25410000Y15380000D03*
X25410000Y17920000D03*
X25410000Y23000000D03*
X25410000Y25540000D03*
X25410000Y28080000D03*
X25410000Y33160000D03*
X25410000Y30620000D03*
X25410000Y35700000D03*
X25410000Y38240000D03*
X25410000Y45860000D03*
X25410000Y40780000D03*
X25410000Y43320000D03*
X25410000Y48400000D03*
X25410000Y50940000D03*
D14*
X28920000Y81000000D03*
X31460000Y81000000D03*
G36*
G01*
X35003500Y82000000D02*
X35003500Y80000000D01*
G75*
G02*
X34952500Y79949000I-51000J0D01*
G01*
X33047500Y79949000D01*
G75*
G02*
X32996500Y80000000I0J51000D01*
G01*
X32996500Y82000000D01*
G75*
G02*
X33047500Y82051000I51000J0D01*
G01*
X34952500Y82051000D01*
G75*
G02*
X35003500Y82000000I0J-51000D01*
G01*
G37*
X38100000Y13335000D03*
X35560000Y13335000D03*
G36*
G01*
X32016500Y12335000D02*
X32016500Y14335000D01*
G75*
G02*
X32067500Y14386000I51000J0D01*
G01*
X33972500Y14386000D01*
G75*
G02*
X34023500Y14335000I0J-51000D01*
G01*
X34023500Y12335000D01*
G75*
G02*
X33972500Y12284000I-51000J0D01*
G01*
X32067500Y12284000D01*
G75*
G02*
X32016500Y12335000I0J51000D01*
G01*
G37*
X38100000Y18415000D03*
X35560000Y18415000D03*
G36*
G01*
X32016500Y17415000D02*
X32016500Y19415000D01*
G75*
G02*
X32067500Y19466000I51000J0D01*
G01*
X33972500Y19466000D01*
G75*
G02*
X34023500Y19415000I0J-51000D01*
G01*
X34023500Y17415000D01*
G75*
G02*
X33972500Y17364000I-51000J0D01*
G01*
X32067500Y17364000D01*
G75*
G02*
X32016500Y17415000I0J51000D01*
G01*
G37*
X38100000Y27305000D03*
X35560000Y27305000D03*
G36*
G01*
X32016500Y26305000D02*
X32016500Y28305000D01*
G75*
G02*
X32067500Y28356000I51000J0D01*
G01*
X33972500Y28356000D01*
G75*
G02*
X34023500Y28305000I0J-51000D01*
G01*
X34023500Y26305000D01*
G75*
G02*
X33972500Y26254000I-51000J0D01*
G01*
X32067500Y26254000D01*
G75*
G02*
X32016500Y26305000I0J51000D01*
G01*
G37*
X38100000Y32385000D03*
X35560000Y32385000D03*
G36*
G01*
X32016500Y31385000D02*
X32016500Y33385000D01*
G75*
G02*
X32067500Y33436000I51000J0D01*
G01*
X33972500Y33436000D01*
G75*
G02*
X34023500Y33385000I0J-51000D01*
G01*
X34023500Y31385000D01*
G75*
G02*
X33972500Y31334000I-51000J0D01*
G01*
X32067500Y31334000D01*
G75*
G02*
X32016500Y31385000I0J51000D01*
G01*
G37*
X38100000Y41275000D03*
X35560000Y41275000D03*
G36*
G01*
X32016500Y40275000D02*
X32016500Y42275000D01*
G75*
G02*
X32067500Y42326000I51000J0D01*
G01*
X33972500Y42326000D01*
G75*
G02*
X34023500Y42275000I0J-51000D01*
G01*
X34023500Y40275000D01*
G75*
G02*
X33972500Y40224000I-51000J0D01*
G01*
X32067500Y40224000D01*
G75*
G02*
X32016500Y40275000I0J51000D01*
G01*
G37*
X38100000Y46355000D03*
X35560000Y46355000D03*
G36*
G01*
X32016500Y45355000D02*
X32016500Y47355000D01*
G75*
G02*
X32067500Y47406000I51000J0D01*
G01*
X33972500Y47406000D01*
G75*
G02*
X34023500Y47355000I0J-51000D01*
G01*
X34023500Y45355000D01*
G75*
G02*
X33972500Y45304000I-51000J0D01*
G01*
X32067500Y45304000D01*
G75*
G02*
X32016500Y45355000I0J51000D01*
G01*
G37*
X38100000Y60325000D03*
X35560000Y60325000D03*
G36*
G01*
X32016500Y59325000D02*
X32016500Y61325000D01*
G75*
G02*
X32067500Y61376000I51000J0D01*
G01*
X33972500Y61376000D01*
G75*
G02*
X34023500Y61325000I0J-51000D01*
G01*
X34023500Y59325000D01*
G75*
G02*
X33972500Y59274000I-51000J0D01*
G01*
X32067500Y59274000D01*
G75*
G02*
X32016500Y59325000I0J51000D01*
G01*
G37*
X38100000Y55245000D03*
X35560000Y55245000D03*
G36*
G01*
X32016500Y54245000D02*
X32016500Y56245000D01*
G75*
G02*
X32067500Y56296000I51000J0D01*
G01*
X33972500Y56296000D01*
G75*
G02*
X34023500Y56245000I0J-51000D01*
G01*
X34023500Y54245000D01*
G75*
G02*
X33972500Y54194000I-51000J0D01*
G01*
X32067500Y54194000D01*
G75*
G02*
X32016500Y54245000I0J51000D01*
G01*
G37*
X38100000Y69215000D03*
X35560000Y69215000D03*
G36*
G01*
X32016500Y68215000D02*
X32016500Y70215000D01*
G75*
G02*
X32067500Y70266000I51000J0D01*
G01*
X33972500Y70266000D01*
G75*
G02*
X34023500Y70215000I0J-51000D01*
G01*
X34023500Y68215000D01*
G75*
G02*
X33972500Y68164000I-51000J0D01*
G01*
X32067500Y68164000D01*
G75*
G02*
X32016500Y68215000I0J51000D01*
G01*
G37*
X38100000Y74295000D03*
X35560000Y74295000D03*
G36*
G01*
X32016500Y73295000D02*
X32016500Y75295000D01*
G75*
G02*
X32067500Y75346000I51000J0D01*
G01*
X33972500Y75346000D01*
G75*
G02*
X34023500Y75295000I0J-51000D01*
G01*
X34023500Y73295000D01*
G75*
G02*
X33972500Y73244000I-51000J0D01*
G01*
X32067500Y73244000D01*
G75*
G02*
X32016500Y73295000I0J51000D01*
G01*
G37*
D13*
X21620000Y2780000D03*
X19080000Y2780000D03*
X16540000Y2780000D03*
X14000000Y2780000D03*
X14000000Y5320000D03*
X16540000Y5320000D03*
X19080000Y5320000D03*
X21620000Y5320000D03*
X21620000Y48500000D03*
X19080000Y48500000D03*
X16540000Y48500000D03*
X14000000Y48500000D03*
D15*
X12780000Y96160000D03*
X3890000Y96160000D03*
G36*
G01*
X3512859Y83208662D02*
X2582641Y83406386D01*
G75*
G02*
X2216394Y83970357I98862J465109D01*
G01*
X3703170Y90965091D01*
G75*
G02*
X4267141Y91331338I465109J-98862D01*
G01*
X5197359Y91133614D01*
G75*
G02*
X5563606Y90569643I-98862J-465109D01*
G01*
X4076830Y83574909D01*
G75*
G02*
X3512859Y83208662I-465109J98862D01*
G01*
G37*
G36*
G01*
X8810500Y83584000D02*
X7859500Y83584000D01*
G75*
G02*
X7384000Y84059500I0J475500D01*
G01*
X7384000Y89210500D01*
G75*
G02*
X7859500Y89686000I475500J0D01*
G01*
X8810500Y89686000D01*
G75*
G02*
X9286000Y89210500I0J-475500D01*
G01*
X9286000Y84059500D01*
G75*
G02*
X8810500Y83584000I-475500J0D01*
G01*
G37*
G36*
G01*
X14087359Y83406386D02*
X13157141Y83208662D01*
G75*
G02*
X12593170Y83574909I-98862J465109D01*
G01*
X11106394Y90569643D01*
G75*
G02*
X11472641Y91133614I465109J98862D01*
G01*
X12402859Y91331338D01*
G75*
G02*
X12966830Y90965091I98862J-465109D01*
G01*
X14453606Y83970357D01*
G75*
G02*
X14087359Y83406386I-465109J-98862D01*
G01*
G37*
D16*
X41000000Y1500000D03*
X36500000Y1500000D03*
X41000000Y8000000D03*
X36500000Y8000000D03*
D17*
X12000000Y79500000D03*
D18*
X12000000Y77600000D03*
D17*
X8500000Y79500000D03*
D18*
X8500000Y77600000D03*
D19*
X46000000Y4000000D03*
D13*
X18040000Y72500000D03*
X18040000Y69960000D03*
X18040000Y67420000D03*
X18040000Y64880000D03*
X15500000Y64880000D03*
X15500000Y67420000D03*
X15500000Y69960000D03*
X15500000Y72500000D03*
D18*
X24000000Y85600000D03*
D17*
X24000000Y83700000D03*
D20*
X21500000Y93218000D03*
X21300000Y83218000D03*
X18300000Y88218000D03*
D21*
X15000000Y77500000D03*
X15000000Y80000000D03*
X26500000Y76000000D03*
X29000000Y76000000D03*
X24500000Y64000000D03*
X22000000Y64000000D03*
D19*
X4000000Y4000000D03*
X25000000Y70000000D03*
G36*
G01*
X5473000Y36918000D02*
X5473000Y35218000D01*
G75*
G02*
X5422000Y35167000I-51000J0D01*
G01*
X3722000Y35167000D01*
G75*
G02*
X3671000Y35218000I0J51000D01*
G01*
X3671000Y36918000D01*
G75*
G02*
X3722000Y36969000I51000J0D01*
G01*
X5422000Y36969000D01*
G75*
G02*
X5473000Y36918000I0J-51000D01*
G01*
G37*
D22*
X2032000Y36068000D03*
X4572000Y38608000D03*
X2032000Y38608000D03*
G36*
G01*
X5473000Y11010000D02*
X5473000Y9310000D01*
G75*
G02*
X5422000Y9259000I-51000J0D01*
G01*
X3722000Y9259000D01*
G75*
G02*
X3671000Y9310000I0J51000D01*
G01*
X3671000Y11010000D01*
G75*
G02*
X3722000Y11061000I51000J0D01*
G01*
X5422000Y11061000D01*
G75*
G02*
X5473000Y11010000I0J-51000D01*
G01*
G37*
X2032000Y10160000D03*
X4572000Y12700000D03*
X2032000Y12700000D03*
X4572000Y15240000D03*
X2032000Y15240000D03*
X4572000Y17780000D03*
X2032000Y17780000D03*
X4572000Y20320000D03*
X2032000Y20320000D03*
X4572000Y22860000D03*
X2032000Y22860000D03*
X4572000Y25400000D03*
X2032000Y25400000D03*
X4572000Y27940000D03*
X2032000Y27940000D03*
X4572000Y30480000D03*
X2032000Y30480000D03*
X32960000Y84500000D03*
G36*
G01*
X34650000Y85401000D02*
X36350000Y85401000D01*
G75*
G02*
X36401000Y85350000I0J-51000D01*
G01*
X36401000Y83650000D01*
G75*
G02*
X36350000Y83599000I-51000J0D01*
G01*
X34650000Y83599000D01*
G75*
G02*
X34599000Y83650000I0J51000D01*
G01*
X34599000Y85350000D01*
G75*
G02*
X34650000Y85401000I51000J0D01*
G01*
G37*
G36*
G01*
X1099000Y56300000D02*
X1099000Y58000000D01*
G75*
G02*
X1150000Y58051000I51000J0D01*
G01*
X2850000Y58051000D01*
G75*
G02*
X2901000Y58000000I0J-51000D01*
G01*
X2901000Y56300000D01*
G75*
G02*
X2850000Y56249000I-51000J0D01*
G01*
X1150000Y56249000D01*
G75*
G02*
X1099000Y56300000I0J51000D01*
G01*
G37*
X2000000Y54610000D03*
X2000000Y52070000D03*
X2000000Y49530000D03*
X2000000Y46990000D03*
X2000000Y44450000D03*
G36*
G01*
X3150000Y78901000D02*
X4850000Y78901000D01*
G75*
G02*
X4901000Y78850000I0J-51000D01*
G01*
X4901000Y77150000D01*
G75*
G02*
X4850000Y77099000I-51000J0D01*
G01*
X3150000Y77099000D01*
G75*
G02*
X3099000Y77150000I0J51000D01*
G01*
X3099000Y78850000D01*
G75*
G02*
X3150000Y78901000I51000J0D01*
G01*
G37*
X1460000Y78000000D03*
X6500000Y74700000D03*
X6500000Y72160000D03*
X6500000Y69620000D03*
X6500000Y67080000D03*
X6500000Y64540000D03*
G36*
G01*
X7401000Y62850000D02*
X7401000Y61150000D01*
G75*
G02*
X7350000Y61099000I-51000J0D01*
G01*
X5650000Y61099000D01*
G75*
G02*
X5599000Y61150000I0J51000D01*
G01*
X5599000Y62850000D01*
G75*
G02*
X5650000Y62901000I51000J0D01*
G01*
X7350000Y62901000D01*
G75*
G02*
X7401000Y62850000I0J-51000D01*
G01*
G37*
D18*
X31750000Y65405000D03*
D17*
X33650000Y65405000D03*
X38730000Y51435000D03*
D18*
X36830000Y51435000D03*
X31750000Y51435000D03*
D17*
X33650000Y51435000D03*
X38730000Y37465000D03*
D18*
X36830000Y37465000D03*
X31750000Y37465000D03*
D17*
X33650000Y37465000D03*
X38730000Y23495000D03*
D18*
X36830000Y23495000D03*
D17*
X33650000Y23495000D03*
D18*
X31750000Y23495000D03*
X28500000Y64100000D03*
D17*
X28500000Y66000000D03*
D18*
X28500000Y58600000D03*
D17*
X28500000Y60500000D03*
X38730000Y65405000D03*
D18*
X36830000Y65405000D03*
D17*
X24000000Y78100000D03*
D18*
X24000000Y80000000D03*
D16*
X33500000Y1500000D03*
X29000000Y1500000D03*
X33500000Y8000000D03*
X29000000Y8000000D03*
D20*
X44704000Y14732000D03*
X44704000Y19812000D03*
X44704000Y24892000D03*
X44704000Y29972000D03*
X44704000Y35052000D03*
X44704000Y40132000D03*
X44704000Y45212000D03*
X44704000Y50292000D03*
X44704000Y55372000D03*
X44704000Y60452000D03*
X44704000Y65532000D03*
X44704000Y70612000D03*
X44704000Y75692000D03*
X44704000Y80772000D03*
X26924000Y94742000D03*
X32004000Y94742000D03*
X37084000Y94742000D03*
X42164000Y94742000D03*
X47244000Y94742000D03*
M02*
