%TF.GenerationSoftware,KiCad,Pcbnew,(5.99.0-1450-gc67d5d7f2)*%
%TF.CreationDate,2020-04-28T18:22:32-07:00*%
%TF.ProjectId,DMX_CTRL,444d585f-4354-4524-9c2e-6b696361645f,rev?*%
%TF.SameCoordinates,PX4c4b400PY8f0d180*%
%TF.FileFunction,Copper,L2,Bot*%
%TF.FilePolarity,Positive*%
%FSLAX46Y46*%
G04 Gerber Fmt 4.6, Leading zero omitted, Abs format (unit mm)*
G04 Created by KiCad (PCBNEW (5.99.0-1450-gc67d5d7f2)) date 2020-04-28 18:22:32*
%MOMM*%
%LPD*%
G01*
G04 APERTURE LIST*
%TA.AperFunction,Profile*%
%ADD10C,0.150000*%
%TD*%
%TA.AperFunction,ComponentPad*%
%ADD11C,1.524000*%
%TD*%
%TA.AperFunction,ComponentPad*%
%ADD12O,1.905000X2.000000*%
%TD*%
%TA.AperFunction,ComponentPad*%
%ADD13R,1.905000X2.000000*%
%TD*%
%TA.AperFunction,ComponentPad*%
%ADD14C,5.000000*%
%TD*%
%TA.AperFunction,ComponentPad*%
%ADD15C,2.000000*%
%TD*%
%TA.AperFunction,ComponentPad*%
%ADD16O,1.400000X1.400000*%
%TD*%
%TA.AperFunction,ComponentPad*%
%ADD17C,1.400000*%
%TD*%
%TA.AperFunction,ComponentPad*%
%ADD18C,7.500000*%
%TD*%
%TA.AperFunction,ComponentPad*%
%ADD19C,2.540000*%
%TD*%
%TA.AperFunction,ComponentPad*%
%ADD20C,1.600000*%
%TD*%
%TA.AperFunction,ComponentPad*%
%ADD21R,1.700000X1.700000*%
%TD*%
%TA.AperFunction,ComponentPad*%
%ADD22O,1.700000X1.700000*%
%TD*%
%TA.AperFunction,ViaPad*%
%ADD23C,0.800000*%
%TD*%
%TA.AperFunction,Conductor*%
%ADD24C,0.250000*%
%TD*%
%TA.AperFunction,Conductor*%
%ADD25C,3.000000*%
%TD*%
%TA.AperFunction,Conductor*%
%ADD26C,0.500000*%
%TD*%
%TA.AperFunction,Conductor*%
%ADD27C,2.000000*%
%TD*%
%TA.AperFunction,Conductor*%
%ADD28C,1.000000*%
%TD*%
%TA.AperFunction,Conductor*%
%ADD29C,1.500000*%
%TD*%
G04 APERTURE END LIST*
D10*
X1666666Y0D02*
G75*
G03*
X1666666Y0I-1666666J0D01*
G01*
X-2500000Y0D02*
X2500000Y0D01*
X0Y2500000D02*
X0Y-2500000D01*
X0Y100000000D02*
X0Y0D01*
X50000000Y100000000D02*
X0Y100000000D01*
X50000000Y0D02*
X50000000Y100000000D01*
X0Y0D02*
X50000000Y0D01*
D11*
X10170000Y2680000D03*
X10170000Y15380000D03*
X10170000Y33160000D03*
X10170000Y43320000D03*
X10170000Y5220000D03*
X10170000Y28080000D03*
X10170000Y10300000D03*
X10170000Y12840000D03*
X10170000Y7760000D03*
X10170000Y30620000D03*
X10170000Y25540000D03*
X10170000Y38240000D03*
X10170000Y17920000D03*
X10170000Y45860000D03*
X10170000Y40780000D03*
X10170000Y35700000D03*
X10170000Y48400000D03*
X10170000Y23000000D03*
X10170000Y50940000D03*
X10170000Y20460000D03*
X25410000Y2680000D03*
X25410000Y5220000D03*
X25410000Y7760000D03*
X25410000Y10300000D03*
X25410000Y12840000D03*
X25410000Y20460000D03*
X25410000Y15380000D03*
X25410000Y17920000D03*
X25410000Y23000000D03*
X25410000Y25540000D03*
X25410000Y28080000D03*
X25410000Y33160000D03*
X25410000Y30620000D03*
X25410000Y35700000D03*
X25410000Y38240000D03*
X25410000Y45860000D03*
X25410000Y40780000D03*
X25410000Y43320000D03*
X25410000Y48400000D03*
X25410000Y50940000D03*
D12*
X28920000Y81000000D03*
X31460000Y81000000D03*
D13*
X34000000Y81000000D03*
D12*
X38100000Y13335000D03*
X35560000Y13335000D03*
D13*
X33020000Y13335000D03*
D12*
X38100000Y18415000D03*
X35560000Y18415000D03*
D13*
X33020000Y18415000D03*
D12*
X38100000Y27305000D03*
X35560000Y27305000D03*
D13*
X33020000Y27305000D03*
D12*
X38100000Y32385000D03*
X35560000Y32385000D03*
D13*
X33020000Y32385000D03*
D12*
X38100000Y41275000D03*
X35560000Y41275000D03*
D13*
X33020000Y41275000D03*
D12*
X38100000Y46355000D03*
X35560000Y46355000D03*
D13*
X33020000Y46355000D03*
D12*
X38100000Y60325000D03*
X35560000Y60325000D03*
D13*
X33020000Y60325000D03*
D12*
X38100000Y55245000D03*
X35560000Y55245000D03*
D13*
X33020000Y55245000D03*
D12*
X38100000Y69215000D03*
X35560000Y69215000D03*
D13*
X33020000Y69215000D03*
D12*
X38100000Y74295000D03*
X35560000Y74295000D03*
D13*
X33020000Y74295000D03*
D11*
X21620000Y2780000D03*
X19080000Y2780000D03*
X16540000Y2780000D03*
X14000000Y2780000D03*
X14000000Y5320000D03*
X16540000Y5320000D03*
X19080000Y5320000D03*
X21620000Y5320000D03*
X21620000Y48500000D03*
X19080000Y48500000D03*
X16540000Y48500000D03*
X14000000Y48500000D03*
D14*
X12780000Y96160000D03*
X3890000Y96160000D03*
%TA.AperFunction,SMDPad,CuDef*%
G36*
G01*
X3498520Y83263849D02*
X2618187Y83450970D01*
G75*
G02*
X2271581Y83984696I93560J440166D01*
G01*
X3747754Y90929544D01*
G75*
G02*
X4281480Y91276150I440166J-93560D01*
G01*
X5161813Y91089030D01*
G75*
G02*
X5508419Y90555304I-93560J-440166D01*
G01*
X4032246Y83610456D01*
G75*
G02*
X3498520Y83263850I-440166J93560D01*
G01*
G37*
%TD.AperFunction*%
%TA.AperFunction,SMDPad,CuDef*%
G36*
G01*
X8785000Y83635000D02*
X7885000Y83635000D01*
G75*
G02*
X7435000Y84085000I0J450000D01*
G01*
X7435000Y89185000D01*
G75*
G02*
X7885000Y89635000I450000J0D01*
G01*
X8785000Y89635000D01*
G75*
G02*
X9235000Y89185000I0J-450000D01*
G01*
X9235000Y84085000D01*
G75*
G02*
X8785000Y83635000I-450000J0D01*
G01*
G37*
%TD.AperFunction*%
%TA.AperFunction,SMDPad,CuDef*%
G36*
G01*
X14051813Y83450970D02*
X13171480Y83263850D01*
G75*
G02*
X12637754Y83610456I-93560J440166D01*
G01*
X11161581Y90555304D01*
G75*
G02*
X11508187Y91089030I440166J93560D01*
G01*
X12388520Y91276150D01*
G75*
G02*
X12922246Y90929544I93560J-440166D01*
G01*
X14398419Y83984696D01*
G75*
G02*
X14051813Y83450970I-440166J-93560D01*
G01*
G37*
%TD.AperFunction*%
D15*
X41000000Y1500000D03*
X36500000Y1500000D03*
X41000000Y8000000D03*
X36500000Y8000000D03*
D16*
X12000000Y79500000D03*
D17*
X12000000Y77600000D03*
D16*
X8500000Y79500000D03*
D17*
X8500000Y77600000D03*
D18*
X46000000Y4000000D03*
D11*
X18040000Y72500000D03*
X18040000Y69960000D03*
X18040000Y67420000D03*
X18040000Y64880000D03*
X15500000Y64880000D03*
X15500000Y67420000D03*
X15500000Y69960000D03*
X15500000Y72500000D03*
D17*
X24000000Y85600000D03*
D16*
X24000000Y83700000D03*
D19*
X21500000Y93218000D03*
X21300000Y83218000D03*
X18300000Y88218000D03*
D20*
X15000000Y77500000D03*
X15000000Y80000000D03*
X26500000Y76000000D03*
X29000000Y76000000D03*
X24500000Y64000000D03*
X22000000Y64000000D03*
D18*
X4000000Y4000000D03*
X25000000Y70000000D03*
D21*
X4572000Y36068000D03*
D22*
X2032000Y36068000D03*
X4572000Y38608000D03*
X2032000Y38608000D03*
D21*
X4572000Y10160000D03*
D22*
X2032000Y10160000D03*
X4572000Y12700000D03*
X2032000Y12700000D03*
X4572000Y15240000D03*
X2032000Y15240000D03*
X4572000Y17780000D03*
X2032000Y17780000D03*
X4572000Y20320000D03*
X2032000Y20320000D03*
X4572000Y22860000D03*
X2032000Y22860000D03*
X4572000Y25400000D03*
X2032000Y25400000D03*
X4572000Y27940000D03*
X2032000Y27940000D03*
X4572000Y30480000D03*
X2032000Y30480000D03*
X32960000Y84500000D03*
D21*
X35500000Y84500000D03*
X2000000Y57150000D03*
D22*
X2000000Y54610000D03*
X2000000Y52070000D03*
X2000000Y49530000D03*
X2000000Y46990000D03*
X2000000Y44450000D03*
D21*
X4000000Y78000000D03*
D22*
X1460000Y78000000D03*
X6500000Y74700000D03*
X6500000Y72160000D03*
X6500000Y69620000D03*
X6500000Y67080000D03*
X6500000Y64540000D03*
D21*
X6500000Y62000000D03*
D17*
X31750000Y65405000D03*
D16*
X33650000Y65405000D03*
X38730000Y51435000D03*
D17*
X36830000Y51435000D03*
X31750000Y51435000D03*
D16*
X33650000Y51435000D03*
X38730000Y37465000D03*
D17*
X36830000Y37465000D03*
X31750000Y37465000D03*
D16*
X33650000Y37465000D03*
X38730000Y23495000D03*
D17*
X36830000Y23495000D03*
D16*
X33650000Y23495000D03*
D17*
X31750000Y23495000D03*
X28500000Y64100000D03*
D16*
X28500000Y66000000D03*
D17*
X28500000Y58600000D03*
D16*
X28500000Y60500000D03*
X38730000Y65405000D03*
D17*
X36830000Y65405000D03*
D16*
X24000000Y78100000D03*
D17*
X24000000Y80000000D03*
D15*
X33500000Y1500000D03*
X29000000Y1500000D03*
X33500000Y8000000D03*
X29000000Y8000000D03*
D19*
X44704000Y14732000D03*
X44704000Y19812000D03*
X44704000Y24892000D03*
X44704000Y29972000D03*
X44704000Y35052000D03*
X44704000Y40132000D03*
X44704000Y45212000D03*
X44704000Y50292000D03*
X44704000Y55372000D03*
X44704000Y60452000D03*
X44704000Y65532000D03*
X44704000Y70612000D03*
X44704000Y75692000D03*
X44704000Y80772000D03*
X26924000Y94742000D03*
X32004000Y94742000D03*
X37084000Y94742000D03*
X42164000Y94742000D03*
X47244000Y94742000D03*
D23*
X48200000Y84200000D03*
X6600000Y19800000D03*
X9000000Y24000000D03*
X4500000Y80500000D03*
X6000000Y17000000D03*
X21875032Y17142299D03*
X18576596Y16101915D03*
X19374089Y13151231D03*
X13638009Y46482102D03*
X14674957Y24379349D03*
X15374968Y33020000D03*
X15124968Y18675021D03*
X15124968Y26924000D03*
X21875032Y18792869D03*
X19539263Y14137507D03*
X15824979Y30543852D03*
X23500000Y8000000D03*
X14399958Y20828000D03*
X20617852Y14367567D03*
X14500000Y14000000D03*
X31000000Y20000000D03*
X27000000Y37000000D03*
X18500000Y50500000D03*
X22000000Y12500000D03*
X30497891Y62002109D03*
X699999Y55699999D03*
X4500000Y60000000D03*
X7000000Y60000000D03*
X20000000Y61000000D03*
X24549154Y44450846D03*
X23500000Y13000000D03*
X28500000Y51500000D03*
X22000000Y21500000D03*
X23500000Y40000000D03*
X15000000Y91500000D03*
X12500000Y30500000D03*
X8000000Y51000000D03*
X27031474Y41090202D03*
X27852639Y47752000D03*
X31089032Y34634153D03*
X23585010Y25781605D03*
X28448000Y12700000D03*
X29244943Y38144263D03*
X29027659Y49204341D03*
X7620000Y46736000D03*
X8128000Y49276000D03*
X13965340Y25658660D03*
X6986362Y26976720D03*
X8472313Y27750688D03*
X3048000Y33528000D03*
X12192000Y19812000D03*
X7620000Y19812000D03*
X7620000Y28956000D03*
D24*
X31742499Y57908675D02*
X31742499Y56522501D01*
X31742499Y56522501D02*
X33020000Y55245000D01*
X29244943Y38144263D02*
X29244943Y48987057D01*
X29244943Y48987057D02*
X29027659Y49204341D01*
X29969944Y40319468D02*
X29969944Y50030056D01*
X29969944Y50030056D02*
X28500000Y51500000D01*
X33650000Y51435000D02*
X31600000Y49385000D01*
X31600000Y49385000D02*
X31600000Y42695000D01*
X31600000Y42695000D02*
X33020000Y41275000D01*
X7620000Y46736000D02*
X2254000Y46736000D01*
X2254000Y46736000D02*
X2000000Y46990000D01*
X10170000Y48400000D02*
X3130000Y48400000D01*
X3130000Y48400000D02*
X2000000Y49530000D01*
X8128000Y49276000D02*
X4794000Y49276000D01*
X4794000Y49276000D02*
X2000000Y52070000D01*
X10170000Y45860000D02*
X9284000Y45860000D01*
X9284000Y45860000D02*
X2032000Y38608000D01*
X2032000Y36068000D02*
X3207001Y37243001D01*
X3207001Y39007001D02*
X7520000Y43320000D01*
X3207001Y37243001D02*
X3207001Y39007001D01*
X7520000Y43320000D02*
X10170000Y43320000D01*
X25410000Y35700000D02*
X24322999Y36787001D01*
X24322999Y36787001D02*
X24322999Y43077001D01*
X23500000Y40000000D02*
X19080000Y44420000D01*
X19080000Y44420000D02*
X19080000Y48500000D01*
X24322999Y43077001D02*
X21620000Y45780000D01*
X21620000Y45780000D02*
X21620000Y48500000D01*
X18040000Y64880000D02*
X16952999Y65967001D01*
X16952999Y65967001D02*
X10152999Y65967001D01*
X10152999Y65967001D02*
X6500000Y69620000D01*
D25*
X37084000Y88392000D02*
X37084000Y94742000D01*
X40664000Y84812000D02*
X37084000Y88392000D01*
D26*
X42164000Y94742000D02*
X42164000Y90236000D01*
X42164000Y90236000D02*
X48200000Y84200000D01*
X8500000Y77600000D02*
X4400000Y77600000D01*
X4400000Y77600000D02*
X4000000Y78000000D01*
X12000000Y77600000D02*
X8500000Y77600000D01*
X14000000Y2780000D02*
X14000000Y5320000D01*
X16540000Y2780000D02*
X16540000Y5320000D01*
X19080000Y2780000D02*
X19080000Y5320000D01*
D24*
X5200000Y19200000D02*
X5001004Y19200000D01*
X5001004Y19200000D02*
X4946003Y19144999D01*
X6600000Y19800000D02*
X5800000Y19800000D01*
X8274998Y23651998D02*
X8632988Y23294008D01*
X8274998Y26777002D02*
X8274998Y23651998D01*
X8632988Y23294008D02*
X8632988Y11837012D01*
X4572000Y30480000D02*
X8274998Y26777002D01*
X8632988Y11837012D02*
X10170000Y10300000D01*
X9087001Y24087001D02*
X9000000Y24000000D01*
X5800000Y19800000D02*
X5200000Y19200000D01*
X9648239Y24087001D02*
X9087001Y24087001D01*
D27*
X26500000Y76000000D02*
X26500000Y81671608D01*
X29328392Y84500000D02*
X32960000Y84500000D01*
X26500000Y81671608D02*
X29328392Y84500000D01*
X32960000Y84500000D02*
X32960000Y82591608D01*
X32960000Y82591608D02*
X34000000Y81551608D01*
X34000000Y81551608D02*
X34000000Y81000000D01*
X35500000Y84500000D02*
X40352000Y84500000D01*
X40352000Y84500000D02*
X40664000Y84812000D01*
D24*
X24000000Y85600000D02*
X28600000Y90200000D01*
X28600000Y90200000D02*
X28600000Y95426602D01*
X28600000Y95426602D02*
X28519001Y95507601D01*
X20924999Y75024999D02*
X24000000Y78100000D01*
X14142003Y78874999D02*
X22874999Y78874999D01*
X22874999Y78874999D02*
X24000000Y80000000D01*
X4525001Y80525001D02*
X4500000Y80500000D01*
X14142003Y78874999D02*
X12492001Y80525001D01*
X12492001Y80525001D02*
X4525001Y80525001D01*
X15087001Y49549409D02*
X15087001Y61927001D01*
X15087001Y61927001D02*
X18040000Y64880000D01*
X19573770Y12426230D02*
X19073770Y12426230D01*
X18500000Y14500000D02*
X19500000Y15500000D01*
X19073770Y12426230D02*
X18500000Y13000000D01*
X18500000Y13000000D02*
X18500000Y14500000D01*
X5529991Y16604999D02*
X5604999Y16604999D01*
X5604999Y16604999D02*
X6000000Y17000000D01*
D26*
X21620000Y5320000D02*
X21620000Y2780000D01*
D24*
X12462988Y39400601D02*
X18576596Y33286993D01*
X3500000Y59218763D02*
X12462988Y50255775D01*
X16099978Y34247001D02*
X16099978Y30818851D01*
X23436999Y26992999D02*
X22860000Y26416000D01*
D26*
X2181920Y31832001D02*
X2032000Y31682081D01*
D24*
X27262001Y19007001D02*
X24305419Y19007001D01*
D26*
X19539263Y14703192D02*
X19539263Y14137507D01*
D24*
X3500000Y69160000D02*
X3500000Y59218763D01*
X7950011Y55405162D02*
X12912999Y50442174D01*
X5324999Y63364999D02*
X5324999Y60889999D01*
X6500000Y72160000D02*
X3500000Y69160000D01*
X22860000Y26416000D02*
X22860000Y19777837D01*
X13383958Y19812000D02*
X14399958Y20828000D01*
X12192000Y19812000D02*
X13383958Y19812000D01*
X12462988Y50255775D02*
X12462988Y39400601D01*
X7573011Y60725001D02*
X7950011Y60348001D01*
D26*
X15974978Y13564978D02*
X15974978Y28971026D01*
D24*
X7950011Y60348001D02*
X7950011Y55405162D01*
X15124968Y21508036D02*
X15124968Y18675021D01*
X12912999Y50442174D02*
X12912999Y41087001D01*
D26*
X13114003Y31832001D02*
X2181920Y31832001D01*
D24*
X5489997Y60725001D02*
X7573011Y60725001D01*
X6500000Y64540000D02*
X5324999Y63364999D01*
X19573770Y12426230D02*
X23500000Y8500000D01*
D26*
X10170000Y7760000D02*
X15974978Y13564978D01*
D24*
X15087001Y49549409D02*
X15087001Y40539375D01*
X15399967Y23654339D02*
X15399967Y26649001D01*
X9648239Y24087001D02*
X10691761Y24087001D01*
X3767001Y34247001D02*
X16099978Y34247001D01*
X5324999Y60889999D02*
X5489997Y60725001D01*
X3048000Y33528000D02*
X3767001Y34247001D01*
X16099978Y30818851D02*
X15824979Y30543852D01*
X11330651Y24379349D02*
X14674957Y24379349D01*
X3207001Y11335001D02*
X5682001Y11335001D01*
X15234968Y33160000D02*
X15374968Y33020000D01*
X11124423Y23654339D02*
X15399967Y23654339D01*
X18576596Y33286993D02*
X18576596Y16101915D01*
X10170000Y25540000D02*
X11330651Y24379349D01*
X2032000Y20320000D02*
X3207001Y19144999D01*
X31750000Y23495000D02*
X27262001Y19007001D01*
X27432000Y32157051D02*
X27432000Y28493238D01*
D26*
X20575011Y34238177D02*
X20575011Y15738940D01*
D24*
X25931761Y26992999D02*
X23436999Y26992999D01*
X31000000Y20000000D02*
X27832999Y16832999D01*
X24305419Y19007001D02*
X22440717Y17142299D01*
X5682001Y11335001D02*
X6096000Y10921002D01*
D26*
X13638009Y41175179D02*
X20575011Y34238177D01*
D24*
X10170000Y33160000D02*
X15234968Y33160000D01*
X22860000Y19777837D02*
X21875032Y18792869D01*
X6096000Y10921002D02*
X6096000Y9523589D01*
D26*
X15974978Y28971026D02*
X13114003Y31832001D01*
D24*
X13633004Y23000000D02*
X15124968Y21508036D01*
X31750000Y37465000D02*
X31750000Y36475051D01*
D26*
X13638009Y46482102D02*
X13638009Y41175179D01*
D24*
X31750000Y36475051D02*
X27432000Y32157051D01*
X27432000Y28493238D02*
X25931761Y26992999D01*
X19500000Y34500000D02*
X19500000Y15500000D01*
X10691761Y24087001D02*
X11124423Y23654339D01*
X23500000Y8500000D02*
X23500000Y8000000D01*
X22440717Y17142299D02*
X21875032Y17142299D01*
X24183000Y6533000D02*
X25410000Y7760000D01*
X10170000Y23000000D02*
X13633004Y23000000D01*
X24888239Y16832999D02*
X21206471Y13151231D01*
X12912999Y41087001D02*
X19500000Y34500000D01*
X2032000Y10160000D02*
X3207001Y11335001D01*
X27832999Y16832999D02*
X24888239Y16832999D01*
X3207001Y19144999D02*
X4946003Y19144999D01*
X9086589Y6533000D02*
X24183000Y6533000D01*
X15399967Y26649001D02*
X15124968Y26924000D01*
D26*
X20575011Y15738940D02*
X19539263Y14703192D01*
D24*
X21150022Y34476354D02*
X21150022Y14899737D01*
X15087001Y40539375D02*
X21150022Y34476354D01*
X21206471Y13151231D02*
X19374089Y13151231D01*
X21150022Y14899737D02*
X20617852Y14367567D01*
X6096000Y9523589D02*
X9086589Y6533000D01*
D26*
X19600001Y61399999D02*
X19600001Y65859999D01*
D24*
X23374999Y62874999D02*
X17627001Y57127001D01*
X20924999Y66780173D02*
X23374999Y64330173D01*
D26*
X19600001Y65859999D02*
X18040000Y67420000D01*
X20000000Y61000000D02*
X19600001Y61399999D01*
D24*
X17627001Y57127001D02*
X17627001Y40942999D01*
X20924999Y75024999D02*
X20924999Y66780173D01*
X17627001Y40942999D02*
X25410000Y33160000D01*
X23374999Y64330173D02*
X23374999Y62874999D01*
X33020000Y13335000D02*
X31725002Y14629998D01*
X31725002Y14629998D02*
X31725002Y21570002D01*
X14500000Y16130000D02*
X14500000Y14000000D01*
X31725002Y21570002D02*
X33650000Y23495000D01*
X10170000Y20460000D02*
X14500000Y16130000D01*
X27000000Y37000000D02*
X27000000Y39190000D01*
X27000000Y39190000D02*
X25410000Y40780000D01*
D28*
X23947999Y49947999D02*
X23947999Y62281259D01*
X23947999Y47322001D02*
X23947999Y49947999D01*
D26*
X23947999Y49947999D02*
X19052001Y49947999D01*
X19052001Y49947999D02*
X18500000Y50500000D01*
D24*
X32174999Y9325001D02*
X33500000Y8000000D01*
X22000000Y11934315D02*
X24721316Y9212999D01*
X22000000Y12500000D02*
X22000000Y11934315D01*
X24721316Y9212999D02*
X28251997Y9212999D01*
X28251997Y9212999D02*
X28363999Y9325001D01*
X28363999Y9325001D02*
X32174999Y9325001D01*
X30497891Y62002109D02*
X28995782Y60500000D01*
X28995782Y60500000D02*
X28500000Y60500000D01*
D28*
X24500000Y64000000D02*
X25800001Y62699999D01*
X25800001Y62699999D02*
X29172001Y62699999D01*
X29172001Y62699999D02*
X30349999Y63877997D01*
X30349999Y63877997D02*
X30349999Y75129997D01*
X30349999Y75129997D02*
X30500001Y75279999D01*
X30500001Y75279999D02*
X30500001Y79419999D01*
X30500001Y79419999D02*
X28920000Y81000000D01*
X25410000Y45860000D02*
X23947999Y47322001D01*
X24500000Y62833260D02*
X24500000Y64000000D01*
X23947999Y62281259D02*
X24500000Y62833260D01*
D26*
X7000000Y60000000D02*
X4500000Y60000000D01*
X699999Y45750001D02*
X699999Y55699999D01*
X699999Y55699999D02*
X699999Y55939999D01*
X2000000Y44450000D02*
X699999Y45750001D01*
D24*
X24549154Y44450846D02*
X25609608Y44450846D01*
X25609608Y44450846D02*
X26581464Y45422702D01*
X26581464Y45422702D02*
X26581464Y57081464D01*
X26581464Y57081464D02*
X28500000Y59000000D01*
X29969944Y40319468D02*
X29969944Y35500939D01*
X26497001Y32027996D02*
X26497001Y29997001D01*
X25667001Y29167001D02*
X24888239Y29167001D01*
X24888239Y29167001D02*
X22000000Y26278762D01*
X22000000Y26278762D02*
X22000000Y21500000D01*
X29969944Y35500939D02*
X26497001Y32027996D01*
X26497001Y29997001D02*
X25667001Y29167001D01*
X23500000Y13000000D02*
X23500000Y12210000D01*
X23500000Y12210000D02*
X25410000Y10300000D01*
X8335000Y86635000D02*
X8335000Y89635000D01*
X8335000Y89635000D02*
X12034999Y93334999D01*
X12034999Y93334999D02*
X14961153Y93334999D01*
X18963162Y97337009D02*
X26689593Y97337009D01*
X14961153Y93334999D02*
X18963162Y97337009D01*
X26689593Y97337009D02*
X28519001Y95507601D01*
X10170000Y51830000D02*
X1500000Y60500000D01*
X1500000Y71439002D02*
X6635997Y76574999D01*
X10170000Y50940000D02*
X10170000Y51830000D01*
X1500000Y60500000D02*
X1500000Y71439002D01*
X6635997Y76574999D02*
X14074999Y76574999D01*
X14074999Y76574999D02*
X15000000Y77500000D01*
D27*
X25654001Y96011999D02*
X26924000Y94742000D01*
X19511999Y96011999D02*
X25654001Y96011999D01*
X15000000Y91500000D02*
X19511999Y96011999D01*
X3890000Y87270000D02*
X3890000Y83372204D01*
X3890000Y83372204D02*
X5205421Y82056783D01*
X5205421Y82056783D02*
X15794385Y82056783D01*
X15794385Y82056783D02*
X26924000Y93186398D01*
X26924000Y93186398D02*
X26924000Y94742000D01*
X12780000Y87270000D02*
X17352000Y87270000D01*
X17352000Y87270000D02*
X18300000Y88218000D01*
D24*
X36500000Y8000000D02*
X36500000Y11735000D01*
X36500000Y11735000D02*
X38100000Y13335000D01*
X36500000Y1500000D02*
X36500000Y8000000D01*
X29000000Y1500000D02*
X30325001Y2825001D01*
X35174999Y2825001D02*
X36500000Y1500000D01*
X30325001Y2825001D02*
X35174999Y2825001D01*
X29000000Y1500000D02*
X29000000Y8000000D01*
X21620000Y2780000D02*
X22607001Y3767001D01*
X22607001Y3767001D02*
X26732999Y3767001D01*
X26732999Y3767001D02*
X29000000Y1500000D01*
X7620000Y28956000D02*
X8196999Y29532999D01*
X8196999Y29532999D02*
X11532999Y29532999D01*
X11532999Y29532999D02*
X12500000Y30500000D01*
X8000000Y51000000D02*
X5610000Y51000000D01*
X5610000Y51000000D02*
X2000000Y54610000D01*
X27852639Y47752000D02*
X27031474Y46930835D01*
X27031474Y46930835D02*
X27031474Y41090202D01*
X23585010Y25781605D02*
X25123954Y24242661D01*
X25123954Y24242661D02*
X25721423Y24242661D01*
X25721423Y24242661D02*
X31089032Y29610270D01*
X31089032Y29610270D02*
X31089032Y34634153D01*
X28448000Y12700000D02*
X25768000Y15380000D01*
X33650000Y36122117D02*
X33650000Y37465000D01*
X31742499Y34214616D02*
X33650000Y36122117D01*
X33020000Y28555000D02*
X31742499Y29832501D01*
X33020000Y27305000D02*
X33020000Y28555000D01*
X31742499Y29832501D02*
X31742499Y34214616D01*
X31742499Y57908675D02*
X31742499Y63497499D01*
X31742499Y63497499D02*
X33650000Y65405000D01*
D26*
X2032000Y31682081D02*
X2032000Y30480000D01*
X2032000Y31682081D02*
X731999Y32982082D01*
X731999Y32982082D02*
X731999Y43181999D01*
X731999Y43181999D02*
X2000000Y44450000D01*
D24*
X8472313Y27750688D02*
X9230002Y26992999D01*
X12631001Y26992999D02*
X13965340Y25658660D01*
X9230002Y26992999D02*
X12631001Y26992999D01*
X3395279Y26576721D02*
X6586363Y26576721D01*
X6586363Y26576721D02*
X6986362Y26976720D01*
X2032000Y27940000D02*
X3395279Y26576721D01*
X3207001Y21684999D02*
X5747001Y21684999D01*
X2032000Y22860000D02*
X3207001Y21684999D01*
X5747001Y21684999D02*
X7620000Y19812000D01*
X3207001Y16604999D02*
X5529991Y16604999D01*
X2032000Y17780000D02*
X3207001Y16604999D01*
X25410000Y2680000D02*
X24322999Y1592999D01*
X24322999Y1592999D02*
X9648239Y1592999D01*
X9648239Y1592999D02*
X8075001Y3166237D01*
X8075001Y3166237D02*
X8075001Y5956001D01*
X8075001Y5956001D02*
X5046003Y8984999D01*
X5046003Y8984999D02*
X1467999Y8984999D01*
X1467999Y8984999D02*
X856999Y9595999D01*
X856999Y9595999D02*
X856999Y14064999D01*
X856999Y14064999D02*
X2032000Y15240000D01*
D29*
X35560000Y74493055D02*
X37311955Y76245010D01*
X37311955Y76245010D02*
X40850990Y76245010D01*
X40850990Y76245010D02*
X41404000Y75692000D01*
X41404000Y75692000D02*
X44704000Y75692000D01*
X35560000Y69413055D02*
X37311955Y71165010D01*
X37311955Y71165010D02*
X40850990Y71165010D01*
X40850990Y71165010D02*
X41404000Y70612000D01*
X41404000Y70612000D02*
X44704000Y70612000D01*
X35560000Y60523055D02*
X38791944Y63754999D01*
X38791944Y63754999D02*
X39626999Y63754999D01*
X39626999Y63754999D02*
X41404000Y65532000D01*
X41404000Y65532000D02*
X44704000Y65532000D01*
X41404000Y55372000D02*
X44704000Y55372000D01*
X35560000Y55443055D02*
X37311955Y57195010D01*
X37311955Y57195010D02*
X39580990Y57195010D01*
X39580990Y57195010D02*
X41404000Y55372000D01*
X35560000Y46553055D02*
X38791944Y49784999D01*
X38791944Y49784999D02*
X40896999Y49784999D01*
X40896999Y49784999D02*
X41404000Y50292000D01*
X41404000Y50292000D02*
X44704000Y50292000D01*
X35560000Y41275000D02*
X35560000Y43704979D01*
X35560000Y43704979D02*
X43196979Y43704979D01*
X43196979Y43704979D02*
X44704000Y45212000D01*
D25*
X44704000Y60452000D02*
X47674001Y57481999D01*
X47674001Y57481999D02*
X47674001Y43102001D01*
X44704000Y40132000D02*
X47674001Y43102001D01*
X44704000Y80772000D02*
X47674001Y77801999D01*
X47674001Y77801999D02*
X47674001Y63422001D01*
X44704000Y60452000D02*
X47674001Y63422001D01*
D28*
X40213998Y84812000D02*
X40664000Y84812000D01*
D25*
X40664000Y84812000D02*
X44704000Y80772000D01*
D29*
X35560000Y32583055D02*
X38028945Y35052000D01*
X38028945Y35052000D02*
X44704000Y35052000D01*
X35560000Y27503055D02*
X38028945Y29972000D01*
X38028945Y29972000D02*
X44704000Y29972000D01*
X35560000Y18613055D02*
X38791944Y21844999D01*
X38791944Y21844999D02*
X40896999Y21844999D01*
X40896999Y21844999D02*
X43944000Y24892000D01*
X38491935Y16464990D02*
X40596990Y16464990D01*
X35560000Y13533055D02*
X38491935Y16464990D01*
X40596990Y16464990D02*
X43944000Y19812000D01*
M02*
