%TF.GenerationSoftware,KiCad,Pcbnew,(5.99.0-1450-gc67d5d7f2)*%
%TF.CreationDate,2020-04-28T18:22:32-07:00*%
%TF.ProjectId,DMX_CTRL,444d585f-4354-4524-9c2e-6b696361645f,rev?*%
%TF.SameCoordinates,PX4c4b400PY8f0d180*%
%TF.FileFunction,Soldermask,Bot*%
%TF.FilePolarity,Negative*%
%FSLAX46Y46*%
G04 Gerber Fmt 4.6, Leading zero omitted, Abs format (unit mm)*
G04 Created by KiCad (PCBNEW (5.99.0-1450-gc67d5d7f2)) date 2020-04-28 18:22:32*
%MOMM*%
%LPD*%
G01*
G04 APERTURE LIST*
%ADD10C,0.150000*%
%TA.AperFunction,Profile*%
%ADD11C,0.150000*%
%TD*%
%ADD12C,1.626000*%
%ADD13O,2.007000X2.102000*%
%ADD14C,5.102000*%
%ADD15C,2.102000*%
%ADD16O,1.502000X1.502000*%
%ADD17C,1.502000*%
%ADD18C,7.602000*%
%ADD19C,2.642000*%
%ADD20C,1.702000*%
%ADD21O,1.802000X1.802000*%
G04 APERTURE END LIST*
D10*
G36*
X38200000Y89000000D02*
G01*
X41800000Y85200000D01*
X48800000Y78200000D01*
X48800000Y63000000D01*
X46400000Y60400000D01*
X48800000Y58000000D01*
X48800000Y42600000D01*
X45600000Y39400000D01*
X44200000Y41200000D01*
X46600000Y43400000D01*
X46600000Y57000000D01*
X44200000Y59400000D01*
X44000000Y61400000D01*
X46600000Y64000000D01*
X46600000Y77400000D01*
X36000000Y88000000D01*
X36000000Y94400000D01*
X38200000Y94400000D01*
X38200000Y89000000D01*
G37*
X38200000Y89000000D02*
X41800000Y85200000D01*
X48800000Y78200000D01*
X48800000Y63000000D01*
X46400000Y60400000D01*
X48800000Y58000000D01*
X48800000Y42600000D01*
X45600000Y39400000D01*
X44200000Y41200000D01*
X46600000Y43400000D01*
X46600000Y57000000D01*
X44200000Y59400000D01*
X44000000Y61400000D01*
X46600000Y64000000D01*
X46600000Y77400000D01*
X36000000Y88000000D01*
X36000000Y94400000D01*
X38200000Y94400000D01*
X38200000Y89000000D01*
D11*
X1666666Y0D02*
G75*
G03*
X1666666Y0I-1666666J0D01*
G01*
X-2500000Y0D02*
X2500000Y0D01*
X0Y2500000D02*
X0Y-2500000D01*
X0Y100000000D02*
X0Y0D01*
X50000000Y100000000D02*
X0Y100000000D01*
X50000000Y0D02*
X50000000Y100000000D01*
X0Y0D02*
X50000000Y0D01*
D10*
G36*
X38200000Y89000000D02*
G01*
X41800000Y85200000D01*
X48800000Y78200000D01*
X48800000Y63000000D01*
X46400000Y60400000D01*
X48800000Y58000000D01*
X48800000Y42600000D01*
X45600000Y39400000D01*
X44200000Y41200000D01*
X46600000Y43400000D01*
X46600000Y57000000D01*
X44200000Y59400000D01*
X44000000Y61400000D01*
X46600000Y64000000D01*
X46600000Y77400000D01*
X36000000Y88000000D01*
X36000000Y94400000D01*
X38200000Y94400000D01*
X38200000Y89000000D01*
G37*
X38200000Y89000000D02*
X41800000Y85200000D01*
X48800000Y78200000D01*
X48800000Y63000000D01*
X46400000Y60400000D01*
X48800000Y58000000D01*
X48800000Y42600000D01*
X45600000Y39400000D01*
X44200000Y41200000D01*
X46600000Y43400000D01*
X46600000Y57000000D01*
X44200000Y59400000D01*
X44000000Y61400000D01*
X46600000Y64000000D01*
X46600000Y77400000D01*
X36000000Y88000000D01*
X36000000Y94400000D01*
X38200000Y94400000D01*
X38200000Y89000000D01*
D11*
X1666666Y0D02*
G75*
G03*
X1666666Y0I-1666666J0D01*
G01*
X-2500000Y0D02*
X2500000Y0D01*
X0Y2500000D02*
X0Y-2500000D01*
X0Y100000000D02*
X0Y0D01*
X50000000Y100000000D02*
X0Y100000000D01*
X50000000Y0D02*
X50000000Y100000000D01*
X0Y0D02*
X50000000Y0D01*
D12*
X10170000Y2680000D03*
X10170000Y15380000D03*
X10170000Y33160000D03*
X10170000Y43320000D03*
X10170000Y5220000D03*
X10170000Y28080000D03*
X10170000Y10300000D03*
X10170000Y12840000D03*
X10170000Y7760000D03*
X10170000Y30620000D03*
X10170000Y25540000D03*
X10170000Y38240000D03*
X10170000Y17920000D03*
X10170000Y45860000D03*
X10170000Y40780000D03*
X10170000Y35700000D03*
X10170000Y48400000D03*
X10170000Y23000000D03*
X10170000Y50940000D03*
X10170000Y20460000D03*
X25410000Y2680000D03*
X25410000Y5220000D03*
X25410000Y7760000D03*
X25410000Y10300000D03*
X25410000Y12840000D03*
X25410000Y20460000D03*
X25410000Y15380000D03*
X25410000Y17920000D03*
X25410000Y23000000D03*
X25410000Y25540000D03*
X25410000Y28080000D03*
X25410000Y33160000D03*
X25410000Y30620000D03*
X25410000Y35700000D03*
X25410000Y38240000D03*
X25410000Y45860000D03*
X25410000Y40780000D03*
X25410000Y43320000D03*
X25410000Y48400000D03*
X25410000Y50940000D03*
D13*
X28920000Y81000000D03*
X31460000Y81000000D03*
G36*
G01*
X35003500Y82000000D02*
X35003500Y80000000D01*
G75*
G02*
X34952500Y79949000I-51000J0D01*
G01*
X33047500Y79949000D01*
G75*
G02*
X32996500Y80000000I0J51000D01*
G01*
X32996500Y82000000D01*
G75*
G02*
X33047500Y82051000I51000J0D01*
G01*
X34952500Y82051000D01*
G75*
G02*
X35003500Y82000000I0J-51000D01*
G01*
G37*
X38100000Y13335000D03*
X35560000Y13335000D03*
G36*
G01*
X32016500Y12335000D02*
X32016500Y14335000D01*
G75*
G02*
X32067500Y14386000I51000J0D01*
G01*
X33972500Y14386000D01*
G75*
G02*
X34023500Y14335000I0J-51000D01*
G01*
X34023500Y12335000D01*
G75*
G02*
X33972500Y12284000I-51000J0D01*
G01*
X32067500Y12284000D01*
G75*
G02*
X32016500Y12335000I0J51000D01*
G01*
G37*
X38100000Y18415000D03*
X35560000Y18415000D03*
G36*
G01*
X32016500Y17415000D02*
X32016500Y19415000D01*
G75*
G02*
X32067500Y19466000I51000J0D01*
G01*
X33972500Y19466000D01*
G75*
G02*
X34023500Y19415000I0J-51000D01*
G01*
X34023500Y17415000D01*
G75*
G02*
X33972500Y17364000I-51000J0D01*
G01*
X32067500Y17364000D01*
G75*
G02*
X32016500Y17415000I0J51000D01*
G01*
G37*
X38100000Y27305000D03*
X35560000Y27305000D03*
G36*
G01*
X32016500Y26305000D02*
X32016500Y28305000D01*
G75*
G02*
X32067500Y28356000I51000J0D01*
G01*
X33972500Y28356000D01*
G75*
G02*
X34023500Y28305000I0J-51000D01*
G01*
X34023500Y26305000D01*
G75*
G02*
X33972500Y26254000I-51000J0D01*
G01*
X32067500Y26254000D01*
G75*
G02*
X32016500Y26305000I0J51000D01*
G01*
G37*
X38100000Y32385000D03*
X35560000Y32385000D03*
G36*
G01*
X32016500Y31385000D02*
X32016500Y33385000D01*
G75*
G02*
X32067500Y33436000I51000J0D01*
G01*
X33972500Y33436000D01*
G75*
G02*
X34023500Y33385000I0J-51000D01*
G01*
X34023500Y31385000D01*
G75*
G02*
X33972500Y31334000I-51000J0D01*
G01*
X32067500Y31334000D01*
G75*
G02*
X32016500Y31385000I0J51000D01*
G01*
G37*
X38100000Y41275000D03*
X35560000Y41275000D03*
G36*
G01*
X32016500Y40275000D02*
X32016500Y42275000D01*
G75*
G02*
X32067500Y42326000I51000J0D01*
G01*
X33972500Y42326000D01*
G75*
G02*
X34023500Y42275000I0J-51000D01*
G01*
X34023500Y40275000D01*
G75*
G02*
X33972500Y40224000I-51000J0D01*
G01*
X32067500Y40224000D01*
G75*
G02*
X32016500Y40275000I0J51000D01*
G01*
G37*
X38100000Y46355000D03*
X35560000Y46355000D03*
G36*
G01*
X32016500Y45355000D02*
X32016500Y47355000D01*
G75*
G02*
X32067500Y47406000I51000J0D01*
G01*
X33972500Y47406000D01*
G75*
G02*
X34023500Y47355000I0J-51000D01*
G01*
X34023500Y45355000D01*
G75*
G02*
X33972500Y45304000I-51000J0D01*
G01*
X32067500Y45304000D01*
G75*
G02*
X32016500Y45355000I0J51000D01*
G01*
G37*
X38100000Y60325000D03*
X35560000Y60325000D03*
G36*
G01*
X32016500Y59325000D02*
X32016500Y61325000D01*
G75*
G02*
X32067500Y61376000I51000J0D01*
G01*
X33972500Y61376000D01*
G75*
G02*
X34023500Y61325000I0J-51000D01*
G01*
X34023500Y59325000D01*
G75*
G02*
X33972500Y59274000I-51000J0D01*
G01*
X32067500Y59274000D01*
G75*
G02*
X32016500Y59325000I0J51000D01*
G01*
G37*
X38100000Y55245000D03*
X35560000Y55245000D03*
G36*
G01*
X32016500Y54245000D02*
X32016500Y56245000D01*
G75*
G02*
X32067500Y56296000I51000J0D01*
G01*
X33972500Y56296000D01*
G75*
G02*
X34023500Y56245000I0J-51000D01*
G01*
X34023500Y54245000D01*
G75*
G02*
X33972500Y54194000I-51000J0D01*
G01*
X32067500Y54194000D01*
G75*
G02*
X32016500Y54245000I0J51000D01*
G01*
G37*
X38100000Y69215000D03*
X35560000Y69215000D03*
G36*
G01*
X32016500Y68215000D02*
X32016500Y70215000D01*
G75*
G02*
X32067500Y70266000I51000J0D01*
G01*
X33972500Y70266000D01*
G75*
G02*
X34023500Y70215000I0J-51000D01*
G01*
X34023500Y68215000D01*
G75*
G02*
X33972500Y68164000I-51000J0D01*
G01*
X32067500Y68164000D01*
G75*
G02*
X32016500Y68215000I0J51000D01*
G01*
G37*
X38100000Y74295000D03*
X35560000Y74295000D03*
G36*
G01*
X32016500Y73295000D02*
X32016500Y75295000D01*
G75*
G02*
X32067500Y75346000I51000J0D01*
G01*
X33972500Y75346000D01*
G75*
G02*
X34023500Y75295000I0J-51000D01*
G01*
X34023500Y73295000D01*
G75*
G02*
X33972500Y73244000I-51000J0D01*
G01*
X32067500Y73244000D01*
G75*
G02*
X32016500Y73295000I0J51000D01*
G01*
G37*
D12*
X21620000Y2780000D03*
X19080000Y2780000D03*
X16540000Y2780000D03*
X14000000Y2780000D03*
X14000000Y5320000D03*
X16540000Y5320000D03*
X19080000Y5320000D03*
X21620000Y5320000D03*
X21620000Y48500000D03*
X19080000Y48500000D03*
X16540000Y48500000D03*
X14000000Y48500000D03*
D14*
X12780000Y96160000D03*
X3890000Y96160000D03*
G36*
G01*
X3512859Y83208662D02*
X2582641Y83406386D01*
G75*
G02*
X2216394Y83970357I98862J465109D01*
G01*
X3703170Y90965091D01*
G75*
G02*
X4267141Y91331338I465109J-98862D01*
G01*
X5197359Y91133614D01*
G75*
G02*
X5563606Y90569643I-98862J-465109D01*
G01*
X4076830Y83574909D01*
G75*
G02*
X3512859Y83208662I-465109J98862D01*
G01*
G37*
G36*
G01*
X8810500Y83584000D02*
X7859500Y83584000D01*
G75*
G02*
X7384000Y84059500I0J475500D01*
G01*
X7384000Y89210500D01*
G75*
G02*
X7859500Y89686000I475500J0D01*
G01*
X8810500Y89686000D01*
G75*
G02*
X9286000Y89210500I0J-475500D01*
G01*
X9286000Y84059500D01*
G75*
G02*
X8810500Y83584000I-475500J0D01*
G01*
G37*
G36*
G01*
X14087359Y83406386D02*
X13157141Y83208662D01*
G75*
G02*
X12593170Y83574909I-98862J465109D01*
G01*
X11106394Y90569643D01*
G75*
G02*
X11472641Y91133614I465109J98862D01*
G01*
X12402859Y91331338D01*
G75*
G02*
X12966830Y90965091I98862J-465109D01*
G01*
X14453606Y83970357D01*
G75*
G02*
X14087359Y83406386I-465109J-98862D01*
G01*
G37*
D15*
X41000000Y1500000D03*
X36500000Y1500000D03*
X41000000Y8000000D03*
X36500000Y8000000D03*
D16*
X12000000Y79500000D03*
D17*
X12000000Y77600000D03*
D16*
X8500000Y79500000D03*
D17*
X8500000Y77600000D03*
D18*
X46000000Y4000000D03*
D12*
X18040000Y72500000D03*
X18040000Y69960000D03*
X18040000Y67420000D03*
X18040000Y64880000D03*
X15500000Y64880000D03*
X15500000Y67420000D03*
X15500000Y69960000D03*
X15500000Y72500000D03*
D17*
X24000000Y85600000D03*
D16*
X24000000Y83700000D03*
D19*
X21500000Y93218000D03*
X21300000Y83218000D03*
X18300000Y88218000D03*
D20*
X15000000Y77500000D03*
X15000000Y80000000D03*
X26500000Y76000000D03*
X29000000Y76000000D03*
X24500000Y64000000D03*
X22000000Y64000000D03*
D18*
X4000000Y4000000D03*
X25000000Y70000000D03*
G36*
G01*
X5473000Y36918000D02*
X5473000Y35218000D01*
G75*
G02*
X5422000Y35167000I-51000J0D01*
G01*
X3722000Y35167000D01*
G75*
G02*
X3671000Y35218000I0J51000D01*
G01*
X3671000Y36918000D01*
G75*
G02*
X3722000Y36969000I51000J0D01*
G01*
X5422000Y36969000D01*
G75*
G02*
X5473000Y36918000I0J-51000D01*
G01*
G37*
D21*
X2032000Y36068000D03*
X4572000Y38608000D03*
X2032000Y38608000D03*
G36*
G01*
X5473000Y11010000D02*
X5473000Y9310000D01*
G75*
G02*
X5422000Y9259000I-51000J0D01*
G01*
X3722000Y9259000D01*
G75*
G02*
X3671000Y9310000I0J51000D01*
G01*
X3671000Y11010000D01*
G75*
G02*
X3722000Y11061000I51000J0D01*
G01*
X5422000Y11061000D01*
G75*
G02*
X5473000Y11010000I0J-51000D01*
G01*
G37*
X2032000Y10160000D03*
X4572000Y12700000D03*
X2032000Y12700000D03*
X4572000Y15240000D03*
X2032000Y15240000D03*
X4572000Y17780000D03*
X2032000Y17780000D03*
X4572000Y20320000D03*
X2032000Y20320000D03*
X4572000Y22860000D03*
X2032000Y22860000D03*
X4572000Y25400000D03*
X2032000Y25400000D03*
X4572000Y27940000D03*
X2032000Y27940000D03*
X4572000Y30480000D03*
X2032000Y30480000D03*
X32960000Y84500000D03*
G36*
G01*
X34650000Y85401000D02*
X36350000Y85401000D01*
G75*
G02*
X36401000Y85350000I0J-51000D01*
G01*
X36401000Y83650000D01*
G75*
G02*
X36350000Y83599000I-51000J0D01*
G01*
X34650000Y83599000D01*
G75*
G02*
X34599000Y83650000I0J51000D01*
G01*
X34599000Y85350000D01*
G75*
G02*
X34650000Y85401000I51000J0D01*
G01*
G37*
G36*
G01*
X1099000Y56300000D02*
X1099000Y58000000D01*
G75*
G02*
X1150000Y58051000I51000J0D01*
G01*
X2850000Y58051000D01*
G75*
G02*
X2901000Y58000000I0J-51000D01*
G01*
X2901000Y56300000D01*
G75*
G02*
X2850000Y56249000I-51000J0D01*
G01*
X1150000Y56249000D01*
G75*
G02*
X1099000Y56300000I0J51000D01*
G01*
G37*
X2000000Y54610000D03*
X2000000Y52070000D03*
X2000000Y49530000D03*
X2000000Y46990000D03*
X2000000Y44450000D03*
G36*
G01*
X3150000Y78901000D02*
X4850000Y78901000D01*
G75*
G02*
X4901000Y78850000I0J-51000D01*
G01*
X4901000Y77150000D01*
G75*
G02*
X4850000Y77099000I-51000J0D01*
G01*
X3150000Y77099000D01*
G75*
G02*
X3099000Y77150000I0J51000D01*
G01*
X3099000Y78850000D01*
G75*
G02*
X3150000Y78901000I51000J0D01*
G01*
G37*
X1460000Y78000000D03*
X6500000Y74700000D03*
X6500000Y72160000D03*
X6500000Y69620000D03*
X6500000Y67080000D03*
X6500000Y64540000D03*
G36*
G01*
X7401000Y62850000D02*
X7401000Y61150000D01*
G75*
G02*
X7350000Y61099000I-51000J0D01*
G01*
X5650000Y61099000D01*
G75*
G02*
X5599000Y61150000I0J51000D01*
G01*
X5599000Y62850000D01*
G75*
G02*
X5650000Y62901000I51000J0D01*
G01*
X7350000Y62901000D01*
G75*
G02*
X7401000Y62850000I0J-51000D01*
G01*
G37*
D17*
X31750000Y65405000D03*
D16*
X33650000Y65405000D03*
X38730000Y51435000D03*
D17*
X36830000Y51435000D03*
X31750000Y51435000D03*
D16*
X33650000Y51435000D03*
X38730000Y37465000D03*
D17*
X36830000Y37465000D03*
X31750000Y37465000D03*
D16*
X33650000Y37465000D03*
X38730000Y23495000D03*
D17*
X36830000Y23495000D03*
D16*
X33650000Y23495000D03*
D17*
X31750000Y23495000D03*
X28500000Y64100000D03*
D16*
X28500000Y66000000D03*
D17*
X28500000Y58600000D03*
D16*
X28500000Y60500000D03*
X38730000Y65405000D03*
D17*
X36830000Y65405000D03*
D16*
X24000000Y78100000D03*
D17*
X24000000Y80000000D03*
D15*
X33500000Y1500000D03*
X29000000Y1500000D03*
X33500000Y8000000D03*
X29000000Y8000000D03*
D19*
X44704000Y14732000D03*
X44704000Y19812000D03*
X44704000Y24892000D03*
X44704000Y29972000D03*
X44704000Y35052000D03*
X44704000Y40132000D03*
X44704000Y45212000D03*
X44704000Y50292000D03*
X44704000Y55372000D03*
X44704000Y60452000D03*
X44704000Y65532000D03*
X44704000Y70612000D03*
X44704000Y75692000D03*
X44704000Y80772000D03*
X26924000Y94742000D03*
X32004000Y94742000D03*
X37084000Y94742000D03*
X42164000Y94742000D03*
X47244000Y94742000D03*
M02*
