M48
; DRILL file {KiCad (5.99.0-1450-gc67d5d7f2)} date Tuesday, April 28, 2020 at 06:23:19 PM
; FORMAT={-:-/ absolute / inch / decimal}
; #@! TF.CreationDate,2020-04-28T18:23:19-07:00
; #@! TF.GenerationSoftware,Kicad,Pcbnew,(5.99.0-1450-gc67d5d7f2)
; #@! TF.FileFunction,Plated,1,2,PTH
FMAT,2
INCH
T1C0.0157
T2C0.0276
T3C0.0300
T4C0.0315
T5C0.0394
T6C0.0433
T7C0.0551
T8C0.0600
T9C0.1575
T10C0.1693
%
G90
G05
T1
X0.0276Y2.1929
X0.12Y1.32
X0.1772Y3.1693
X0.1772Y2.3622
X0.2362Y0.6693
X0.2598Y0.7795
X0.2751Y1.0621
X0.2756Y2.3622
X0.3Y1.84
X0.3Y1.14
X0.3Y0.78
X0.315Y2.0079
X0.32Y1.94
X0.3336Y1.0925
X0.3543Y0.9449
X0.48Y0.78
X0.4921Y1.2008
X0.5369Y1.83
X0.5498Y1.0102
X0.5669Y0.82
X0.5709Y0.5512
X0.5778Y0.9598
X0.5906Y3.6024
X0.5955Y1.06
X0.5955Y0.7352
X0.6053Y1.3
X0.623Y1.2025
X0.7283Y1.9882
X0.7314Y0.6339
X0.7628Y0.5178
X0.7693Y0.5566
X0.7874Y2.4016
X0.8117Y0.5657
X0.8612Y0.7399
X0.8612Y0.6749
X0.8661Y0.8465
X0.8661Y0.4921
X0.9252Y1.5748
X0.9252Y0.5118
X0.9252Y0.315
X0.9285Y1.015
X0.9665Y1.75
X1.063Y1.4567
X1.0642Y1.6177
X1.0966Y1.88
X1.12Y0.5
X1.122Y2.0276
X1.1428Y1.9372
X1.1514Y1.5017
X1.2007Y2.441
X1.2205Y0.7874
X1.224Y1.3635
X1.8976Y3.315
T2
X0.4724Y3.1299
X0.4724Y3.0551
X0.3346Y3.1299
X0.3346Y3.0551
X0.9449Y3.3701
X0.9449Y3.2953
X1.25Y2.575
X1.3248Y2.575
X1.45Y2.025
X1.5248Y2.025
X1.25Y2.025
X1.3248Y2.025
X1.45Y1.475
X1.5248Y1.475
X1.25Y1.475
X1.3248Y1.475
X1.45Y0.925
X1.5248Y0.925
X1.25Y0.925
X1.3248Y0.925
X1.122Y2.5984
X1.122Y2.5236
X1.122Y2.3819
X1.122Y2.3071
X1.45Y2.575
X1.5248Y2.575
X0.9449Y3.1496
X0.9449Y3.0748
T3
X0.4004Y2.0055
X0.4004Y1.9055
X0.4004Y1.8055
X0.4004Y1.7055
X0.4004Y1.6055
X0.4004Y1.5055
X0.4004Y1.4055
X0.4004Y1.3055
X0.4004Y1.2055
X0.4004Y1.1055
X0.4004Y1.0055
X0.4004Y0.9055
X0.4004Y0.8055
X0.4004Y0.7055
X0.4004Y0.6055
X0.4004Y0.5055
X0.4004Y0.4055
X0.4004Y0.3055
X0.4004Y0.2055
X0.4004Y0.1055
X1.0004Y2.0055
X1.0004Y1.9055
X1.0004Y1.8055
X1.0004Y1.7055
X1.0004Y1.6055
X1.0004Y1.5055
X1.0004Y1.4055
X1.0004Y1.3055
X1.0004Y1.2055
X1.0004Y1.1055
X1.0004Y1.0055
X1.0004Y0.9055
X1.0004Y0.8055
X1.0004Y0.7055
X1.0004Y0.6055
X1.0004Y0.5055
X1.0004Y0.4055
X1.0004Y0.3055
X1.0004Y0.2055
X1.0004Y0.1055
X0.6102Y2.8543
X0.6102Y2.7543
X0.6102Y2.6543
X0.6102Y2.5543
X0.7102Y2.8543
X0.7102Y2.7543
X0.7102Y2.6543
X0.7102Y2.5543
X0.5512Y1.9094
X0.5512Y0.2094
X0.5512Y0.1094
X0.6512Y1.9094
X0.6512Y0.2094
X0.6512Y0.1094
X0.7512Y1.9094
X0.7512Y0.2094
X0.7512Y0.1094
X0.8512Y1.9094
X0.8512Y0.2094
X0.8512Y0.1094
T4
X0.5906Y3.1496
X0.5906Y3.0512
X1.0433Y2.9921
X1.1417Y2.9921
X0.8661Y2.5197
X0.9646Y2.5197
T5
X0.08Y1.52
X0.08Y1.42
X0.18Y1.52
X0.18Y1.42
X0.08Y1.2
X0.08Y1.1
X0.08Y1.0
X0.08Y0.9
X0.08Y0.8
X0.08Y0.7
X0.08Y0.6
X0.08Y0.5
X0.08Y0.4
X0.18Y1.2
X0.18Y1.1
X0.18Y1.0
X0.18Y0.9
X0.18Y0.8
X0.18Y0.7
X0.18Y0.6
X0.18Y0.5
X0.18Y0.4
X1.2976Y3.3268
X1.3976Y3.3268
X0.0787Y2.25
X0.0787Y2.15
X0.0787Y2.05
X0.0787Y1.95
X0.0787Y1.85
X0.0787Y1.75
X0.0575Y3.0709
X0.1575Y3.0709
X0.2559Y2.9409
X0.2559Y2.8409
X0.2559Y2.7409
X0.2559Y2.6409
X0.2559Y2.5409
X0.2559Y2.4409
T6
X1.437Y0.315
X1.437Y0.0591
X1.6142Y0.315
X1.6142Y0.0591
X0.7205Y3.4731
X0.8386Y3.2763
X0.8465Y3.67
X1.1417Y0.315
X1.1417Y0.0591
X1.3189Y0.315
X1.3189Y0.0591
T7
X1.3Y1.075
X1.4Y1.075
X1.5Y1.075
X1.1386Y3.189
X1.2386Y3.189
X1.3386Y3.189
X1.3Y2.375
X1.4Y2.375
X1.5Y2.375
X1.3Y0.725
X1.4Y0.725
X1.5Y0.725
X1.3Y2.725
X1.4Y2.725
X1.5Y2.725
X1.3Y2.175
X1.4Y2.175
X1.5Y2.175
X1.3Y1.825
X1.4Y1.825
X1.5Y1.825
X1.3Y2.925
X1.4Y2.925
X1.5Y2.925
X1.3Y1.625
X1.4Y1.625
X1.5Y1.625
X1.3Y0.525
X1.4Y0.525
X1.5Y0.525
X1.3Y1.275
X1.4Y1.275
X1.5Y1.275
T8
X1.76Y3.18
X1.76Y2.98
X1.76Y2.78
X1.76Y2.58
X1.76Y2.38
X1.76Y2.18
X1.76Y1.98
X1.76Y1.78
X1.76Y1.58
X1.76Y1.38
X1.76Y1.18
X1.76Y0.98
X1.76Y0.78
X1.76Y0.58
X1.06Y3.73
X1.26Y3.73
X1.46Y3.73
X1.66Y3.73
X1.86Y3.73
T9
X0.1531Y3.7858
X0.5031Y3.7858
T10
X0.1575Y0.1575
X0.9843Y2.7559
X1.811Y0.1575
T0
M30
