%TF.GenerationSoftware,KiCad,Pcbnew,(5.99.0-1450-gc67d5d7f2)*%
%TF.CreationDate,2020-04-28T18:22:32-07:00*%
%TF.ProjectId,DMX_CTRL,444d585f-4354-4524-9c2e-6b696361645f,rev?*%
%TF.SameCoordinates,PX4c4b400PY8f0d180*%
%TF.FileFunction,Copper,L1,Top*%
%TF.FilePolarity,Positive*%
%FSLAX46Y46*%
G04 Gerber Fmt 4.6, Leading zero omitted, Abs format (unit mm)*
G04 Created by KiCad (PCBNEW (5.99.0-1450-gc67d5d7f2)) date 2020-04-28 18:22:32*
%MOMM*%
%LPD*%
G01*
G04 APERTURE LIST*
%TA.AperFunction,Profile*%
%ADD10C,0.150000*%
%TD*%
%TA.AperFunction,ComponentPad*%
%ADD11C,1.524000*%
%TD*%
%TA.AperFunction,ComponentPad*%
%ADD12O,1.905000X2.000000*%
%TD*%
%TA.AperFunction,ComponentPad*%
%ADD13R,1.905000X2.000000*%
%TD*%
%TA.AperFunction,ComponentPad*%
%ADD14C,5.000000*%
%TD*%
%TA.AperFunction,ComponentPad*%
%ADD15C,2.000000*%
%TD*%
%TA.AperFunction,ComponentPad*%
%ADD16O,1.400000X1.400000*%
%TD*%
%TA.AperFunction,ComponentPad*%
%ADD17C,1.400000*%
%TD*%
%TA.AperFunction,ComponentPad*%
%ADD18C,7.500000*%
%TD*%
%TA.AperFunction,ComponentPad*%
%ADD19C,2.540000*%
%TD*%
%TA.AperFunction,ComponentPad*%
%ADD20C,1.600000*%
%TD*%
%TA.AperFunction,ComponentPad*%
%ADD21R,1.700000X1.700000*%
%TD*%
%TA.AperFunction,ComponentPad*%
%ADD22O,1.700000X1.700000*%
%TD*%
%TA.AperFunction,ViaPad*%
%ADD23C,0.800000*%
%TD*%
%TA.AperFunction,Conductor*%
%ADD24C,0.250000*%
%TD*%
%TA.AperFunction,Conductor*%
%ADD25C,0.500000*%
%TD*%
%TA.AperFunction,Conductor*%
%ADD26C,2.500000*%
%TD*%
%TA.AperFunction,Conductor*%
%ADD27C,2.000000*%
%TD*%
%TA.AperFunction,Conductor*%
%ADD28C,3.000000*%
%TD*%
%TA.AperFunction,Conductor*%
%ADD29C,1.000000*%
%TD*%
%TA.AperFunction,Conductor*%
%ADD30C,1.500000*%
%TD*%
G04 APERTURE END LIST*
D10*
X1666666Y0D02*
G75*
G03*
X1666666Y0I-1666666J0D01*
G01*
X-2500000Y0D02*
X2500000Y0D01*
X0Y2500000D02*
X0Y-2500000D01*
X0Y100000000D02*
X0Y0D01*
X50000000Y100000000D02*
X0Y100000000D01*
X50000000Y0D02*
X50000000Y100000000D01*
X0Y0D02*
X50000000Y0D01*
D11*
X10170000Y2680000D03*
X10170000Y15380000D03*
X10170000Y33160000D03*
X10170000Y43320000D03*
X10170000Y5220000D03*
X10170000Y28080000D03*
X10170000Y10300000D03*
X10170000Y12840000D03*
X10170000Y7760000D03*
X10170000Y30620000D03*
X10170000Y25540000D03*
X10170000Y38240000D03*
X10170000Y17920000D03*
X10170000Y45860000D03*
X10170000Y40780000D03*
X10170000Y35700000D03*
X10170000Y48400000D03*
X10170000Y23000000D03*
X10170000Y50940000D03*
X10170000Y20460000D03*
X25410000Y2680000D03*
X25410000Y5220000D03*
X25410000Y7760000D03*
X25410000Y10300000D03*
X25410000Y12840000D03*
X25410000Y20460000D03*
X25410000Y15380000D03*
X25410000Y17920000D03*
X25410000Y23000000D03*
X25410000Y25540000D03*
X25410000Y28080000D03*
X25410000Y33160000D03*
X25410000Y30620000D03*
X25410000Y35700000D03*
X25410000Y38240000D03*
X25410000Y45860000D03*
X25410000Y40780000D03*
X25410000Y43320000D03*
X25410000Y48400000D03*
X25410000Y50940000D03*
D12*
X28920000Y81000000D03*
X31460000Y81000000D03*
D13*
X34000000Y81000000D03*
D12*
X38100000Y13335000D03*
X35560000Y13335000D03*
D13*
X33020000Y13335000D03*
D12*
X38100000Y18415000D03*
X35560000Y18415000D03*
D13*
X33020000Y18415000D03*
D12*
X38100000Y27305000D03*
X35560000Y27305000D03*
D13*
X33020000Y27305000D03*
D12*
X38100000Y32385000D03*
X35560000Y32385000D03*
D13*
X33020000Y32385000D03*
D12*
X38100000Y41275000D03*
X35560000Y41275000D03*
D13*
X33020000Y41275000D03*
D12*
X38100000Y46355000D03*
X35560000Y46355000D03*
D13*
X33020000Y46355000D03*
D12*
X38100000Y60325000D03*
X35560000Y60325000D03*
D13*
X33020000Y60325000D03*
D12*
X38100000Y55245000D03*
X35560000Y55245000D03*
D13*
X33020000Y55245000D03*
D12*
X38100000Y69215000D03*
X35560000Y69215000D03*
D13*
X33020000Y69215000D03*
D12*
X38100000Y74295000D03*
X35560000Y74295000D03*
D13*
X33020000Y74295000D03*
D11*
X21620000Y2780000D03*
X19080000Y2780000D03*
X16540000Y2780000D03*
X14000000Y2780000D03*
X14000000Y5320000D03*
X16540000Y5320000D03*
X19080000Y5320000D03*
X21620000Y5320000D03*
X21620000Y48500000D03*
X19080000Y48500000D03*
X16540000Y48500000D03*
X14000000Y48500000D03*
D14*
X12780000Y96160000D03*
X3890000Y96160000D03*
%TA.AperFunction,SMDPad,CuDef*%
G36*
G01*
X14051813Y83450970D02*
X13171480Y83263850D01*
G75*
G02*
X12637754Y83610456I-93560J440166D01*
G01*
X11161581Y90555304D01*
G75*
G02*
X11508187Y91089030I440166J93560D01*
G01*
X12388520Y91276150D01*
G75*
G02*
X12922246Y90929544I93560J-440166D01*
G01*
X14398419Y83984696D01*
G75*
G02*
X14051813Y83450970I-440166J-93560D01*
G01*
G37*
%TD.AperFunction*%
%TA.AperFunction,SMDPad,CuDef*%
G36*
G01*
X8785000Y83635000D02*
X7885000Y83635000D01*
G75*
G02*
X7435000Y84085000I0J450000D01*
G01*
X7435000Y89185000D01*
G75*
G02*
X7885000Y89635000I450000J0D01*
G01*
X8785000Y89635000D01*
G75*
G02*
X9235000Y89185000I0J-450000D01*
G01*
X9235000Y84085000D01*
G75*
G02*
X8785000Y83635000I-450000J0D01*
G01*
G37*
%TD.AperFunction*%
%TA.AperFunction,SMDPad,CuDef*%
G36*
G01*
X3498520Y83263849D02*
X2618187Y83450970D01*
G75*
G02*
X2271581Y83984696I93560J440166D01*
G01*
X3747754Y90929544D01*
G75*
G02*
X4281480Y91276150I440166J-93560D01*
G01*
X5161813Y91089030D01*
G75*
G02*
X5508419Y90555304I-93560J-440166D01*
G01*
X4032246Y83610456D01*
G75*
G02*
X3498520Y83263850I-440166J93560D01*
G01*
G37*
%TD.AperFunction*%
D15*
X41000000Y1500000D03*
X36500000Y1500000D03*
X41000000Y8000000D03*
X36500000Y8000000D03*
D16*
X12000000Y79500000D03*
D17*
X12000000Y77600000D03*
D16*
X8500000Y79500000D03*
D17*
X8500000Y77600000D03*
D18*
X46000000Y4000000D03*
D11*
X18040000Y72500000D03*
X18040000Y69960000D03*
X18040000Y67420000D03*
X18040000Y64880000D03*
X15500000Y64880000D03*
X15500000Y67420000D03*
X15500000Y69960000D03*
X15500000Y72500000D03*
D17*
X24000000Y85600000D03*
D16*
X24000000Y83700000D03*
D19*
X21500000Y93218000D03*
X21300000Y83218000D03*
X18300000Y88218000D03*
D20*
X15000000Y77500000D03*
X15000000Y80000000D03*
X26500000Y76000000D03*
X29000000Y76000000D03*
X24500000Y64000000D03*
X22000000Y64000000D03*
D18*
X4000000Y4000000D03*
X25000000Y70000000D03*
D21*
X4572000Y36068000D03*
D22*
X2032000Y36068000D03*
X4572000Y38608000D03*
X2032000Y38608000D03*
D21*
X4572000Y10160000D03*
D22*
X2032000Y10160000D03*
X4572000Y12700000D03*
X2032000Y12700000D03*
X4572000Y15240000D03*
X2032000Y15240000D03*
X4572000Y17780000D03*
X2032000Y17780000D03*
X4572000Y20320000D03*
X2032000Y20320000D03*
X4572000Y22860000D03*
X2032000Y22860000D03*
X4572000Y25400000D03*
X2032000Y25400000D03*
X4572000Y27940000D03*
X2032000Y27940000D03*
X4572000Y30480000D03*
X2032000Y30480000D03*
X32960000Y84500000D03*
D21*
X35500000Y84500000D03*
X2000000Y57150000D03*
D22*
X2000000Y54610000D03*
X2000000Y52070000D03*
X2000000Y49530000D03*
X2000000Y46990000D03*
X2000000Y44450000D03*
D21*
X4000000Y78000000D03*
D22*
X1460000Y78000000D03*
X6500000Y74700000D03*
X6500000Y72160000D03*
X6500000Y69620000D03*
X6500000Y67080000D03*
X6500000Y64540000D03*
D21*
X6500000Y62000000D03*
D17*
X31750000Y65405000D03*
D16*
X33650000Y65405000D03*
X38730000Y51435000D03*
D17*
X36830000Y51435000D03*
X31750000Y51435000D03*
D16*
X33650000Y51435000D03*
X38730000Y37465000D03*
D17*
X36830000Y37465000D03*
X31750000Y37465000D03*
D16*
X33650000Y37465000D03*
X38730000Y23495000D03*
D17*
X36830000Y23495000D03*
D16*
X33650000Y23495000D03*
D17*
X31750000Y23495000D03*
X28500000Y64100000D03*
D16*
X28500000Y66000000D03*
D17*
X28500000Y58600000D03*
D16*
X28500000Y60500000D03*
X38730000Y65405000D03*
D17*
X36830000Y65405000D03*
D16*
X24000000Y78100000D03*
D17*
X24000000Y80000000D03*
D15*
X33500000Y1500000D03*
X29000000Y1500000D03*
X33500000Y8000000D03*
X29000000Y8000000D03*
D19*
X44704000Y14732000D03*
X44704000Y19812000D03*
X44704000Y24892000D03*
X44704000Y29972000D03*
X44704000Y35052000D03*
X44704000Y40132000D03*
X44704000Y45212000D03*
X44704000Y50292000D03*
X44704000Y55372000D03*
X44704000Y60452000D03*
X44704000Y65532000D03*
X44704000Y70612000D03*
X44704000Y75692000D03*
X44704000Y80772000D03*
X26924000Y94742000D03*
X32004000Y94742000D03*
X37084000Y94742000D03*
X42164000Y94742000D03*
X47244000Y94742000D03*
D23*
X48200000Y84200000D03*
X6600000Y19800000D03*
X9000000Y24000000D03*
X4500000Y80500000D03*
X6000000Y17000000D03*
X21875032Y17142299D03*
X18576596Y16101915D03*
X19374089Y13151231D03*
X13638009Y46482102D03*
X14674957Y24379349D03*
X15374968Y33020000D03*
X15124968Y18675021D03*
X15124968Y26924000D03*
X21875032Y18792869D03*
X19539263Y14137507D03*
X15824979Y30543852D03*
X23500000Y8000000D03*
X14399958Y20828000D03*
X20617852Y14367567D03*
X14500000Y14000000D03*
X31000000Y20000000D03*
X27000000Y37000000D03*
X18500000Y50500000D03*
X22000000Y12500000D03*
X30497891Y62002109D03*
X699999Y55699999D03*
X4500000Y60000000D03*
X7000000Y60000000D03*
X20000000Y61000000D03*
X24549154Y44450846D03*
X23500000Y13000000D03*
X28500000Y51500000D03*
X22000000Y21500000D03*
X23500000Y40000000D03*
X15000000Y91500000D03*
X12500000Y30500000D03*
X8000000Y51000000D03*
X27031474Y41090202D03*
X27852639Y47752000D03*
X31089032Y34634153D03*
X23585010Y25781605D03*
X28448000Y12700000D03*
X29244943Y38144263D03*
X29027659Y49204341D03*
X7620000Y46736000D03*
X8128000Y49276000D03*
X13965340Y25658660D03*
X6986362Y26976720D03*
X8472313Y27750688D03*
X3048000Y33528000D03*
X12192000Y19812000D03*
X7620000Y19812000D03*
X7620000Y28956000D03*
D24*
X28500000Y55136410D02*
X28500000Y51500000D01*
X12000000Y79500000D02*
X10974999Y80525001D01*
X5324999Y71595999D02*
X5935999Y70984999D01*
X10974999Y80525001D02*
X8007999Y80525001D01*
X8007999Y80525001D02*
X5324999Y77842001D01*
X5324999Y77842001D02*
X5324999Y71595999D01*
X11935001Y70984999D02*
X15500000Y67420000D01*
X5935999Y70984999D02*
X11935001Y70984999D01*
D25*
X48200000Y84200000D02*
X48200000Y14692436D01*
X48200000Y14692436D02*
X43407576Y9900012D01*
X18040000Y69960000D02*
X18040000Y67420000D01*
X18040000Y72500000D02*
X18040000Y69960000D01*
X12000000Y77600000D02*
X12989949Y77600000D01*
X12989949Y77600000D02*
X18040000Y72549949D01*
X18040000Y72549949D02*
X18040000Y72500000D01*
X1460000Y78000000D02*
X1460000Y72120000D01*
X1460000Y72120000D02*
X6500000Y67080000D01*
D24*
X9000000Y24000000D02*
X6600000Y21600000D01*
X6000000Y17000000D02*
X5874998Y17125002D01*
X5874998Y27210998D02*
X7620000Y28956000D01*
X5874998Y17125002D02*
X5874998Y27210998D01*
X6600000Y21600000D02*
X6600000Y19800000D01*
X21912999Y1592999D02*
X22041761Y1592999D01*
X22041761Y1592999D02*
X25410000Y4961238D01*
X25410000Y4961238D02*
X25410000Y5220000D01*
X20924999Y79524999D02*
X24000000Y82600000D01*
X24000000Y82600000D02*
X24000000Y83700000D01*
D26*
X38100000Y32385000D02*
X40880001Y35165001D01*
X40880001Y35165001D02*
X40880001Y38494999D01*
X40880001Y38494999D02*
X38100000Y41275000D01*
X38100000Y18415000D02*
X40880001Y21195001D01*
X40880001Y24524999D02*
X38100000Y27305000D01*
X40880001Y21195001D02*
X40880001Y24524999D01*
X38100000Y13335000D02*
X43307000Y13335000D01*
X43307000Y13335000D02*
X44704000Y14732000D01*
X38100000Y18415000D02*
X38100000Y13335000D01*
X38100000Y32385000D02*
X38100000Y27305000D01*
X38100000Y46355000D02*
X38100000Y41275000D01*
X38100000Y55245000D02*
X40880001Y52464999D01*
X40880001Y52464999D02*
X40880001Y49135001D01*
X40880001Y49135001D02*
X38100000Y46355000D01*
X38100000Y60325000D02*
X38100000Y55245000D01*
X38100000Y69215000D02*
X40880001Y66434999D01*
X40880001Y66434999D02*
X40880001Y63105001D01*
X40880001Y63105001D02*
X38100000Y60325000D01*
X38100000Y69215000D02*
X38100000Y74295000D01*
D27*
X26924000Y94742000D02*
X26924000Y82996000D01*
X26924000Y82996000D02*
X28920000Y81000000D01*
D28*
X39370000Y87376000D02*
X39370000Y82630000D01*
X39370000Y82630000D02*
X39370000Y75565000D01*
D27*
X31460000Y78460000D02*
X35200000Y78460000D01*
X35200000Y78460000D02*
X39370000Y82630000D01*
X31460000Y81000000D02*
X31460000Y78460000D01*
X31460000Y78460000D02*
X29000000Y76000000D01*
D28*
X39370000Y75565000D02*
X38212510Y74407510D01*
D24*
X6366099Y91603901D02*
X8335000Y89635000D01*
X4500000Y80500000D02*
X1943831Y83056169D01*
X1943831Y83056169D02*
X1943831Y89685011D01*
X1943831Y89685011D02*
X3862721Y91603901D01*
X3862721Y91603901D02*
X6366099Y91603901D01*
X8335000Y89635000D02*
X8335000Y86635000D01*
X6500000Y64540000D02*
X12620000Y64540000D01*
X12620000Y64540000D02*
X15500000Y67420000D01*
X17314897Y24379349D02*
X14674957Y24379349D01*
X17838557Y24903010D02*
X17314897Y24379349D01*
X18024957Y24452999D02*
X14399958Y20828000D01*
X22706415Y24903010D02*
X17838557Y24903010D01*
X25931761Y24452999D02*
X18024957Y24452999D01*
X23585010Y25781605D02*
X22706415Y24903010D01*
X25410000Y30620000D02*
X27000000Y29030000D01*
X27000000Y29030000D02*
X27000000Y25521238D01*
X27000000Y25521238D02*
X25931761Y24452999D01*
D25*
X21620000Y2780000D02*
X20407999Y3992001D01*
X11397999Y3992001D02*
X10170000Y5220000D01*
X20407999Y3992001D02*
X11397999Y3992001D01*
X26803774Y9900012D02*
X25875763Y8972001D01*
D24*
X39674999Y9325001D02*
X41000000Y8000000D01*
D25*
X43407576Y9900012D02*
X26803774Y9900012D01*
X25875763Y8972001D02*
X22732001Y8972001D01*
D24*
X25410000Y28080000D02*
X18288831Y28080000D01*
X12204942Y14874942D02*
X20110477Y14874942D01*
D25*
X18500000Y50500000D02*
X14206238Y50500000D01*
D24*
X17854681Y15380000D02*
X18576596Y16101915D01*
X10170000Y12840000D02*
X12204942Y14874942D01*
X23500000Y8000000D02*
X24827001Y6672999D01*
X14724969Y27323999D02*
X15124968Y26924000D01*
X27000000Y35681238D02*
X25931761Y34612999D01*
X19507967Y37152999D02*
X15374968Y33020000D01*
D25*
X12787999Y47332112D02*
X13638009Y46482102D01*
D24*
X22223034Y17867301D02*
X22600034Y17490301D01*
X10170000Y28080000D02*
X12917001Y25332999D01*
D25*
X14206238Y50500000D02*
X12787999Y49081761D01*
X12787999Y49081761D02*
X12787999Y47332112D01*
D24*
X14724969Y30516846D02*
X14724969Y27323999D01*
X12500000Y31218034D02*
X24601966Y43320000D01*
X15124968Y18675021D02*
X21757184Y18675021D01*
X18288831Y28080000D02*
X15824979Y30543852D01*
X27031474Y41090202D02*
X27031474Y38252712D01*
X14500000Y14000000D02*
X18525320Y14000000D01*
X12917001Y19809984D02*
X14859684Y17867301D01*
X25931761Y37152999D02*
X19507967Y37152999D01*
X22000000Y21500000D02*
X23899999Y19600001D01*
X12500000Y30500000D02*
X12500000Y31218034D01*
X24601966Y43320000D02*
X25410000Y43320000D01*
D25*
X22732001Y8972001D02*
X19080000Y5320000D01*
D24*
X12917001Y25332999D02*
X12917001Y19809984D01*
X22600034Y13100034D02*
X22000000Y12500000D01*
X21757184Y18675021D02*
X21875032Y18792869D01*
D25*
X20224090Y11544090D02*
X20224090Y13559232D01*
D24*
X10170000Y17920000D02*
X10947701Y17142299D01*
X25931761Y34612999D02*
X18821122Y34612999D01*
X23899999Y13399999D02*
X23500000Y13000000D01*
X14859684Y17867301D02*
X22223034Y17867301D01*
X23899999Y19600001D02*
X23899999Y13399999D01*
X27031474Y38252712D02*
X25931761Y37152999D01*
X18821122Y34612999D02*
X14724969Y30516846D01*
X18525320Y14000000D02*
X19374089Y13151231D01*
D25*
X19645815Y14137507D02*
X19539263Y14137507D01*
D24*
X10947701Y17142299D02*
X21875032Y17142299D01*
X10170000Y15380000D02*
X17854681Y15380000D01*
X22600034Y17490301D02*
X22600034Y13100034D01*
X24827001Y6672999D02*
X26172999Y6672999D01*
X20110477Y14874942D02*
X20617852Y14367567D01*
D25*
X14000000Y5320000D02*
X20224090Y11544090D01*
X20224090Y13559232D02*
X19645815Y14137507D01*
D24*
X27000000Y37000000D02*
X27000000Y35681238D01*
X26172999Y6672999D02*
X27674999Y8174999D01*
X27674999Y8174999D02*
X27674999Y8636001D01*
X27674999Y8636001D02*
X28363999Y9325001D01*
X28363999Y9325001D02*
X39674999Y9325001D01*
X23125001Y60511409D02*
X28500000Y55136410D01*
X20924999Y66740003D02*
X23125001Y64540001D01*
X23125001Y64540001D02*
X23125001Y60511409D01*
X20924999Y79524999D02*
X20924999Y66740003D01*
X36830000Y51435000D02*
X35562498Y51435000D01*
X30274999Y46147501D02*
X30274999Y14526999D01*
X35562498Y51435000D02*
X30274999Y46147501D01*
X29824988Y17254988D02*
X29824988Y37564218D01*
X30274999Y14526999D02*
X28448000Y12700000D01*
X31000000Y20000000D02*
X33335000Y20000000D01*
X29824988Y37564218D02*
X29244943Y38144263D01*
X25410000Y12840000D02*
X29824988Y17254988D01*
X33335000Y20000000D02*
X36830000Y23495000D01*
X28500000Y64100000D02*
X29525001Y63074999D01*
X25697317Y46947001D02*
X24888239Y46947001D01*
X29525001Y63074999D02*
X29525001Y50774685D01*
X29525001Y50774685D02*
X25697317Y46947001D01*
X24888239Y46947001D02*
X24322999Y46381761D01*
X30497891Y66692891D02*
X30497891Y62002109D01*
X33020000Y69215000D02*
X30497891Y66692891D01*
X28500000Y66000000D02*
X28500000Y67232502D01*
X28500000Y67232502D02*
X33020000Y71752502D01*
X33020000Y71752502D02*
X33020000Y74295000D01*
D25*
X20000000Y61000000D02*
X8000000Y61000000D01*
X8000000Y61000000D02*
X7000000Y60000000D01*
X4500000Y60000000D02*
X2339998Y60000000D01*
X2339998Y60000000D02*
X699999Y58360001D01*
X699999Y58360001D02*
X699999Y55699999D01*
X20000000Y56350000D02*
X20000000Y61000000D01*
X25410000Y50940000D02*
X20000000Y56350000D01*
D24*
X24549154Y44067916D02*
X24549154Y44450846D01*
X16181238Y35700000D02*
X24549154Y44067916D01*
X10170000Y35700000D02*
X16181238Y35700000D01*
X10170000Y38240000D02*
X17313002Y38240000D01*
X24322999Y45249997D02*
X24322999Y46381761D01*
X17313002Y38240000D02*
X24322999Y45249997D01*
X21500000Y48380000D02*
X21620000Y48500000D01*
X23650000Y40000000D02*
X23500000Y40000000D01*
X25410000Y38240000D02*
X23650000Y40000000D01*
X16540000Y48500000D02*
X19080000Y48500000D01*
X14000000Y48500000D02*
X15087001Y49587001D01*
X15087001Y49587001D02*
X20532999Y49587001D01*
X20532999Y49587001D02*
X21620000Y48500000D01*
X6500000Y67880998D02*
X6500000Y67080000D01*
X6500000Y74700000D02*
X6500000Y77117002D01*
X8500000Y79117002D02*
X8500000Y79500000D01*
X6500000Y77117002D02*
X8500000Y79117002D01*
X15500000Y69960000D02*
X16587001Y71047001D01*
X16587001Y71047001D02*
X16587001Y73021761D01*
X14908762Y74700000D02*
X6500000Y74700000D01*
X16587001Y73021761D02*
X14908762Y74700000D01*
X15500000Y72500000D02*
X6840000Y72500000D01*
X6840000Y72500000D02*
X6500000Y72160000D01*
D29*
X15500000Y64880000D02*
X17179999Y63200001D01*
X17179999Y63200001D02*
X21200001Y63200001D01*
X21200001Y63200001D02*
X22000000Y64000000D01*
D24*
X15000000Y80000000D02*
X15000000Y81508356D01*
X15000000Y81508356D02*
X14451573Y82056783D01*
X15000000Y77500000D02*
X20718000Y83218000D01*
X20718000Y83218000D02*
X21300000Y83218000D01*
D27*
X12780000Y89280000D02*
X15000000Y91500000D01*
X12780000Y87270000D02*
X12780000Y89280000D01*
X18300000Y88218000D02*
X18300000Y85905210D01*
X18300000Y85905210D02*
X14451573Y82056783D01*
X14451573Y82056783D02*
X5205421Y82056783D01*
X5205421Y82056783D02*
X3890000Y83372204D01*
X3890000Y83372204D02*
X3890000Y87270000D01*
X32004000Y94742000D02*
X29533999Y97212001D01*
X29533999Y97212001D02*
X21838399Y97212001D01*
X18300000Y93673602D02*
X18300000Y88218000D01*
X21838399Y97212001D02*
X18300000Y93673602D01*
D30*
X21300000Y83218000D02*
X21300000Y93018000D01*
X21300000Y93018000D02*
X21500000Y93218000D01*
D25*
X47244000Y50286398D02*
X47244000Y14726398D01*
X47244000Y14726398D02*
X44029603Y11512001D01*
X44029603Y11512001D02*
X22732001Y11512001D01*
X22732001Y11512001D02*
X16540000Y5320000D01*
D24*
X33500000Y1500000D02*
X33500000Y8000000D01*
X41000000Y1500000D02*
X41000000Y8000000D01*
D29*
X6500000Y62000000D02*
X12620000Y62000000D01*
X12620000Y62000000D02*
X15500000Y64880000D01*
X5755000Y55880000D02*
X5755000Y61255000D01*
X5755000Y61255000D02*
X6500000Y62000000D01*
X16220174Y52917989D02*
X7585641Y52917989D01*
X7585641Y52917989D02*
X6519998Y53983632D01*
D24*
X9082999Y49917001D02*
X8000000Y51000000D01*
X9082999Y41867001D02*
X9082999Y49917001D01*
X10170000Y40780000D02*
X9082999Y41867001D01*
D25*
X47244000Y94742000D02*
X47244000Y50286398D01*
D24*
X35562498Y65405000D02*
X31205001Y61047503D01*
X27852639Y47752000D02*
X28648320Y47752000D01*
X31205001Y53753999D02*
X30724999Y53273997D01*
X31205001Y61047503D02*
X31205001Y53753999D01*
X30724999Y53273997D02*
X30724999Y49828679D01*
X36830000Y65405000D02*
X35562498Y65405000D01*
X30724999Y49828679D02*
X28648320Y47752000D01*
X36830000Y37465000D02*
X33999153Y34634153D01*
X31089032Y34634153D02*
X33999153Y34634153D01*
X31750000Y51435000D02*
X31750000Y49653000D01*
X31750000Y49653000D02*
X27976998Y45879998D01*
X25410000Y17920000D02*
X28448000Y20958000D01*
X28448000Y30713988D02*
X28448000Y20958000D01*
X27976998Y36279952D02*
X28854976Y35401974D01*
X28854976Y31120964D02*
X28448000Y30713988D01*
X27976998Y45879998D02*
X27976998Y36279952D01*
X28854976Y35401974D02*
X28854976Y31120964D01*
X31750000Y62228913D02*
X30189001Y60667914D01*
X30189001Y60667914D02*
X30189001Y50365683D01*
X29027659Y49204341D02*
X30189001Y50365683D01*
X31750000Y65405000D02*
X31750000Y62228913D01*
X33020000Y60372500D02*
X34297510Y61650010D01*
X34297510Y61650010D02*
X34975010Y61650010D01*
X34975010Y61650010D02*
X38730000Y65405000D01*
X33020000Y18462500D02*
X34222500Y19665000D01*
X34222500Y19665000D02*
X34900000Y19665000D01*
X34900000Y19665000D02*
X38730000Y23495000D01*
X33020000Y32432500D02*
X34297510Y33710010D01*
X34297510Y33710010D02*
X34975010Y33710010D01*
X34975010Y33710010D02*
X38730000Y37465000D01*
X33020000Y46402500D02*
X34297510Y47680010D01*
X34297510Y47680010D02*
X34975010Y47680010D01*
X34975010Y47680010D02*
X38730000Y51435000D01*
X7620000Y38157004D02*
X7620000Y46736000D01*
X9408001Y29650997D02*
X6894998Y32164000D01*
X6894998Y37432002D02*
X7620000Y38157004D01*
X10170000Y28080000D02*
X9408001Y28841999D01*
X6894998Y32164000D02*
X6894998Y37432002D01*
X9408001Y28841999D02*
X9408001Y29650997D01*
X8128000Y46170996D02*
X8128000Y38665004D01*
X8527999Y46570995D02*
X8128000Y46170996D01*
X8527999Y48876001D02*
X8527999Y46570995D01*
X8853002Y31936998D02*
X10170000Y30620000D01*
X8853002Y37940002D02*
X8853002Y31936998D01*
X8128000Y38665004D02*
X8853002Y37940002D01*
X8128000Y49276000D02*
X8527999Y48876001D01*
X24443394Y26506606D02*
X23015331Y26506606D01*
X25410000Y25540000D02*
X24443394Y26506606D01*
X22048725Y25540000D02*
X16453002Y25540000D01*
X14441001Y25182999D02*
X14365339Y25258661D01*
X16096001Y25182999D02*
X14441001Y25182999D01*
X14365339Y25258661D02*
X13965340Y25658660D01*
X16453002Y25540000D02*
X16096001Y25182999D01*
X23015331Y26506606D02*
X22048725Y25540000D01*
X6986362Y26976720D02*
X7698345Y26976720D01*
X7698345Y26976720D02*
X8472313Y27750688D01*
X3048000Y33528000D02*
X3048000Y32962315D01*
X3048000Y32962315D02*
X3207001Y32803314D01*
X3207001Y32803314D02*
X3207001Y26575001D01*
X2032000Y25400000D02*
X3207001Y26575001D01*
X7620000Y19812000D02*
X8059001Y19372999D01*
X8059001Y19372999D02*
X11752999Y19372999D01*
X11752999Y19372999D02*
X12192000Y19812000D01*
X5395002Y8636000D02*
X1816998Y8636000D01*
X1816998Y8636000D02*
X856999Y9595999D01*
X856999Y9595999D02*
X856999Y11524999D01*
X856999Y11524999D02*
X2032000Y12700000D01*
X8075001Y3166237D02*
X8075001Y5956001D01*
X9648239Y1592999D02*
X8075001Y3166237D01*
X21912999Y1592999D02*
X9648239Y1592999D01*
X8075001Y5956001D02*
X5395002Y8636000D01*
D29*
X25410000Y48400000D02*
X23947999Y49862001D01*
X23947999Y49862001D02*
X23947999Y50605763D01*
X23947999Y50605763D02*
X21635773Y52917989D01*
X21635773Y52917989D02*
X16220174Y52917989D01*
D28*
X32004000Y94742000D02*
X39370000Y87376000D01*
D29*
X4572000Y27940000D02*
X6122001Y29490001D01*
X4572000Y33320257D02*
X4572000Y38608000D01*
X6122001Y29490001D02*
X6122001Y31770256D01*
X6122001Y31770256D02*
X4572000Y33320257D01*
X4572000Y25400000D02*
X4572000Y27598288D01*
X5755000Y54748630D02*
X5755000Y55880000D01*
X4572000Y38608000D02*
X6519998Y40555998D01*
X6519998Y53983632D02*
X5755000Y54748630D01*
X6519998Y40555998D02*
X6519998Y53983632D01*
X10170000Y5220000D02*
X5230000Y10160000D01*
X5755000Y55880000D02*
X3270000Y55880000D01*
X3270000Y55880000D02*
X2000000Y57150000D01*
X4572000Y22860000D02*
X4572000Y25400000D01*
X4572000Y20320000D02*
X4572000Y22860000D01*
X4572000Y17780000D02*
X4572000Y20320000D01*
X4572000Y15240000D02*
X4572000Y17780000D01*
X4572000Y12700000D02*
X4572000Y15240000D01*
X4572000Y10160000D02*
X4572000Y12700000D01*
X10170000Y2680000D02*
X10170000Y5220000D01*
M02*
